<?xml version="1.0" encoding="UTF-8"?>
<svg width="20px" height="17px" viewBox="0 0 20 17" version="1.1" xmlns="http://www.w3.org/2000/svg" xmlns:xlink="http://www.w3.org/1999/xlink">
    <!-- Generator: Sketch 64 (93537) - https://sketch.com -->
    <title>Artboard</title>
    <desc>Created with Sketch.</desc>
    <g id="Artboard" stroke="none" stroke-width="1" fill="none" fill-rule="evenodd">
        <g id="Path-2" fill="#FF6E43" fill-rule="nonzero">
            <path d="M19.3656,7.4216 L12.2584,0.31424 C12.05552,0.11136 11.78512,-1.77635684e-15 11.4968,-1.77635684e-15 C11.20816,-1.77635684e-15 10.93792,0.11152 10.73504,0.31424 L10.08976,0.95968 C9.88704,1.16224 9.77536,1.4328 9.77536,1.72128 C9.77536,2.0096 9.88704,2.28928 10.08976,2.49184 L14.236,6.6472 L1.0632,6.6472 C0.46928,6.6472 2.61124455e-13,7.11216 2.61124455e-13,7.70624 L2.61124455e-13,8.61872 C2.61124455e-13,9.2128 0.46928,9.72464 1.0632,9.72464 L14.28304,9.72464 L10.08992,13.9032 C9.8872,14.10608 9.77552,14.36928 9.77552,14.65776 C9.77552,14.94592 9.8872,15.21296 10.08992,15.41568 L10.7352,16.05904 C10.93808,16.26192 11.20832,16.37248 11.49696,16.37248 C11.78528,16.37248 12.05568,16.26048 12.25856,16.0576 L19.36576,8.9504 C19.56912,8.74688 19.68096,8.4752 19.6801643,8.1864 C19.6808,7.89664 19.56912,7.6248 19.3656,7.4216 Z" id="Path"></path>
        </g>
    </g>
</svg>