<?xml version="1.0" encoding="UTF-8"?>
<svg width="716px" height="661px" viewBox="0 0 716 661" version="1.1" xmlns="http://www.w3.org/2000/svg" xmlns:xlink="http://www.w3.org/1999/xlink">
    <!-- Generator: Sketch 64 (93537) - https://sketch.com -->
    <title>Artboard</title>
    <desc>Created with Sketch.</desc>
    <g id="Artboard" stroke="none" stroke-width="1" fill="none" fill-rule="evenodd">
        <g id="Group" transform="translate(0.000000, 43.000000)" fill="#0074E4">
            <g id="Group-11" opacity="0.670084635" transform="translate(44.000000, 19.000000)">
                <path d="M144.892605,21.27332 C251.806627,-47.8654181 650.671953,136.619789 639.78284,205.661698 C628.893727,274.703607 584.717686,561.250557 477.009817,571.959372 C369.301949,582.668188 115.298046,490.406643 37.0203721,397.658983 C-41.2573021,304.911322 37.9785822,90.412058 144.892605,21.27332 Z" id="Rectangle-3" opacity="0.900000036" transform="translate(322.732665, 289.418794) rotate(1.000000) translate(-322.732665, -289.418794) "></path>
            </g>
            <g id="Group-11-Copy" opacity="0.900000036">
                <path d="M149.591204,26.50074 C256.735493,-42.5815762 656.46105,141.754962 645.548649,210.740792 C634.636247,279.726623 590.365745,566.040829 482.425743,576.740655 C374.485742,587.440481 119.934097,495.253134 41.4874524,402.580552 C-36.9591927,309.90797 42.4469142,95.5830562 149.591204,26.50074 Z" id="Rectangle-3" transform="translate(327.815198, 294.429056) rotate(-2.000000) translate(-327.815198, -294.429056) "></path>
            </g>
        </g>
    </g>
</svg>