<?xml version="1.0" encoding="UTF-8"?>
<svg width="913px" height="395px" viewBox="0 0 913 395" version="1.1" xmlns="http://www.w3.org/2000/svg" xmlns:xlink="http://www.w3.org/1999/xlink">
    <!-- Generator: Sketch 64 (93537) - https://sketch.com -->
    <title>bring-value-to-your-network</title>
    <desc>Created with Sketch.</desc>
    <defs>
        <path d="M3.399,873.107 L8.299,875.852 L52.14,928.456 L66.977,908.714 L68.745,909.704 L53.462,930.041 L111.767,1000 L109.153,1000 L52.223,931.689 L0.888,1000 L0.06,1000 L0.06,997.76 L50.901,930.106 L3.399,873.107 Z M312.543,908.737 L330.014,983.807 C329.55,984.822 329.11,985.789 328.65,986.805 L310.974,910.853 L312.543,908.737 Z M220.603,841.953 L221.957,842.38 L191.809,969.234 C191.43,969.179 191.047,969.151 190.66,969.151 C190.521,969.151 190.382,969.155 190.242,969.162 L194.636,950.755 L147.134,901.312 L142.791,893.894 L195.19,948.435 L220.603,841.953 Z M197.658,951.003 L209.437,963.263 L207.765,964.421 L197.106,953.327 L197.658,951.003 Z M77.082,802.263 L102.261,847.929 C103.662,847.294 105.196,846.95 106.767,846.95 C107.919,846.95 109.091,847.135 110.243,847.526 C111.178,847.844 112.032,848.285 112.814,848.81 L113.919,847.51 L114.994,849.345 L114.368,850.081 C117.244,852.916 118.431,857.24 117.045,861.322 C116.58,862.692 115.863,863.905 114.97,864.936 L138.408,889.332 L142.752,896.75 L113.52,866.324 C112.621,867.04 111.619,867.612 110.547,868.014 L132.462,943.695 L129.968,942.298 L108.61,868.541 C107.997,868.648 107.373,868.703 106.743,868.703 C105.585,868.703 104.408,868.517 103.25,868.124 C102.388,867.831 101.597,867.432 100.865,866.961 L69.64,908.512 L67.872,907.522 L99.283,865.725 C96.761,863.339 95.481,859.836 95.983,856.303 L77.466,851.952 L0.06,833.76 L0.06,831.697 L96.442,854.35 L96.448,854.329 C97.223,852.05 98.684,850.205 100.517,848.924 L75.096,802.819 L77.082,802.263 Z M309.52,895.747 L312.103,906.849 L310.534,908.965 L307.744,896.977 L309.52,895.747 Z M300.815,867.203 L303.04,867.904 L309.159,894.199 L307.384,895.428 L300.815,867.203 Z M0.06,865.965 L5.655,872.678 L0.754,869.934 L0.06,869.101 L0.06,865.965 Z M294.443,839.822 L297.086,842.324 L302.651,866.233 L300.426,865.532 L294.443,839.822 Z M140.167,816.633 L142.246,817.288 L116.007,848.153 L114.933,846.318 L140.167,816.633 Z M232.748,791.067 C233.155,791.289 233.581,791.475 234.02,791.624 L222.299,840.94 L220.946,840.514 L232.748,791.067 Z M282.651,780.298 L296.48,839.716 L293.836,837.214 L280.635,780.495 L282.651,780.298 Z M163.748,791.994 L143.284,816.066 L141.206,815.412 L160.872,792.279 L163.748,791.994 Z M41.66,738.02 L61.533,774.064 L77.688,765.937 L78.167,767.945 L62.504,775.823 L76.349,800.933 L74.363,801.49 L60.709,776.725 L0.06,807.232 L0.06,804.984 L59.738,774.966 L40.203,739.537 L41.66,738.02 Z M203.848,741.725 L205.084,743.37 L165.126,790.373 L162.249,790.658 L203.848,741.725 Z M275.929,751.413 L282.313,778.846 L280.297,779.043 L274.209,752.882 L275.929,751.413 Z M236.892,641.952 L256.528,665.071 C258.319,663.817 260.467,663.114 262.697,663.1 L264.049,647.411 L265.898,649.333 L264.696,663.276 C265.219,663.371 265.743,663.492 266.262,663.668 C271.951,665.599 274.996,671.775 273.065,677.463 C271.527,681.991 267.299,684.844 262.768,684.844 C261.975,684.844 261.172,684.756 260.373,684.575 L275.551,749.792 L273.832,751.261 L259.258,688.641 L238.348,776.253 C238.002,776.174 237.65,776.118 237.294,776.086 L237.282,772.07 L258.327,683.89 C257.683,683.604 257.081,683.258 256.521,682.864 L237.083,705.729 L237.074,702.64 L254.993,681.561 C254.445,681 253.957,680.389 253.545,679.729 L237.03,688.036 L237.023,685.792 L252.646,677.934 C252.315,677.094 252.097,676.211 251.983,675.306 L236.993,675.772 L236.987,673.762 L251.921,673.299 C251.98,672.356 252.149,671.407 252.468,670.469 C253.01,668.875 253.893,667.498 254.997,666.371 L236.902,645.066 L236.892,641.952 Z M98.062,755.689 L97.3,758.321 L79.522,767.263 L79.043,765.256 L98.062,755.689 Z M138.199,735.5 L134.973,739.371 L99.1,757.415 L99.862,754.784 L138.199,735.5 Z M235.602,704.372 L235.611,707.461 L206.064,742.217 L204.828,740.572 L235.602,704.372 Z M23.781,540.07 L25.173,545.904 L11.695,671.102 C11.85,671.147 12.006,671.182 12.159,671.234 C14.332,671.972 16.114,673.331 17.386,675.043 L50.419,651.683 L50.922,653.788 L18.435,676.762 C19.005,677.929 19.36,679.202 19.484,680.514 L57.022,679.349 L57.498,681.343 L19.615,682.519 L19.484,682.523 C19.407,683.359 19.243,684.199 18.961,685.029 C18.241,687.15 16.93,688.902 15.275,690.167 L40.913,736.666 L39.457,738.183 L13.57,691.233 C12.065,691.995 10.386,692.408 8.663,692.408 C8.189,692.408 7.711,692.376 7.233,692.312 L0.06,714.742 L0.06,708.151 L5.269,691.86 L5.166,691.831 C3.05908171,691.115239 1.31953626,689.814976 0.0590210898,688.174523 L0.06,674.88 L0.239379287,674.652674 C1.62413889,672.96141 3.48422222,671.741556 5.545,671.122 L0.06,651.188 L0.06,643.622 L7.518,670.726 C7.898,670.685 8.281,670.665 8.667,670.665 C9.015,670.665 9.365,670.682 9.717,670.716 L23.781,540.07 Z M182.445,713.245 L183.671,714.876 L138.284,737.706 L141.51,733.835 L182.445,713.245 Z M235.548,686.534 L235.555,688.778 L185.011,714.202 L183.785,712.571 L235.548,686.534 Z M97.177,678.102 L95.187,680.174 L59.005,681.297 L58.529,679.302 L97.177,678.102 Z M120.741,677.371 L120.154,679.399 L97.299,680.108 L99.289,678.037 L120.741,677.371 Z M154.694,676.317 L156.17,678.281 L121.706,679.35 L122.294,677.323 L154.694,676.317 Z M188.396,675.271 L186.677,677.334 L157.975,678.225 L156.499,676.261 L188.396,675.271 Z M235.51,673.808 L235.516,675.818 L188.651,677.272 L190.37,675.209 L235.51,673.808 Z M104.436,613.484 L105.741,615.02 L52.22,652.869 L51.718,650.764 L104.436,613.484 Z M268.908,614.434 L266.067,647.377 L264.218,645.454 L266.881,614.57 L268.908,614.434 Z M227.4,630.777 L235.41,640.207 L235.419,643.32 L226.095,632.343 L227.4,630.777 Z M221.188,623.462 L226.43,629.635 L225.125,631.201 L218.991,623.979 L221.188,623.462 Z M200.384,602.071 L204.984,604.384 L220.113,622.197 L217.916,622.713 L200.384,602.071 Z M153.746,578.613 L155.778,579.635 L106.953,614.163 L105.647,612.627 L153.746,578.613 Z M270.883,591.529 L269.036,612.945 L267.009,613.081 L268.737,593.038 L270.883,591.529 Z M173.96,567.858 L202.532,601.498 L197.932,599.184 L172.923,569.738 L173.96,567.858 Z M273.33,539.774 L275.286,540.465 L271.049,589.608 L268.903,591.117 L273.33,539.774 Z M124.507,512.736 L127.213,512.82 L172.081,565.646 L174.395,564.01 L171.9,568.535 L171.74,568.347 L157.145,578.668 L155.113,577.646 L170.436,566.811 L124.507,512.736 Z M209.682,539.056 L210.324,541.062 L174.935,566.088 L177.159,562.055 L209.682,539.056 Z M25.831,521.02 L27.625,523.13 L25.645,541.519 L24.253,535.686 L25.831,521.02 Z M230.22,524.533 L232.539,525.352 L211.589,540.168 L210.947,538.161 L230.22,524.533 Z M274.218,529.479 L276.199,529.884 L275.417,538.945 L273.461,538.253 L274.218,529.479 Z M235.52,397.49 L274.81,481.4 C275.979,480.979 277.224,480.755 278.493,480.755 C279.33,480.755 280.177,480.852 281.02,481.055 L304.865,410.822 L305.785,414.356 L282.92,481.7 C283.163,481.808 283.395,481.931 283.627,482.055 L312.188,438.945 L312.867,441.555 L285.302,483.163 C286.463,484.099 287.407,485.251 288.091,486.543 L321.013,472.837 L321.524,474.799 L288.862,488.396 C289.525,490.519 289.556,492.858 288.787,495.125 C287.258,499.63 283.063,502.465 278.56,502.495 L276.327,528.402 L274.345,527.997 L276.559,502.319 C276.036,502.224 275.512,502.102 274.992,501.927 C273.072,501.274 271.463,500.132 270.235,498.694 L239.018,520.771 L236.32,520.219 L269.076,497.055 C267.726,494.711 267.247,491.881 267.916,489.098 L215.236,471.212 L215.769,469.273 L268.561,487.197 C269.511,485.063 271.086,483.37 272.992,482.254 L234.7,400.472 L235.52,397.49 Z M234.665,521.389 L237.363,521.941 L234.016,524.308 L231.697,523.488 L234.665,521.389 Z M26.521,514.618 L28.437,515.582 L27.842,521.105 L26.049,518.996 L26.521,514.618 Z M27.049,509.71 L29.062,509.773 L28.606,514.013 L26.69,513.049 L27.049,509.71 Z M70.452,445.992 L125.923,511.302 L123.217,511.218 L120.721,508.279 C120.231,507.59 119.679,506.939 119.069,506.334 L69.134,447.543 L70.452,445.992 Z M30.918,492.538 L29.221,508.3 L27.207,508.237 L28.604,495.262 L30.918,492.538 Z M7.141,394.115 L29.415,404.689 C30.995,402.02 33.623,400.21 36.566,399.598 L36.363,397.78 L38.558,399.333 L38.563,399.375 C38.581,399.375 38.599,399.374 38.616,399.374 L49.241,406.887 L49.118,406.939 C49.707,408.78 49.817,410.785 49.341,412.769 L65.145,418.134 L70.909,422.211 L48.695,414.669 C48.158,415.875 47.418,416.934 46.536,417.835 L69.482,444.851 L68.165,446.402 L45.005,419.134 C43.195,420.402 41.02,421.112 38.765,421.112 C38.712,421.112 38.659,421.112 38.606,421.111 L31.199,489.923 L28.886,492.647 L36.61,420.889 C36.162,420.798 35.715,420.687 35.27,420.537 C29.583,418.606 26.538,412.43 28.469,406.742 L28.562,406.506 L7.341,396.432 L7.141,394.115 Z M478.009,54.818 L494.37,153.752 C494.629,153.733 494.888,153.724 495.149,153.724 C496.308,153.724 497.486,153.911 498.645,154.304 C498.928,154.399 499.199,154.514 499.469,154.631 L645.33,100.709 C644.791,98.7 644.818,96.517 645.537,94.4 C647.074,89.87 651.303,87.017 655.834,87.017 C656.994,87.017 658.173,87.204 659.332,87.597 C665.019,89.528 668.065,95.705 666.134,101.393 C664.596,105.921 660.367,108.774 655.836,108.774 C654.677,108.774 653.498,108.588 652.339,108.194 C651.994,108.077 651.659,107.944 651.334,107.796 L479.682,408.2 L480.248,408.721 L479.115,409.192 L477.112,412.699 L477.301,409.948 L322.902,474.225 L322.391,472.264 L476.578,408.073 L388.635,327.19 L313.963,439.901 L313.284,437.291 L387.138,325.813 L348.052,289.864 L306.649,411.81 L305.729,408.277 L346.662,287.711 C344.794,286.88 343.266,285.569 342.166,283.977 L358.094,286.106 C356.152,287.734 353.673,288.656 351.096,288.656 C350.596,288.656 350.092,288.621 349.588,288.55 L388.261,324.119 L427.166,265.396 C426.683,266.93 426.461,268.506 426.482,270.063 L389.758,325.495 L477.556,406.243 L493.405,175.326 C492.819,175.23 492.233,175.097 491.652,174.901 C491.073,174.704 490.531,174.454 490.009,174.175 L435.789,256.015 C434.34,256.606 432.977,257.427 431.763,258.457 L488.335,173.066 C487.983,172.783 487.649,172.483 487.339,172.162 L396.862,243.15 L397.451,240.136 L486.084,170.594 C485.781,170.135 485.513,169.656 485.282,169.157 L406.13,195.685 L406.572,193.42 L484.609,167.265 C484.195,165.635 484.149,163.894 484.547,162.169 L417.304,138.457 L417.693,136.464 L484.696,160.092 L485.38,159.84 C485.648,159.289 485.952,158.767 486.299,158.28 L423.956,104.389 L424.399,102.118 L487.615,156.764 C488.957,155.478 490.603,154.555 492.39,154.085 L475.979,54.854 L478.009,54.818 Z M197.807,463.175 L214.367,468.797 L213.834,470.736 L198.044,465.375 L197.807,463.175 Z M87.629,425.768 L196.265,462.651 L196.501,464.851 L86.231,427.413 L87.629,425.768 Z M70.066,419.805 L86.124,425.257 L84.727,426.902 L75.83,423.881 L70.066,419.805 Z M134.171,368.689 L131.276,372.097 L50.84,406.209 L48.912,404.846 L134.171,368.689 Z M646.031,102.591 L501.717,155.941 C505.346,158.693 506.99,163.549 505.446,168.099 C503.938,172.54 499.84,175.358 495.408,175.465 L479.715,404.095 L649.594,106.796 C648.043,105.71 646.827,104.254 646.031,102.591 Z M110.497,339.353 L47.099,403.265 C47.277,403.478 47.447,403.698 47.608,403.924 L41.749,399.78 C41.92,399.829 42.092,399.882 42.264,399.94 C43.536,400.372 44.667,401.025 45.648,401.829 L105.604,341.014 L110.497,339.353 Z M194.183,309.205 L207.478,337.599 L256.146,316.959 L255.467,319.428 L208.329,339.419 L234.555,395.429 L233.734,398.41 L206.48,340.203 L185.526,349.09 L185.302,347.005 L205.628,338.385 L192.369,310.066 L194.183,309.205 Z M34.725,365.078 L38.338,397.368 L36.143,395.816 L32.778,365.74 L34.725,365.078 Z M0.06,390.753 L5.595,393.381 L5.794,395.698 L0.06,392.975 L0.06,390.753 Z M183.88,347.608 L184.105,349.693 L134.306,370.812 L137.201,367.404 L183.88,347.608 Z M29.942,322.338 L34.556,363.576 L32.61,364.237 L28.311,325.822 L29.942,322.338 Z M145.65,300.393 L148.109,301.435 L112.83,337.001 L107.915,338.669 L145.65,300.393 Z M16.967,245.818 L19.355,246.831 L21.699,254.855 C22.385,254.721 23.086,254.651 23.795,254.651 C24.946,254.651 26.116,254.835 27.266,255.226 C27.626,255.348 27.975,255.486 28.313,255.641 L30.635,251.615 L32.497,252.405 L30.049,256.648 C32.908,258.668 34.611,261.96 34.637,265.441 L54.696,265.987 L53.767,267.971 L34.463,267.446 C34.367,267.973 34.246,268.499 34.069,269.02 C32.648,273.205 28.927,275.95 24.797,276.345 L29.384,317.352 L30.866,316.88 L29.707,319.356 L29.611,319.387 L29.627,319.527 L27.996,323.01 L27.66,320.008 L0.06,328.791 L0.06,326.683 L27.433,317.973 L22.776,276.345 C21.941,276.268 21.102,276.103 20.273,275.822 C18.576,275.246 17.121,274.286 15.956,273.079 L0.06,286.5 L0.06,283.872 L14.702,271.51 C14.509,271.217 14.33,270.915 14.166,270.604 L0.06,276.47 L0.06,274.297 L13.395,268.751 C12.734,266.63 12.703,264.292 13.472,262.027 C13.646,261.514 13.866,261.03 14.105,260.562 L0.06,251.621 L0.06,249.239 L15.182,258.865 C16.387,257.311 17.978,256.127 19.772,255.417 L16.967,245.818 Z M118.657,288.945 L121.495,290.149 L31.624,318.746 L32.783,316.27 L118.657,288.945 Z M278.008,307.688 L278.52,309.652 L257.201,318.693 L257.881,316.224 L278.008,307.688 Z M335.893,283.139 L339.804,283.662 L279.895,309.068 L279.384,307.105 L335.893,283.139 Z M184.688,288.927 L193.556,307.867 L191.742,308.729 L184.26,292.748 L184.688,288.927 Z M155.757,290.141 L157.535,291.934 L149.23,300.306 L146.766,299.261 L155.757,290.141 Z M116.36,225.037 L121.688,226.733 L168.389,264.139 C169.922,262.553 171.902,261.473 174.052,261.035 L172.089,242.77 L174.18,243.436 L176.048,260.821 C176.103,260.82 176.158,260.82 176.213,260.82 C177.37,260.82 178.546,260.995 179.702,261.387 C182.376,262.295 184.456,264.144 185.718,266.437 L184.321,278.927 C183.417,279.936 182.337,280.76 181.148,281.367 L183.488,286.365 L183.061,290.186 L179.279,282.11 C178.283,282.405 177.242,282.561 176.184,282.561 C175.032,282.561 173.861,282.376 172.709,281.984 C171.426,281.549 170.286,280.889 169.299,280.074 L158.646,290.813 L156.87,289.012 L167.512,278.218 C166.98,277.51 166.547,276.736 166.202,275.923 L149.276,281.309 L147.695,279.705 L165.592,274.01 C165.378,273.035 165.297,272.027 165.362,271.007 L138.397,270.273 L136.362,268.209 L165.676,269.007 C165.745,268.734 165.815,268.461 165.907,268.19 C166.213,267.29 166.635,266.465 167.135,265.706 L116.36,225.037 Z M145.954,280.259 L147.543,281.86 L123.657,289.461 L120.818,288.257 L145.954,280.259 Z M342.293,271.402 L361.83,279.526 C361.734,280.112 361.589,280.699 361.392,281.28 C360.942,282.604 360.263,283.784 359.413,284.792 L338.566,282.006 L340.742,281.083 C340.467,280.222 340.292,279.326 340.238,278.41 L301.576,277.062 L280.93,274.303 L283.605,274.398 L340.305,276.398 C340.396,275.693 340.556,274.986 340.795,274.287 C341.155,273.226 341.666,272.261 342.293,271.402 Z M258.065,167.033 L308.534,226.278 L327.597,219.889 L328.99,221.539 L309.937,227.924 L344.842,268.897 C346.659,267.621 348.845,266.907 351.109,266.907 C352.262,266.907 353.436,267.093 354.59,267.484 C356.326,268.074 357.813,269.063 358.991,270.31 L365.712,265.037 L367.009,266.572 L360.226,271.894 C361.381,273.686 362.007,275.804 361.968,277.984 L343.294,270.218 L343.312,270.198 L343.312,270.198 L307.887,228.611 L272.092,240.608 L269.273,239.436 L306.482,226.965 L256.355,168.121 L258.065,167.033 Z M277.059,275.275 L286.495,276.537 L276.787,276.198 C276.896,275.897 276.987,275.589 277.059,275.275 Z M186.858,269.535 C186.957,270.014 187.027,270.499 187.059,270.991 L261.272,273.61 C261.284,274.266 261.376,274.93 261.557,275.589 L261.403,275.662 L186.994,273.067 C186.903,273.774 186.742,274.483 186.504,275.183 C186.389,275.521 186.259,275.849 186.116,276.168 L186.858,269.535 Z M69.24,266.383 L133.936,268.143 L135.984,270.208 L74.303,268.53 L69.24,266.383 Z M216.837,257.01 L220.078,258.041 L186.9,269.161 L187.146,266.961 L216.837,257.01 Z M56.306,266.031 L65.198,266.273 L70.261,268.42 L55.377,268.015 L56.306,266.031 Z M395.674,241.53 L395.085,244.544 L368.172,265.659 L366.876,264.124 L395.674,241.53 Z M239.965,249.258 L241.76,250.774 L222.451,257.246 L219.21,256.214 L239.965,249.258 Z M54.476,214.306 L33.24,251.116 L31.379,250.326 L52.11,214.389 L54.476,214.306 Z M267.143,240.15 L269.962,241.322 L243.399,250.225 L241.603,248.709 L267.143,240.15 Z M10.3,215.846 L18.82,245 L16.432,243.987 L8.229,215.918 L10.3,215.846 Z M170.58,209.93 L174.008,241.83 L171.917,241.165 L168.567,209.985 L170.58,209.93 Z M103.005,211.769 L118.475,224.159 L113.147,222.464 L99.899,211.853 L103.005,211.769 Z M404.962,193.96 L404.52,196.225 L330.498,221.033 L329.105,219.383 L404.962,193.96 Z M0.06,186.679 L1.964,187.317 L9.866,214.359 L7.795,214.432 L0.06,187.961 L0.06,186.679 Z M57.072,205.787 L59.014,206.438 L55.371,212.753 L53.005,212.837 L57.072,205.787 Z M92.64,203.466 L101.22,210.339 L98.114,210.424 L91.034,204.752 L92.64,203.466 Z M163.132,159.401 L165.614,163.703 L170.422,208.456 L168.409,208.511 L163.132,159.401 Z M16.133,142.188 L69.227,184.716 L85.192,157.042 L84.661,161.979 L70.813,185.984 L81.189,194.295 L80.935,196.664 L69.799,187.744 L59.768,205.133 L57.825,204.482 L68.213,186.474 L14.83,143.718 L16.133,142.188 Z M82.557,195.391 L91.458,202.52 L89.853,203.806 L82.303,197.759 L82.557,195.391 Z M0.06,180.801 L1.46,185.591 L0.06,185.122 L0.06,180.801 Z M218.469,120.552 L257.098,165.898 L255.388,166.986 L217.795,122.856 L218.469,120.552 Z M163.765,146.498 L165.223,160.069 L162.742,155.768 L161.906,147.988 L163.765,146.498 Z M123.482,90.669 L124.641,92.678 L86.487,158.815 L87.018,153.878 L123.482,90.669 Z M153.359,68.43 L155.471,69.294 L163.578,144.755 L161.719,146.244 L153.359,68.43 Z M0.06,129.314 L14.98,141.264 L13.677,142.794 L0.06,131.888 L0.06,129.314 Z M345.873,111.139 L416.285,135.968 L415.895,137.96 L343.72,112.509 L345.873,111.139 Z M209.42,109.93 L217.323,119.207 L216.65,121.511 L207.853,111.185 L209.42,109.93 Z M277.281,86.951 L344.102,110.514 L341.949,111.885 L273.436,87.725 L277.281,86.951 Z M181.097,79.776 L185.142,81.431 L208.462,108.805 L206.895,110.06 L181.097,79.776 Z M36.276,89.875 C36.107,90.638 36.001,91.407 35.954,92.176 L0.06,106.859 L0.06,104.689 L36.276,89.875 Z M397.107,78.526 L423.111,101.005 L422.668,103.275 L395.339,79.651 L397.107,78.526 Z M139.566,62.788 L141.442,63.555 L125.494,91.2 L124.335,89.191 L139.566,62.788 Z M248.037,76.639 L274.56,85.992 L270.715,86.766 L246.342,78.171 L248.037,76.639 Z M70.782,75.759 L67.945,79.09 L60.92,81.963 C60.35,81.451 59.734,80.978 59.074,80.549 L70.782,75.759 Z M234.46,0.04 L161.704,39.467 C162.614,41.594 162.854,44.011 162.254,46.389 L235.385,72.177 L234.527,74.005 L161.594,48.286 C161.064,49.44 160.343,50.453 159.494,51.323 L183.056,78.982 L179.011,77.327 L157.967,52.624 C156.738,53.487 155.345,54.089 153.869,54.389 L155.291,67.624 L153.179,66.76 L151.873,54.602 C151.816,54.603 151.76,54.604 151.703,54.604 C150.547,54.604 149.373,54.428 148.218,54.036 C147.859,53.914 147.511,53.774 147.173,53.62 L142.186,62.264 L140.311,61.496 L145.435,52.613 C144.007,51.603 142.868,50.275 142.08,48.764 L125.632,55.492 L122.979,54.407 L141.321,46.904 C140.678,44.8 140.654,42.484 141.416,40.241 C141.52,39.935 141.642,39.643 141.769,39.353 L125.685,30.403 L129.722,28.157 L143.209,36.977 C145.064,34.643 147.802,33.173 150.752,32.909 L150.815,16.42 L152.827,15.301 L152.76,32.921 C153.578,33 154.399,33.163 155.211,33.44 C156.978,34.039 158.49,35.05 159.678,36.328 L206.719,0.04 L210.005,0.04 L162.214,36.906 L230.244,0.04 L234.46,0.04 Z M382.385,65.799 L395.94,77.517 L394.172,78.642 L379.895,66.301 L382.385,65.799 Z M94.989,65.857 L94.745,68.127 L70.922,77.872 L73.759,74.542 L94.989,65.857 Z M236.786,72.671 L246.452,76.08 L244.757,77.612 L235.928,74.498 L236.786,72.671 Z M106.461,61.164 L107.474,62.92 L96.299,67.491 L96.543,65.221 L106.461,61.164 Z M319.836,11.73 L380.97,64.577 L378.48,65.078 L318.335,13.087 L319.836,11.73 Z M121.029,55.205 L123.682,56.29 L108.854,62.355 L107.841,60.6 L121.029,55.205 Z M468.95,0.04 L477.765,53.345 L475.736,53.381 L467.045,0.829 L467.53,0.04 L468.95,0.04 Z M125.382,27.937 L126.231,28.409 L124.166,29.558 L123.484,29.178 L125.382,27.937 Z M98.592,13.03 L123.924,27.126 L122.026,28.367 L98.601,15.333 L98.592,13.03 Z M127.384,26.628 L128.325,27.244 L126.343,28.347 L125.55,27.828 L127.384,26.628 Z M98.572,7.788 L126.034,25.746 L124.2,26.945 L98.581,10.193 L98.572,7.788 Z M152.848,9.977 L152.834,13.607 L150.822,14.726 L150.835,11.293 L152.848,9.977 Z M75.246,0.04 L97.111,12.207 L97.12,14.509 L71.117,0.04 L75.246,0.04 Z M306.313,0.04 L318.711,10.757 L317.21,12.114 L303.242,0.04 L306.313,0.04 Z M152.886,0.04 L152.855,8.208 L150.842,9.524 L150.878,0.04 L152.886,0.04 Z M86.723,0.04 L97.091,6.819 L97.1,9.224 L83.054,0.04 L86.723,0.04 Z" id="path-1"></path>
        <linearGradient x1="-0.00600036002%" y1="49.9979999%" x2="100%" y2="49.9979999%" id="linearGradient-3">
            <stop stop-color="#CCCCCC" offset="0%"></stop>
            <stop stop-color="#CCCCCC" offset="100%"></stop>
        </linearGradient>
        <polygon id="path-4" points="0.06 0.04 612.81444 0.04 612.81444 1000 0.06 1000"></polygon>
        <path d="M8.994,26.825 C8.448,26.725 7.904,26.594 7.365,26.431 L0.92,1.683 C1.311,1.278 1.722,0.899 2.151,0.545 L8.994,26.825" id="path-6"></path>
        <radialGradient cx="133.353976%" cy="43.9421613%" fx="133.353976%" fy="43.9421613%" r="185.434435%" gradientTransform="translate(1.333540,0.439422),scale(1.000000,0.307230),rotate(-151.537485),translate(-1.333540,-0.439422)" id="radialGradient-8">
            <stop stop-color="#000000" offset="0%"></stop>
            <stop stop-color="#000000" offset="100%"></stop>
        </radialGradient>
    </defs>
    <g id="bring-value-to-your-network" stroke="none" stroke-width="1" fill="none" fill-rule="evenodd" opacity="0.05">
        <g id="Group-Copy" transform="translate(324.500000, 132.500000) scale(-1, -1) rotate(-124.000000) translate(-324.500000, -132.500000) translate(-9.000000, -368.000000)">
            <g id="Group-15">
                <mask id="mask-2" fill="white">
                    <use xlink:href="#path-1"></use>
                </mask>
                <g id="Clip-14"></g>
                <polygon id="Fill-13" fill="url(#linearGradient-3)" mask="url(#mask-2)" points="0.06 1000 1000 1000 1000 0.04 0.06 0.04"></polygon>
            </g>
            <g id="Group-18">
                <mask id="mask-5" fill="white">
                    <use xlink:href="#path-4"></use>
                </mask>
                <g id="Clip-17"></g>
                <path d="M544.04,44.625 C542.736,44.383 541.355,44.456 540.01,44.913 C539.869,44.961 539.735,45.022 539.598,45.076 L493.276,-41.741 L601.26,-216.985 C601.612,-216.81 601.98,-216.67 602.355,-216.549 L544.04,44.625 M387.912,281.283 C386.805,281.172 385.66,281.282 384.539,281.662 C383.809,281.91 383.142,282.259 382.539,282.678 L275.526,155.918 L426.255,59.971 C427.346,61.383 428.87,62.378 430.566,62.82 L387.912,281.283 M277.256,273.812 C277.295,272.856 277.17,271.878 276.844,270.917 C275.424,266.733 270.879,264.492 266.695,265.913 C265.632,266.274 264.696,266.838 263.912,267.545 L198.776,212.549 C198.918,212.333 199.05,212.111 199.17,211.883 L379.478,286.865 C379.418,287.059 379.365,287.254 379.32,287.452 L277.256,273.812 M337.103,534.625 C334.643,535.515 332.883,537.489 332.173,539.824 L211.166,515.074 C211.29,513.947 211.185,512.776 210.795,511.631 C209.93,509.084 207.906,507.264 205.514,506.545 L267.494,281.284 C268.663,281.551 269.902,281.563 271.129,281.268 L337.103,534.625 M441.455,597.647 L322.157,555.47 L333.734,547.327 C335.798,549.749 339.199,550.805 342.395,549.72 C344.14,549.128 345.539,547.988 346.483,546.563 L441.455,597.647 M385.068,762.12 C383.533,761.662 381.849,761.654 380.218,762.207 C379.314,762.514 378.509,762.972 377.805,763.535 L325.453,709.112 L444.682,607.273 C445.255,607.829 445.903,608.295 446.607,608.656 L385.068,762.12 M337.42,869.112 C335.805,868.558 334.005,868.509 332.263,869.1 C331.149,869.479 330.177,870.084 329.371,870.84 L242.871,788.988 C243.972,787.583 244.585,785.831 244.576,784.014 L374.941,771.292 C375.01,771.647 375.094,772.003 375.213,772.356 C375.872,774.296 377.205,775.81 378.86,776.743 L337.42,869.112 M449.358,1162.58 C448.928,1163.27 448.606,1164.02 448.399,1164.81 L327.719,1134.74 L342.25,1085.86 C343.543,1086.09 344.912,1086.02 346.246,1085.56 C347.559,1085.12 348.679,1084.36 349.556,1083.41 L449.358,1162.58 M369.125,1387.42 C368.5,1386.41 367.668,1385.57 366.703,1384.94 L396.226,1314.56 L469.162,1330.41 C469.089,1331.44 469.215,1332.51 469.568,1333.55 C469.719,1333.99 469.91,1334.41 470.125,1334.8 L369.125,1387.42 M248.776,1379.56 C248.779,1378.7 248.649,1377.82 248.358,1376.96 C247.696,1375.01 246.353,1373.49 244.689,1372.56 L268.5,1319.04 L356.031,1386.7 C355.329,1387.6 354.828,1388.64 354.559,1389.75 L248.776,1379.56 M135.399,1217.62 C135.708,1217.37 136.001,1217.11 136.267,1216.83 L267.297,1318.11 L243.34,1371.96 C241.731,1371.41 239.941,1371.37 238.208,1371.95 C237.794,1372.09 237.405,1372.27 237.031,1372.47 L135.399,1217.62 M187.795,984.608 C188.103,984.728 188.418,984.824 188.738,984.905 L172.702,1088.77 C171.695,1088.7 170.659,1088.83 169.644,1089.17 C166.847,1090.12 164.926,1092.47 164.379,1095.17 L141.208,1092.7 C141.22,1091.81 141.093,1090.9 140.791,1090.01 C140.17,1088.18 138.951,1086.73 137.426,1085.78 L187.795,984.608 M-48.939,842.103 C-48.301,840.667 -48.083,839.043 -48.381,837.423 L78.853,801.766 C80.382,805.763 84.802,807.872 88.888,806.484 C89.17,806.389 89.441,806.277 89.704,806.154 L186.022,970.648 C185.26,971.191 184.619,971.862 184.102,972.615 L-48.939,842.103 M18.855,519.434 L64.775,711.83 L-51.26,832.606 C-51.996,832.02 -52.83,831.573 -53.721,831.275 L18.855,519.434 M-141.027,313.019 L-76.328,253.513 L-0.305,368.262 C-1.159,368.95 -1.854,369.799 -2.358,370.749 L-141.027,313.019 M-141.746,311.673 L-153.407,141.786 C-152.975,141.716 -152.545,141.618 -152.117,141.473 C-151.691,141.328 -151.293,141.144 -150.909,140.94 L-77.154,252.266 L-141.746,311.673 M-268.315,91.369 C-267.175,90.569 -266.28,89.498 -265.694,88.275 L-159.521,127.524 C-162.191,129.549 -163.402,133.121 -162.266,136.469 C-161.156,139.736 -158.14,141.809 -154.881,141.887 L-143.335,310.092 L-268.315,91.369 M-120.983,-65.387 C-119.948,-65.313 -118.882,-65.438 -117.838,-65.793 C-116.104,-66.382 -114.709,-67.512 -113.766,-68.928 L4.607,-4.78 L-149.147,128.13 C-150.135,127.184 -151.346,126.505 -152.66,126.159 L-120.983,-65.387 M11.238,-13.516 C11.497,-12.754 11.861,-12.059 12.307,-11.436 L5.802,-5.814 L-107.851,-67.403 L11.174,-18.434 C10.695,-16.881 10.677,-15.171 11.238,-13.516 M195.876,-10.343 C197.562,-12.377 198.203,-15.194 197.344,-17.883 L281.552,-58.015 L195.876,-10.343 M392.228,-58.986 C392.507,-58.166 392.908,-57.423 393.401,-56.765 L353.851,-21.011 L308.891,-63.615 C309.748,-64.717 310.302,-66.031 310.499,-67.422 L391.805,-61.409 C391.82,-60.605 391.955,-59.789 392.228,-58.986 M411.713,-194.607 C414.015,-196.123 415.378,-198.727 415.315,-201.466 L596.986,-222.505 C597.052,-222.196 597.13,-221.888 597.234,-221.582 C597.771,-219.998 598.759,-218.694 600.003,-217.761 L492.471,-43.25 L411.713,-194.607 M436.256,47.98 C435.205,47.436 434.037,47.128 432.832,47.09 L408.84,-193.435 C409.189,-193.504 409.539,-193.588 409.887,-193.706 C410.066,-193.767 410.237,-193.841 410.41,-193.913 L491.574,-41.794 L436.256,47.98 M230.342,102.398 C231.996,100.714 232.853,98.351 232.595,95.944 L424.887,57.246 C424.925,57.381 424.956,57.518 425.002,57.653 C425.129,58.027 425.29,58.381 425.465,58.723 L274.564,154.779 L230.342,102.398 M198.424,203.246 C197.536,202.102 196.365,201.232 195.047,200.709 L223.118,104.64 C224.441,104.899 225.847,104.833 227.215,104.368 C227.945,104.12 228.612,103.773 229.215,103.353 L273.307,155.58 L198.424,203.246 M262.134,269.873 L189.409,246.731 L192.836,216.105 C193.45,216.049 194.067,215.928 194.677,215.722 C195.926,215.298 196.996,214.591 197.853,213.703 L262.91,268.632 C262.612,269.022 262.354,269.437 262.134,269.873 M202.443,506.246 L182.658,322.447 C182.987,322.38 183.316,322.299 183.643,322.189 C187.828,320.767 190.069,316.224 188.647,312.039 L188.578,311.865 L262.073,276.978 C262.928,278.747 264.375,280.08 266.089,280.823 L204.061,506.253 C203.529,506.196 202.987,506.192 202.443,506.246 M240.925,610.793 C239.088,608.637 236.191,607.571 233.32,608.129 L205.716,521.801 L205.791,521.78 C207.953,521.046 209.59,519.474 210.477,517.553 L318.967,555.908 L240.925,610.793 M442.265,601.337 L242.729,614.708 C242.658,614.272 242.559,613.837 242.413,613.405 C242.244,612.907 242.028,612.439 241.776,611.999 L320.675,556.512 L442.503,599.583 C442.358,600.152 442.28,600.74 442.265,601.337 M240.888,621.201 C242.084,619.812 242.779,618.039 242.828,616.182 L442.364,602.811 C442.435,603.246 442.533,603.682 442.68,604.113 C442.932,604.859 443.289,605.539 443.721,606.151 L324.427,708.046 L240.888,621.201 M242.153,778.319 C240.841,777.045 239.123,776.251 237.294,776.086 L236.838,623.717 C237.028,623.667 237.219,623.618 237.409,623.553 C238.313,623.247 239.118,622.788 239.822,622.225 L323.301,709.007 L242.153,778.319 M327.305,873.993 L223.712,841.384 L235.457,791.968 C236.661,792.14 237.921,792.046 239.152,791.628 C240.181,791.279 241.09,790.739 241.859,790.065 L328.39,871.944 C327.93,872.571 327.565,873.262 327.305,873.993 M341.102,1070.41 C339.645,1070.91 338.43,1071.78 337.517,1072.89 L238.931,1008.01 L331.082,883.734 C332.158,884.305 333.359,884.63 334.6,884.667 L342.75,1070.04 C342.199,1070.11 341.647,1070.23 341.102,1070.41 M326.284,1134.38 L180.121,1097.96 C180.19,1097.52 180.223,1097.07 180.216,1096.62 L335.834,1079.55 C335.902,1079.89 335.984,1080.23 336.098,1080.56 C336.895,1082.91 338.677,1084.64 340.826,1085.46 L326.284,1134.38 M448.563,1169.4 C448.861,1170.28 449.304,1171.07 449.846,1171.76 L287.289,1283.67 C286.433,1282.65 285.344,1281.86 284.127,1281.37 L327.298,1136.16 L448.156,1166.27 C448.084,1167.3 448.209,1168.36 448.563,1169.4 M289.086,1289.76 C289.227,1288.6 289.127,1287.4 288.727,1286.22 C288.566,1285.75 288.362,1285.31 288.128,1284.89 L450.873,1172.84 C451.627,1173.5 452.496,1174.01 453.433,1174.35 L395.339,1312.85 L289.086,1289.76 M359.757,1384.06 C359.391,1384.18 359.045,1384.34 358.709,1384.51 L286.701,1294.55 C287.662,1293.62 288.37,1292.47 288.77,1291.21 L394.758,1314.24 L365.392,1384.25 C363.66,1383.53 361.672,1383.41 359.757,1384.06 M278.59,1296.37 C280.199,1296.91 281.99,1296.96 283.723,1296.37 C284.384,1296.15 284.99,1295.84 285.547,1295.47 L357.449,1385.3 C357.313,1385.41 357.176,1385.51 357.048,1385.62 L269.118,1317.65 L278.59,1296.37 M273.731,1285.81 C273.043,1287.53 272.934,1289.48 273.574,1291.36 C274.236,1293.31 275.577,1294.83 277.24,1295.76 L267.914,1316.72 L137.215,1215.69 L273.731,1285.81 M135.787,1100.16 C136.371,1099.96 136.914,1099.7 137.418,1099.39 L159.693,1128.93 L132.45,1203.63 C132.088,1203.54 131.716,1203.47 131.341,1203.43 L133.765,1100.56 C134.438,1100.51 135.117,1100.39 135.787,1100.16 M164.64,1099.32 C165.365,1101.46 166.905,1103.08 168.795,1103.98 L160.297,1127.28 L138.6,1098.5 C139.861,1097.35 140.715,1095.83 141.051,1094.17 L164.223,1096.64 C164.21,1097.53 164.338,1098.43 164.64,1099.32 M193.256,984.725 C194.76,984.215 196.007,983.297 196.929,982.141 L236.814,1008.39 L176.367,1089.91 C175.683,1089.5 174.94,1089.19 174.161,1088.99 L190.196,985.134 C191.205,985.195 192.24,985.07 193.256,984.725 M93.686,802.002 L221.957,842.38 L191.809,969.234 C190.603,969.061 189.343,969.154 188.111,969.572 C187.83,969.668 187.56,969.779 187.297,969.902 L90.979,805.41 C92.196,804.537 93.121,803.347 93.686,802.002 M126.075,650.155 C126.736,650.682 127.474,651.103 128.262,651.398 L87.821,791.055 C86.966,790.89 86.078,790.863 85.185,790.991 L66.398,712.272 L126.075,650.155 M125.451,638.205 C123.335,640.291 122.462,643.472 123.482,646.475 C123.824,647.483 124.352,648.376 125.008,649.135 L65.99,710.563 L19.54,515.938 C20.014,515.726 20.457,515.473 20.869,515.183 L125.451,638.205 M7.279,382.066 C8.692,381.587 9.876,380.746 10.779,379.688 L82.031,430.076 L20.863,502.093 C19.546,501.17 17.966,500.652 16.326,500.643 L6.127,382.355 C6.512,382.285 6.897,382.197 7.279,382.066 M-46.47,226.052 L1.447,367.186 C1.269,367.266 1.097,367.357 0.928,367.447 L-75.227,252.5 L-46.47,226.052 M-148.944,139.459 L-55.428,212.831 C-56.703,214.813 -57.101,217.332 -56.284,219.737 C-55.028,223.436 -51.332,225.611 -47.6,225.085 L-76.053,251.253 L-149.677,140.124 C-149.418,139.916 -149.173,139.695 -148.944,139.459 M90.626,41.834 C89.957,43.398 89.779,45.178 90.222,46.927 L-147,130.578 L-147.503,130.393 C-147.699,129.987 -147.924,129.604 -148.18,129.246 L5.995,-4.028 L90.626,41.834 M21.388,-8.511 C22.687,-8.952 23.8,-9.696 24.674,-10.637 L90.251,39.95 L7.19,-5.062 L13.275,-10.321 C15.361,-8.319 18.461,-7.518 21.388,-8.511 M181.744,-15.987 L98.479,-16.416 L98.206,-87.617 C98.808,-87.675 99.412,-87.795 100.009,-87.998 C101.153,-88.386 102.146,-89.014 102.964,-89.798 L183.233,-20.113 C182.371,-18.91 181.845,-17.483 181.744,-15.987 M298.291,-61.781 L227.359,89.269 C225.711,88.674 223.859,88.607 222.07,89.215 C220.04,89.904 218.473,91.332 217.555,93.094 L105.622,47.307 C106.096,45.758 106.112,44.054 105.552,42.405 C105.476,42.18 105.387,41.963 105.293,41.75 L295.821,-64.264 C296.461,-63.246 297.309,-62.404 298.291,-61.781 M189.532,200.568 C189.268,200.658 189.012,200.761 188.763,200.874 L159.408,149.988 L218.892,102.344 C219.689,103.168 220.646,103.81 221.7,104.227 L193.629,200.295 C192.305,200.037 190.9,200.104 189.532,200.568 M187.974,246.274 L87.766,214.388 C87.924,213.671 87.983,212.929 87.935,212.179 L184.238,209.559 C184.308,209.946 184.398,210.333 184.528,210.717 C185.573,213.796 188.311,215.815 191.349,216.105 L187.974,246.274 M227.119,613.865 L165.642,582.942 L199.609,521.34 C201.02,522.053 202.641,522.352 204.271,522.134 L231.902,608.544 C229.484,609.497 227.766,611.509 227.119,613.865 M133.631,651.479 C134.265,651.264 134.848,650.97 135.386,650.623 L170.26,697.031 L90.844,792.321 C90.342,791.977 89.806,791.687 89.24,791.464 L129.689,651.786 C130.966,652.01 132.316,651.926 133.631,651.479 M23.058,512.877 L163.609,583.573 L134.358,636.622 C132.572,635.812 130.49,635.646 128.486,636.325 C127.799,636.559 127.17,636.884 126.596,637.269 L21.993,514.225 C22.396,513.812 22.756,513.362 23.058,512.877 M83.242,430.933 L196.03,510.693 C195.61,511.553 195.348,512.488 195.257,513.454 L24.254,508.146 C24.211,507.452 24.085,506.754 23.852,506.064 C23.453,504.891 22.803,503.878 21.99,503.049 L83.242,430.933 M12.486,372.629 L173.768,317.871 C174.162,318.758 174.706,319.537 175.355,320.2 L82.991,428.946 L11.632,378.483 C12.626,376.758 12.979,374.676 12.486,372.629 M90.707,48.323 C91.096,49.171 91.627,49.917 92.252,50.557 L-17.397,179.271 L-146.937,135.855 C-146.632,134.656 -146.598,133.375 -146.89,132.106 L90.707,48.323 M178.498,307.035 C177.563,307.352 176.73,307.833 176.009,308.425 L86.354,217.485 C86.744,216.963 87.064,216.394 87.316,215.796 L187.807,247.772 L181.222,306.619 C180.32,306.602 179.401,306.728 178.498,307.035 M176.482,321.156 C177.846,322.11 179.488,322.636 181.19,322.61 L200.988,506.529 C200.874,506.562 200.76,506.588 200.647,506.627 C199.049,507.169 197.736,508.17 196.801,509.428 L84.202,429.802 L176.482,321.156 M-40.723,217.625 L72.02,213.694 C72.087,214.215 72.205,214.735 72.381,215.251 C73.078,217.304 74.53,218.887 76.321,219.801 L56.95,261.171 L-41.093,219.592 C-40.89,218.958 -40.762,218.299 -40.723,217.625 M72.176,210.849 C72.073,211.28 72.002,211.72 71.973,212.167 L3.698,214.576 L-40.772,216.146 C-40.838,215.626 -40.956,215.106 -41.131,214.592 C-41.529,213.423 -42.175,212.412 -42.985,211.584 L-16.92,180.988 L72.176,210.849 M93.376,51.514 C94.279,52.148 95.304,52.592 96.39,52.812 L80.073,204.684 C79.183,204.672 78.276,204.799 77.385,205.102 C75.178,205.851 73.52,207.473 72.646,209.449 L-15.888,179.777 L93.376,51.514 M81.542,204.843 L97.859,52.97 C98.749,52.983 99.656,52.855 100.548,52.553 C100.812,52.463 101.068,52.36 101.317,52.247 L157.494,149.628 L85.708,207.126 C84.58,205.959 83.124,205.164 81.542,204.843 M82.529,220.255 C83.474,219.935 84.312,219.448 85.039,218.85 L174.941,309.481 C174.593,309.898 174.289,310.348 174.032,310.824 L58.311,261.748 L77.695,220.348 C79.226,220.801 80.904,220.807 82.529,220.255 M-148.02,138.305 C-147.798,137.967 -147.6,137.614 -147.432,137.248 L-18.43,180.482 L-44.109,210.627 C-46.127,209.209 -48.765,208.735 -51.28,209.588 C-52.559,210.021 -53.652,210.749 -54.519,211.667 L-148.02,138.305 M12.012,371.23 C11.313,369.66 10.153,368.415 8.752,367.594 L57.685,263.087 L173.455,312.185 C173.023,313.538 172.941,315.014 173.292,316.472 L12.012,371.23 M164.322,582.278 L23.721,511.556 C23.963,510.937 24.124,510.288 24.207,509.622 L180.289,514.468 L195.258,514.932 C195.315,515.548 195.435,516.165 195.643,516.775 C196.172,518.336 197.137,519.625 198.354,520.556 L164.322,582.278 M227.26,618.55 C227.477,619.188 227.773,619.774 228.122,620.314 L138.639,641.344 L138.635,641.33 C138.065,639.654 136.99,638.296 135.642,637.355 L164.928,584.237 L226.855,615.386 C226.778,616.427 226.903,617.499 227.26,618.55 M231.203,778.127 C229.531,779.646 228.568,781.822 228.582,784.1 L122.606,794.577 L94.164,797.39 C94.095,797.037 94.012,796.685 93.892,796.336 C93.486,795.137 92.816,794.106 91.979,793.266 L171.172,698.244 L231.203,778.127 M138.977,642.783 L229.147,621.592 C229.878,622.332 230.742,622.918 231.69,623.324 L171.232,695.865 L136.549,649.714 C138.404,647.959 139.348,645.382 138.977,642.783 M234.007,776.474 C233.426,776.672 232.888,776.935 232.387,777.243 L172.144,697.079 L233.211,623.805 C233.91,623.95 234.632,624.002 235.361,623.954 L235.816,776.093 C235.213,776.151 234.606,776.272 234.007,776.474 M184.109,208.084 L87.705,210.707 C87.654,210.507 87.602,210.306 87.533,210.106 C87.309,209.445 86.998,208.837 86.631,208.279 L158.241,150.922 L187.484,201.615 C185.382,203.102 184.129,205.522 184.109,208.084 M217.066,99.364 C217.291,100.025 217.602,100.633 217.969,101.19 L158.661,148.693 L102.595,51.506 C103.646,50.763 104.483,49.786 105.064,48.674 L216.996,94.461 C216.523,96.01 216.506,97.713 217.066,99.364 M181.781,-14.511 C181.847,-13.965 181.967,-13.419 182.15,-12.878 C182.329,-12.351 182.559,-11.856 182.829,-11.393 L104.233,40.002 C102.868,38.285 100.854,37.203 98.684,37.01 L98.485,-14.939 L181.781,-14.511 M26.773,-15.308 L97.008,-14.947 L97.206,37.018 C96.604,37.076 96,37.197 95.402,37.399 C94.103,37.841 92.99,38.585 92.117,39.525 L25.572,-11.809 C26.236,-12.858 26.65,-14.057 26.773,-15.308 M96.728,-87.607 L97.002,-16.424 L26.779,-16.785 C26.723,-17.41 26.603,-18.039 26.392,-18.66 C26.062,-19.629 25.561,-20.488 24.939,-21.228 L92.364,-89.396 C93.601,-88.382 95.122,-87.751 96.728,-87.607 M-45.448,224.468 C-43.783,223.727 -42.485,222.469 -41.669,220.951 L56.324,262.51 L7.414,366.966 C5.987,366.451 4.406,366.336 2.846,366.712 L-45.448,224.468 M222.299,840.94 L94.13,800.593 C94.253,800.027 94.317,799.447 94.314,798.859 L228.731,785.569 C228.8,785.922 228.884,786.275 229.003,786.624 C229.836,789.076 231.743,790.852 234.02,791.624 L222.299,840.94 M327.26,879.249 C327.48,879.9 327.785,880.499 328.145,881.05 L196.809,972.009 C195.858,970.878 194.62,970.043 193.243,969.576 L223.369,842.824 L326.936,875.426 C326.738,876.668 326.827,877.974 327.26,879.249 M237.695,1007.2 L197.738,980.907 C198.74,979.025 199,976.754 198.26,974.576 C198.098,974.098 197.89,973.647 197.65,973.223 L329.066,882.21 C329.311,882.465 329.57,882.703 329.844,882.922 L237.695,1007.2 M335.676,1078.08 L180.049,1095.15 C179.982,1094.82 179.902,1094.5 179.793,1094.18 C179.334,1092.83 178.546,1091.68 177.553,1090.79 L238.051,1009.2 L336.685,1074.11 C336.019,1075.31 335.658,1076.68 335.676,1078.08 M278.578,1281.22 C278.332,1281.3 278.095,1281.4 277.863,1281.5 L176.787,1103.31 C178.186,1102.34 179.213,1100.96 179.762,1099.39 L325.863,1135.8 L282.711,1280.95 C281.377,1280.68 279.959,1280.75 278.578,1281.22 M174.789,1104.33 C175.034,1104.24 175.272,1104.15 175.504,1104.04 L274.91,1279.29 L161.358,1128.68 L170.182,1104.49 C171.65,1104.87 173.243,1104.85 174.789,1104.33 M137.991,1208.8 C137.267,1206.66 135.727,1205.04 133.837,1204.14 L160.754,1130.34 L275.766,1282.88 C275.238,1283.36 274.782,1283.9 274.404,1284.5 L137.834,1214.35 C138.523,1212.64 138.631,1210.68 137.991,1208.8 M261.557,275.589 L187.951,310.528 C186.789,308.565 184.856,307.233 182.69,306.783 L189.242,248.229 L261.591,271.251 C261.187,272.627 261.155,274.12 261.557,275.589 M426.509,49.878 C425.128,51.492 424.42,53.62 424.616,55.793 L232.299,94.497 C232.271,94.405 232.25,94.312 232.219,94.219 C231.94,93.398 231.539,92.656 231.047,91.998 L353.826,-18.998 L426.509,49.878 M394.389,-55.668 C396.207,-54 398.746,-53.229 401.267,-53.701 L430.004,47.504 C429.092,47.813 428.279,48.279 427.57,48.849 L354.926,-19.991 L394.389,-55.668 M402.688,-54.106 C406.668,-55.644 408.765,-60.054 407.381,-64.131 C406.383,-67.07 403.843,-69.044 400.97,-69.469 L407.535,-191.627 L431.309,46.69 L402.688,-54.106 M305.153,-60.953 C306.191,-61.305 307.109,-61.852 307.882,-62.535 L352.751,-20.016 L230.058,90.901 C229.639,90.516 229.181,90.185 228.695,89.9 L299.607,-61.107 C301.319,-60.422 303.271,-60.314 305.153,-60.953 M190.812,-7.525 L115.699,34.269 L183.695,-10.195 C185.443,-8.191 188.115,-7.153 190.812,-7.525 M-48.78,836 C-49.121,835.11 -49.601,834.313 -50.193,833.628 L65.182,713.537 L83.749,791.33 L83.744,791.331 C79.936,792.624 77.748,796.503 78.454,800.344 L-48.78,836 M476.111,1323.05 C475.598,1323.11 475.082,1323.23 474.573,1323.4 C471.932,1324.3 470.068,1326.44 469.408,1328.95 L396.807,1313.17 L454.877,1174.73 C455.626,1174.85 456.397,1174.86 457.172,1174.76 L476.111,1323.05 M374.793,769.822 L244.429,782.543 C244.36,782.187 244.275,781.832 244.156,781.479 C243.902,780.734 243.547,780.053 243.115,779.44 L324.327,710.073 L376.739,764.56 C375.49,766.01 374.783,767.877 374.793,769.822 M332.246,544.716 C332.416,545.213 332.632,545.68 332.883,546.121 L320.449,554.865 L213.537,517.067 L331.877,541.272 C331.752,542.4 331.858,543.57 332.246,544.716 M380.045,285.501 L199.738,210.519 C200.223,208.959 200.246,207.238 199.68,205.572 C199.553,205.194 199.39,204.839 199.215,204.494 L274.268,156.719 L381.411,283.633 C380.865,284.19 380.406,284.819 380.045,285.501 M534.591,52.329 L440.506,54.011 C440.438,53.508 440.324,53.005 440.155,52.507 C439.635,50.973 438.691,49.702 437.5,48.775 L492.379,-40.285 L538.283,45.75 C536.02,47.193 534.645,49.679 534.591,52.329 M612.387,-226.726 C610.966,-230.911 606.423,-233.152 602.238,-231.731 C598.846,-230.579 596.732,-227.374 596.81,-223.972 L415.139,-202.932 C415.073,-203.24 414.995,-203.549 414.891,-203.855 C413.471,-208.039 408.926,-210.279 404.742,-208.859 C400.558,-207.439 398.316,-202.894 399.737,-198.71 C400.735,-195.771 403.277,-193.797 406.149,-193.371 L399.494,-69.551 C398.742,-69.521 397.982,-69.39 397.232,-69.135 C394.346,-68.155 392.387,-65.69 391.913,-62.883 L310.569,-68.898 C310.535,-69.631 310.405,-70.372 310.158,-71.102 C308.736,-75.287 304.194,-77.527 300.009,-76.106 C295.855,-74.696 293.621,-70.209 294.978,-66.05 L196.764,-19.242 C194.946,-22.623 190.909,-24.302 187.154,-23.027 C186.012,-22.639 185.019,-22.012 184.201,-21.229 L103.931,-90.914 C105.383,-92.939 105.875,-95.607 105.014,-98.147 C103.592,-102.331 99.049,-104.571 94.864,-103.15 C90.68,-101.731 88.44,-97.186 89.859,-93.002 C90.189,-92.032 90.692,-91.173 91.312,-90.434 L23.888,-22.266 C21.821,-23.959 18.959,-24.586 16.243,-23.664 C14.219,-22.977 12.654,-21.554 11.734,-19.799 L-112.769,-71.023 C-112.291,-72.576 -112.271,-74.286 -112.834,-75.943 C-114.255,-80.127 -118.799,-82.367 -122.983,-80.947 C-127.168,-79.525 -129.408,-74.982 -127.987,-70.797 C-127.091,-68.156 -124.949,-66.293 -122.44,-65.632 L-154.117,125.914 C-155.151,125.839 -156.218,125.965 -157.262,126.32 C-157.47,126.391 -157.67,126.475 -157.868,126.561 L-265.179,86.89 C-264.782,85.412 -264.802,83.806 -265.331,82.248 C-266.752,78.063 -271.295,75.823 -275.479,77.244 C-279.664,78.664 -281.904,83.209 -280.484,87.392 C-279.063,91.577 -274.52,93.818 -270.335,92.397 C-270.081,92.31 -269.835,92.213 -269.596,92.104 L-143.31,313.112 L-143.728,313.495 L-142.895,313.842 L-141.42,316.422 L-141.558,314.398 L-2.925,372.113 C-3.412,373.674 -3.435,375.395 -2.869,377.063 C-1.744,380.377 1.342,382.463 4.655,382.485 L14.855,500.772 C14.469,500.842 14.084,500.93 13.702,501.06 C9.518,502.482 7.277,507.025 8.697,511.209 C10.027,515.124 14.09,517.337 18.035,516.441 L-55.158,830.939 C-56.352,830.774 -57.598,830.869 -58.816,831.283 C-63,832.703 -65.24,837.247 -63.82,841.431 C-62.399,845.616 -57.855,847.857 -53.671,846.435 C-51.974,845.859 -50.603,844.764 -49.66,843.392 L183.379,973.905 C182.591,975.679 182.433,977.738 183.108,979.722 C183.728,981.552 184.947,983.01 186.472,983.952 L136.103,1085.13 C134.412,1084.47 132.492,1084.38 130.642,1085.01 C126.457,1086.43 124.217,1090.97 125.638,1095.16 C126.663,1098.18 129.319,1100.18 132.288,1100.53 L129.864,1203.4 C129.191,1203.44 128.512,1203.57 127.842,1203.79 C123.658,1205.21 121.418,1209.76 122.838,1213.94 C124.259,1218.13 128.803,1220.37 132.987,1218.95 C133.4,1218.81 133.79,1218.63 134.164,1218.43 L235.795,1373.28 C233.234,1375.33 232.09,1378.82 233.203,1382.1 C234.624,1386.29 239.168,1388.53 243.353,1387.11 C246.178,1386.15 248.111,1383.76 248.635,1381.03 L354.343,1391.22 C354.291,1392.2 354.416,1393.21 354.752,1394.21 C356.173,1398.39 360.717,1400.63 364.902,1399.21 C369.086,1397.79 371.326,1393.25 369.906,1389.06 C369.869,1388.95 369.821,1388.85 369.781,1388.75 L470.954,1336.04 C473.006,1338.55 476.467,1339.66 479.718,1338.56 C483.902,1337.13 486.143,1332.59 484.723,1328.41 C483.642,1325.22 480.754,1323.17 477.594,1322.99 L458.619,1174.43 L458.711,1174.41 C462.895,1172.98 465.137,1168.44 463.716,1164.26 C462.295,1160.07 457.751,1157.83 453.567,1159.25 C452.252,1159.7 451.13,1160.45 450.252,1161.41 L350.449,1082.24 C351.684,1080.27 352.056,1077.79 351.25,1075.41 C350.182,1072.27 347.347,1070.22 344.226,1070 L336.076,884.573 C336.522,884.503 336.967,884.403 337.408,884.253 C341.593,882.832 343.834,878.288 342.413,874.103 C341.754,872.165 340.421,870.65 338.767,869.718 L380.207,777.348 C381.821,777.902 383.621,777.951 385.363,777.36 C389.547,775.94 391.787,771.395 390.367,767.211 C389.671,765.162 388.224,763.584 386.439,762.668 L447.978,609.205 C449.513,609.662 451.197,609.671 452.828,609.117 C457.013,607.696 459.254,603.152 457.833,598.969 C456.412,594.784 451.868,592.543 447.683,593.964 C445.94,594.556 444.541,595.695 443.596,597.12 L347.182,545.261 C347.923,543.517 348.058,541.507 347.401,539.57 C346.123,535.811 342.326,533.63 338.533,534.255 L272.555,280.88 L271.843,281.065 C274.566,280.139 276.457,277.887 277.059,275.275 L379.123,288.917 C379.084,289.873 379.209,290.851 379.535,291.812 C380.955,295.996 385.499,298.236 389.684,296.816 C393.868,295.396 396.108,290.851 394.688,286.667 C393.818,284.105 391.775,282.277 389.361,281.567 L432.025,63.062 C433.053,63.135 434.113,63.009 435.151,62.656 C438.347,61.571 440.402,58.664 440.566,55.487 L534.699,53.805 C534.769,54.225 534.865,54.645 535.006,55.062 C536.428,59.246 540.971,61.486 545.155,60.067 C549.34,58.646 551.58,54.102 550.16,49.917 C549.366,47.58 547.598,45.852 545.464,45.028 L603.797,-216.226 C604.969,-216.074 606.189,-216.173 607.383,-216.578 C611.567,-217.999 613.809,-222.543 612.387,-226.726" id="Fill-16" fill="#000000" mask="url(#mask-5)"></path>
            </g>
            <g id="Group-42" transform="translate(325.000000, 490.000000)">
                <mask id="mask-7" fill="white">
                    <use xlink:href="#path-6"></use>
                </mask>
                <g id="Clip-41"></g>
                <path d="M8.994,26.825 C8.448,26.725 7.904,26.594 7.365,26.431 L0.92,1.683 C1.311,1.278 1.722,0.899 2.151,0.545 L8.994,26.825" id="Fill-40" fill="url(#radialGradient-8)" mask="url(#mask-7)"></path>
            </g>
        </g>
    </g>
</svg>