<?xml version="1.0" encoding="UTF-8"?>
<svg width="237px" height="57px" viewBox="0 0 237 57" version="1.1" xmlns="http://www.w3.org/2000/svg" xmlns:xlink="http://www.w3.org/1999/xlink">
    <!-- Generator: Sketch 64 (93537) - https://sketch.com -->
    <title>Artboard</title>
    <desc>Created with Sketch.</desc>
    <g id="Artboard" stroke="none" stroke-width="1" fill="none" fill-rule="evenodd">
        <g id="logo" fill-rule="nonzero">
            <path d="M145.609728,7.50246334 L145.609728,49.708032 L133.512192,49.708032 L133.512983,46.3394971 C136.92604,41.2865841 138.918912,35.1955382 138.918912,28.6390392 C138.918912,22.0825327 136.926035,15.9914805 133.512972,10.938564 L133.512192,7.50246334 L145.609728,7.50246334 Z M83.7112874,7.468032 C81.4135723,10.0216023 79.5253264,12.9509445 78.1499369,16.1526731 L62.68416,16.1530843 L62.68416,23.3506713 L76.0324319,23.3503795 C75.7432433,25.0701798 75.592704,26.8370296 75.592704,28.6390392 C75.592704,29.4978996 75.6269005,30.3487731 75.694006,31.1903726 L62.68416,31.1902965 L62.68416,41.2263684 L78.1937084,41.2268084 C79.5408325,44.3326412 81.3712637,47.1802025 83.5901171,49.6746083 L50.721792,49.6746083 L50.721792,7.46867185 L83.7112874,7.468032 Z M215.08608,7.50246334 C226.731671,7.50246334 236.172288,16.9429372 236.172288,28.5883519 C236.172288,40.2337666 226.731671,49.6742407 215.08608,49.6742407 C203.440489,49.6742407 193.999872,40.2337666 193.999872,28.5883519 C193.999872,16.9429372 203.440489,7.50246334 215.08608,7.50246334 Z M14.631936,7.46867185 L32.1024,31.8492305 L32.1024,7.46867185 L43.524096,7.46867185 L43.524096,49.6742407 L31.34208,49.6742407 L11.438592,21.0528501 L11.438592,49.6742407 L0,49.6742407 L0,7.46867185 L14.631936,7.46867185 Z M215.102976,16.929792 C208.654976,16.929792 203.42784,22.1569284 203.42784,28.604928 C203.42784,35.0529275 208.654976,40.280064 215.102976,40.280064 C221.550976,40.280064 226.778112,35.0529275 226.778112,28.604928 C226.778112,22.1569284 221.550976,16.929792 215.102976,16.929792 Z M194.912256,7.50246334 L194.912256,16.1530843 L152.976384,16.1530843 L152.976384,7.50246334 L194.912256,7.50246334 Z" id="Combined-Shape" fill="#FFFFFF"></path>
            <rect id="Rectangle-Copy" fill="#FFFFFF" x="167.912448" y="15.949824" width="12.097536" height="33.724416"></rect>
            <g id="Logo1" transform="translate(80.931840, 0.000000)" fill="#FF6D40">
                <path d="M32.8470781,12.8104384 L36.2639733,4.63078732 C45.9860652,8.53315003 52.8511205,18.0469513 52.8511205,29.1641721 C52.8511205,43.7586061 41.0199942,55.5897324 26.4255603,55.5897324 C23.4417139,55.5897324 20.5733749,55.0951888 17.8980366,54.1835965 L24.0783333,46.6026658 C24.852704,46.7069341 25.6430633,46.7607749 26.4459977,46.7607749 C36.1530457,46.7607749 44.022163,38.8916575 44.022163,29.1846095 C44.022163,21.7360705 39.3888267,15.3697053 32.8470781,12.8104384 Z M27.1381389,11.6218224 C26.9085279,11.6129309 26.6777868,11.6084441 26.4459977,11.6084441 C16.7389496,11.6084441 8.86983229,19.4775614 8.86983229,29.1846095 C8.86983229,36.5197342 13.3631453,42.8053895 19.7474331,45.4392373 L15.728965,53.3352849 C6.4635084,49.2289209 0,39.9513628 0,29.1641721 C0,14.5697381 11.8311263,2.73861181 26.4255603,2.73861181 C28.8972944,2.73861181 31.2897677,3.07796747 33.5589304,3.71262877 L27.1381458,11.6218227 L27.1381389,11.6218224 Z" id="Combined-Shape"></path>
                <polygon id="Path-Copy" points="15.0979708 27.9280286 37.4526559 0 26.8394177 25.1654667 38.6124785 27.9280286 14.5923047 57.0353592 28.1811012 30.6822878"></polygon>
            </g>
        </g>
    </g>
</svg>