<?xml version="1.0" encoding="UTF-8"?>
<svg width="507px" height="279px" viewBox="0 0 507 279" version="1.1" xmlns="http://www.w3.org/2000/svg" xmlns:xlink="http://www.w3.org/1999/xlink">
    <!-- Generator: Sketch 64 (93537) - https://sketch.com -->
    <title>Refer</title>
    <desc>Created with Sketch.</desc>
    <defs>
        <path d="M1.6056,0.63504 C0.85968,0.612 0.59832,0.60408 0.599038517,0.60408 C0.6012,0.60408 1.17216,0.62136 1.6056,0.63504 L1.6056,0.63504 Z" id="path-1"></path>
    </defs>
    <g id="Refer" stroke="none" stroke-width="1" fill="none" fill-rule="evenodd">
        <g id="Group-10" transform="translate(0.000000, 3.000000)">
            <path d="M22.4989075,269.987114 C7.49963584,255.677228 0,237.988424 0,216.9207 C0,185.319114 24.2597202,150.955887 32.8773139,135.854301 C41.4949075,120.752714 47.9024204,102.949957 37.4225927,73.9661353 C26.942765,44.982314 46.9492085,15.834927 83.424493,5.30471491 C119.899778,-5.22549716 166.260881,1.21076614 187.515416,13.3457401 C208.76995,25.480714 245.18346,47.5979364 304.692508,36.5393252 C364.201555,25.480714 425.937325,50.5807215 438.593308,97.6263178 C451.24929,144.671914 431.648064,197.791845 394.725086,230.8648 C370.109767,252.913436 350.711622,265.227008 336.530651,267.805514 L22.4989075,269.987114 Z" id="Path-3" fill="#E1EAF1"></path>
            <path d="M57.3258077,269.199589 C41.0973634,257.738646 36.2693575,239.131611 42.8417899,213.378482 C52.7004385,174.748789 61.9511768,171.853744 57.3258077,134.460375 C52.7004385,97.0670071 59.6992709,69.5870513 97.0765899,51.2967089 C134.453909,33.0063665 166.02659,44.2774424 195.48179,51.2967089 C224.93699,58.3159755 290.169214,32.8627505 315.95259,35.1454001 C341.735966,37.4280497 400.575482,40.2287738 407.12059,107.488381 C413.665698,174.747989 370.744339,227.889989 358.665264,248.887589 C350.612548,262.885989 343.82938,268.727322 338.315761,266.411589 L57.3258077,269.199589 Z" id="Path-4" stroke="#C4D2E3" fill="#C4D2E3"></path>
            <path d="M103.8841,270.094659 C92.5677483,223.728792 87.7042464,192.447326 89.2935943,176.250259 C91.6776163,151.954659 102.191994,139.389961 112.883994,132.386659 C123.575994,125.383357 166.791217,122.961859 190.272405,139.217059 C213.753594,155.472259 218.125859,143.412259 245.187557,143.412259 C272.249255,143.412259 310.595041,157.79667 336.959807,220.390259 C354.536317,262.119319 361.596867,278.954119 358.141456,270.894659 L103.8841,270.094659 Z" id="Path-5" fill="#B2C3DA"></path>
            <g id="Group-9" transform="translate(15.994400, 7.000000)">
                <path d="M431.24328,208.98648 C426.86136,208.98648 422.60328,207.72864 419.78376,204.67296 C413.35128,197.70048 422.07192,188.95896 424.03176,180.91512 C425.19672,176.13216 427.968,174.28968 431.262,174.28968 C435.6936,174.28968 441.07344,177.62544 444.76416,181.62504 C451.19736,188.59752 451.7208,198.57888 445.93344,203.9184 C442.68192,206.91864 436.86072,208.98648 431.24328,208.98648" id="Fill-5" fill="#D7E2EC"></path>
                <path d="M404.46792,57.7512 C398.26008,57.7512 392.56416,48.74184 386.51328,44.76888 C376.67376,38.30904 383.13864,28.66824 390.60216,24.7284 C392.87664,23.52816 395.31744,22.95792 397.72224,22.95792 C403.20864,22.95792 408.51072,25.92 411.2496,31.10904 C415.18944,38.57256 415.06992,53.00208 407.60568,56.94192 C406.54368,57.5028 405.49824,57.7512 404.46792,57.7512" id="Fill-6" fill="#D7E2EC"></path>
                <path d="M469.23336,263.4372 L1.1376,263.4372 C0.50904,263.4372 0,262.92816 0,262.2996 C0,261.67104 0.50904,261.16128 1.1376,261.16128 L469.23336,261.16128 C469.86192,261.16128 470.37168,261.67104 470.37168,262.2996 C470.37168,262.92816 469.86192,263.4372 469.23336,263.4372" id="Fill-9" fill="#A1B5D3"></path>
                <path d="M454.61592,155.70216 C454.61592,157.49136 453.16584,158.94216 451.37592,158.94216 C449.58672,158.94216 448.13592,157.49136 448.13592,155.70216 C448.13592,153.91224 449.58672,152.46216 451.37592,152.46216 C453.16584,152.46216 454.61592,153.91224 454.61592,155.70216" id="Fill-10" fill="#131232"></path>
                <path d="M430.85592,245.70216 C430.85592,247.0932 429.72768,248.22216 428.33592,248.22216 C426.94488,248.22216 425.81592,247.0932 425.81592,245.70216 C425.81592,244.3104 426.94488,243.18216 428.33592,243.18216 C429.72768,243.18216 430.85592,244.3104 430.85592,245.70216" id="Fill-11" fill="#53609D"></path>
                <path d="M40.61592,43.38144 C40.61592,45.17136 39.16584,46.62144 37.37592,46.62144 C35.58672,46.62144 34.13592,45.17136 34.13592,43.38144 C34.13592,41.59224 35.58672,40.14144 37.37592,40.14144 C39.16584,40.14144 40.61592,41.59224 40.61592,43.38144" id="Fill-12" fill="#53609D"></path>
                <path d="M6.88176,236.28888 C6.88176,238.18968 5.34168,239.73048 3.44088,239.73048 C1.54008,239.73048 4.79616347e-14,238.18968 4.79616347e-14,236.28888 C4.79616347e-14,234.3888 1.54008,232.848 3.44088,232.848 C5.34168,232.848 6.88176,234.3888 6.88176,236.28888" id="Fill-13" fill="#131232"></path>
                <path d="M429.06024,30.38184 C428.75712,31.80024 427.36176,32.70456 425.94264,32.40144 C424.52352,32.09904 423.6192,30.70296 423.92232,29.28384 C424.22472,27.86544 425.6208,26.96112 427.03992,27.26424 C428.45832,27.56736 429.36336,28.96272 429.06024,30.38184" id="Fill-18" fill="#F2AE50"></path>
                <path d="M90.75816,13.66704 C90.45504,15.08544 89.05968,15.99048 87.64056,15.68736 C86.22144,15.38424 85.31712,13.98816 85.62024,12.56976 C85.92336,11.15064 87.31872,10.24632 88.73784,10.54872 C90.15696,10.85184 91.06128,12.24792 90.75816,13.66704" id="Fill-19" fill="#F2AE50"></path>
                <path d="M450.7056,89.52192 C450.40248,90.94032 449.0064,91.84464 447.588,91.54224 C446.16888,91.23912 445.26384,89.84304 445.56696,88.42464 C445.87008,87.00552 447.26544,86.1012 448.68456,86.4036 C450.10368,86.70672 451.00872,88.1028 450.7056,89.52192" id="Fill-20" fill="#53609D"></path>
                <path d="M261.59472,25.6536 C261.35712,26.766 260.26272,27.4752 259.15032,27.2376 C258.0372,27 257.328,25.9056 257.5656,24.7932 C257.8032,23.68008 258.8976,22.97088 260.01,23.20848 C261.12312,23.44608 261.83232,24.5412 261.59472,25.6536" id="Fill-21" fill="#131232"></path>
                <path d="M159.84576,76.014 L159.84576,76.014 C159.84576,71.52408 156.20544,67.88376 151.71552,67.88376 C156.20544,67.88376 159.84576,64.24344 159.84576,59.75352 C159.84576,64.24344 163.48608,67.88376 167.976,67.88376 C163.48608,67.88376 159.84576,71.52408 159.84576,76.014" id="Fill-34" fill="#FFFFFE"></path>
                <path d="M255.35952,116.89128 L255.35952,116.89128 C255.35952,113.59368 252.68616,110.9196 249.38856,110.9196 C252.68616,110.9196 255.35952,108.24624 255.35952,104.94864 C255.35952,108.24624 258.03288,110.9196 261.33048,110.9196 C258.03288,110.9196 255.35952,113.59368 255.35952,116.89128" id="Fill-35" fill="#FFFFFE"></path>
                <path d="M216.3312,145.64736 L216.3312,145.64736 C216.3312,139.58352 211.41576,134.66736 205.3512,134.66736 C211.41576,134.66736 216.3312,129.75192 216.3312,123.68808 C216.3312,129.75192 221.24664,134.66736 227.31048,134.66736 C221.24664,134.66736 216.3312,139.58352 216.3312,145.64736" id="Fill-36" fill="#FFFFFE"></path>
                <path d="M254.23704,60.93288 L254.23704,60.93288 C254.23704,55.25064 249.63048,50.64408 243.94824,50.64408 C249.63048,50.64408 254.23704,46.0368 254.23704,40.35456 C254.23704,46.0368 258.8436,50.64408 264.52656,50.64408 C258.8436,50.64408 254.23704,55.25064 254.23704,60.93288" id="Fill-37" fill="#FDF1E0"></path>
                <path d="M288.63216,67.88376 L288.63216,67.88376 C288.63216,64.7496 286.09128,62.208 282.9564,62.208 C286.09128,62.208 288.63216,59.66712 288.63216,56.53296 C288.63216,59.66712 291.17304,62.208 294.30792,62.208 C291.17304,62.208 288.63216,64.7496 288.63216,67.88376" id="Fill-38" fill="#FFFFFE"></path>
                <g id="Group-7" transform="translate(39.728160, 29.946320)">
                    <g id="Group-4" transform="translate(-0.000000, 0.000000)">
                        <path d="M11.772,-1.95399252e-14 C5.2704,-1.95399252e-14 -3.55271368e-14,5.27112 -3.55271368e-14,11.77272 C-3.55271368e-14,18.27432 5.2704,23.54544 11.772,23.54544 L63.86904,23.54544 L71.03736,30.07656 L71.03736,23.54544 L74.988,23.54544 C81.4896,23.54544 86.76,18.27432 86.76,11.77272 C86.76,5.27112 81.4896,-1.95399252e-14 74.988,-1.95399252e-14 L11.772,-1.95399252e-14 Z" id="Fill-39" fill="#E16B47"></path>
                        <path d="M75.6830348,6.32952 L18.2755252,6.32952 C18.0236779,6.32952 17.81928,6.16824 17.81928,5.96952 C17.81928,5.77008 18.0236779,5.60952 18.2755252,5.60952 L75.6830348,5.60952 C75.9357946,5.60952 76.13928,5.77008 76.13928,5.96952 C76.13928,6.16824 75.9357946,6.32952 75.6830348,6.32952" id="Fill-41" fill="#FFFFFE"></path>
                        <path d="M67.0405797,16.95816 L18.2779803,16.95816 C18.0247778,16.95816 17.81928,16.79688 17.81928,16.59816 C17.81928,16.39872 18.0247778,16.23816 18.2779803,16.23816 L67.0405797,16.23816 C67.2946996,16.23816 67.49928,16.39872 67.49928,16.59816 C67.49928,16.79688 67.2946996,16.95816 67.0405797,16.95816" id="Fill-42" fill="#FFFFFE"></path>
                        <path d="M53.3656281,11.98008 L18.2729319,11.98008 C18.0225161,11.98008 17.81928,11.8188 17.81928,11.62008 C17.81928,11.42064 18.0225161,11.26008 18.2729319,11.26008 L53.3656281,11.26008 C53.6160439,11.26008 53.81928,11.42064 53.81928,11.62008 C53.81928,11.8188 53.6160439,11.98008 53.3656281,11.98008" id="Fill-43" fill="#FFFFFE"></path>
                    </g>
                    <path d="M75.6807037,11.98008 L57.8778563,11.98008 C57.623805,11.98008 57.41928,11.8188 57.41928,11.62008 C57.41928,11.42064 57.623805,11.26008 57.8778563,11.26008 L75.6807037,11.26008 C75.934755,11.26008 76.13928,11.42064 76.13928,11.62008 C76.13928,11.8188 75.934755,11.98008 75.6807037,11.98008" id="Fill-44" fill="#FFFFFE"></path>
                </g>
                <g id="Group-3" transform="translate(400.005600, 103.000000)">
                    <path d="M76.9356,-7.46069873e-14 C83.60712,-7.46069873e-14 89.01432,5.40792 89.01432,12.078 C89.01432,18.7488 83.60712,24.156 76.9356,24.156 L23.48496,24.156 L16.1316,30.85704 L16.1316,24.156 L12.078,24.156 C5.40792,24.156 -7.10542736e-15,18.7488 -7.10542736e-15,12.078 C-7.10542736e-15,5.40792 5.40792,-7.46069873e-14 12.078,-7.46069873e-14 L76.9356,-7.46069873e-14 Z" id="Fill-46" fill="#53609D"></path>
                    <path d="M69.8656454,7.20144 L15.2930746,7.20144 C15.0527967,7.20144 14.85936,7.04088 14.85936,6.84144 C14.85936,6.64272 15.0527967,6.48144 15.2930746,6.48144 L69.8656454,6.48144 C70.1050559,6.48144 70.29936,6.64272 70.29936,6.84144 C70.29936,7.04088 70.1050559,7.20144 69.8656454,7.20144" id="Fill-49" fill="#FFFFFE"></path>
                    <path d="M61.227243,17.8308 L15.291477,17.8308 C15.0520842,17.8308 14.85936,17.66952 14.85936,17.4708 C14.85936,17.27136 15.0520842,17.1108 15.291477,17.1108 L61.227243,17.1108 C61.4657716,17.1108 61.65936,17.27136 61.65936,17.4708 C61.65936,17.66952 61.4657716,17.8308 61.227243,17.8308" id="Fill-50" fill="#FFFFFE"></path>
                    <path d="M48.9838432,12.852 L15.2948768,12.852 C15.0536005,12.852 14.85936,12.69144 14.85936,12.492 C14.85936,12.29328 15.0536005,12.132 15.2948768,12.132 L48.9838432,12.132 C49.2251195,12.132 49.41936,12.29328 49.41936,12.492 C49.41936,12.69144 49.2251195,12.852 48.9838432,12.852" id="Fill-51" fill="#FFFFFE"></path>
                    <path d="M69.8584645,12.852 L52.7402555,12.852 C52.4968812,12.852 52.29936,12.69144 52.29936,12.492 C52.29936,12.29328 52.4968812,12.132 52.7402555,12.132 L69.8584645,12.132 C70.1018388,12.132 70.29936,12.29328 70.29936,12.492 C70.29936,12.69144 70.1018388,12.852 69.8584645,12.852" id="Fill-52" fill="#FFFFFE"></path>
                </g>
                <g id="Group-8" transform="translate(306.815040, 40.626000)">
                    <path d="M52.9992,-9.05941988e-14 C57.59496,-9.05941988e-14 61.32024,3.72528 61.32024,8.32032 C61.32024,12.91608 57.59496,16.64136 52.9992,16.64136 L21.9245617,16.64136 L21.9245617,20.831487 L17.7587537,16.64136 L8.32032,16.64136 C3.72528,16.64136 1.0658141e-14,12.91608 1.0658141e-14,8.32032 C1.0658141e-14,3.72528 3.72528,-9.05941988e-14 8.32032,-9.05941988e-14 L52.9992,-9.05941988e-14 Z" id="Fill-53" fill="#53609D"></path>
                    <path d="M47.95632,5.5836 L13.31496,5.5836 C13.11624,5.5836 12.95496,5.42304 12.95496,5.2236 C12.95496,5.02488 13.11624,4.8636 13.31496,4.8636 L47.95632,4.8636 C48.15504,4.8636 48.31632,5.02488 48.31632,5.2236 C48.31632,5.42304 48.15504,5.5836 47.95632,5.5836" id="Fill-54" fill="#FFFFFE"></path>
                    <path d="M42.58224,11.87784 L13.31496,11.87784 C13.11624,11.87784 12.95496,11.71728 12.95496,11.51784 C12.95496,11.31912 13.11624,11.15784 13.31496,11.15784 L42.58224,11.15784 C42.78096,11.15784 42.94224,11.31912 42.94224,11.51784 C42.94224,11.71728 42.78096,11.87784 42.58224,11.87784" id="Fill-55" fill="#FFFFFE"></path>
                    <path d="M34.61184,8.93016 L13.31496,8.93016 C13.11624,8.93016 12.95496,8.76888 12.95496,8.57016 C12.95496,8.37072 13.11624,8.21016 13.31496,8.21016 L34.61184,8.21016 C34.81128,8.21016 34.97184,8.37072 34.97184,8.57016 C34.97184,8.76888 34.81128,8.93016 34.61184,8.93016" id="Fill-56" fill="#FFFFFE"></path>
                    <path d="M47.95632,8.93016 L37.26792,8.93016 C37.06848,8.93016 36.90792,8.76888 36.90792,8.57016 C36.90792,8.37072 37.06848,8.21016 37.26792,8.21016 L47.95632,8.21016 C48.15504,8.21016 48.31632,8.37072 48.31632,8.57016 C48.31632,8.76888 48.15504,8.93016 47.95632,8.93016" id="Fill-57" fill="#FFFFFE"></path>
                </g>
                <g id="Group-6" transform="translate(4.920480, 158.584320)">
                    <g id="Group-5">
                        <path d="M47.12616,-2.84217094e-14 C51.21216,-2.84217094e-14 54.52416,3.31272 54.52416,7.39872 C54.52416,11.48472 51.21216,14.79672 47.12616,14.79672 L43.3553972,14.79672 L43.00128,18.433144 L38.7992005,14.79672 L7.39872,14.79672 C3.312,14.79672 2.13162821e-14,11.48472 2.13162821e-14,7.39872 C2.13162821e-14,3.31272 3.312,-2.84217094e-14 7.39872,-2.84217094e-14 L47.12616,-2.84217094e-14 Z" id="Fill-58" fill="#E16B47"></path>
                        <path d="M42.64128,5.00544 L11.83968,5.00544 C11.64096,5.00544 11.47968,4.84416 11.47968,4.64544 C11.47968,4.446 11.64096,4.28544 11.83968,4.28544 L42.64128,4.28544 C42.84072,4.28544 43.00128,4.446 43.00128,4.64544 C43.00128,4.84416 42.84072,5.00544 42.64128,5.00544" id="Fill-59" fill="#FFFFFE"></path>
                        <path d="M37.86264,10.602 L11.83968,10.602 C11.64096,10.602 11.47968,10.44072 11.47968,10.242 C11.47968,10.04328 11.64096,9.882 11.83968,9.882 L37.86264,9.882 C38.06136,9.882 38.22264,10.04328 38.22264,10.242 C38.22264,10.44072 38.06136,10.602 37.86264,10.602" id="Fill-60" fill="#FFFFFE"></path>
                        <path d="M30.77568,7.97976 L11.83968,7.97976 C11.64096,7.97976 11.47968,7.8192 11.47968,7.61976 C11.47968,7.42104 11.64096,7.25976 11.83968,7.25976 L30.77568,7.25976 C30.97512,7.25976 31.13568,7.42104 31.13568,7.61976 C31.13568,7.8192 30.97512,7.97976 30.77568,7.97976" id="Fill-61" fill="#FFFFFE"></path>
                    </g>
                    <path d="M42.64128,7.97976 L33.138,7.97976 C32.93856,7.97976 32.778,7.8192 32.778,7.61976 C32.778,7.42104 32.93856,7.25976 33.138,7.25976 L42.64128,7.25976 C42.84072,7.25976 43.00128,7.42104 43.00128,7.61976 C43.00128,7.8192 42.84072,7.97976 42.64128,7.97976" id="Fill-62" fill="#FFFFFE"></path>
                </g>
                <path d="M36.05616,187.04128 L36.05616,142.23175 C36.05616,137.482693 39.8890865,133.623894 44.638036,133.591946 L195.336916,132.578124 C200.108542,132.545176 204.002737,136.387325 204.034838,141.158958 C204.03484,141.15924 204.034842,141.159522 204.033997,141.15981 L204.357293,189.926605 C204.388926,194.698241 208.282745,198.540772 213.05438,198.509138 C213.067911,198.509049 213.081441,198.508927 213.09497,198.508774 L415.125931,196.220182 C419.897365,196.166131 423.809193,199.990327 423.863244,204.761761 C423.863613,204.794382 423.863798,204.827005 423.863798,204.859628 L423.863798,231.26544 L423.863798,231.26544" id="Line-Copy-6" stroke="#2C4B72" stroke-width="1.44" stroke-linecap="square" transform="translate(229.959979, 181.892720) scale(1, -1) translate(-229.959979, -181.892720) "></path>
                <path d="M86.45616,24.16128 L86.45616,9.71248345 C86.45616,4.96313857 90.289534,1.10421862 95.0387741,1.07267403 L247.201802,0.0620027983 C251.973437,0.0303094606 255.867304,3.87279137 255.898997,8.64442636 C255.900476,8.86708585 255.893347,9.0897193 255.877626,9.31182803 L255.48962,14.7936588 C255.152718,19.5534909 258.738211,23.6852106 263.498043,24.022113 C263.787486,24.0425999 264.077777,24.0484927 264.367814,24.0397691 L328.564043,22.1088854 C333.333626,21.9654266 337.316434,25.7156415 337.459893,30.4852248 C337.462496,30.5717853 337.463798,30.6583801 337.463798,30.7449798 L337.463798,37.58544 L337.463798,37.58544" id="Line-Copy-7" stroke="#2C4B72" stroke-width="1.44" stroke-linecap="square"></path>
                <g id="Group-2" transform="translate(127.416929, 165.348493) scale(-1, 1) translate(-127.416929, -165.348493) translate(40.916929, 67.848493)">
                    <path d="M35.415711,88.1187868 L35.439471,88.0367068 L45.863631,51.7724668 L45.818271,51.7386268 C46.287711,50.8206268 47.502351,48.8528668 49.988511,47.1183868 C54.286191,44.1210268 54.799551,39.1551868 54.799551,39.1551868 C57.094191,36.9339868 59.680431,35.0389468 62.023311,32.8695868 C62.268111,32.6427868 62.522991,32.3951068 62.594271,32.0696668 C62.674191,31.7067868 62.504991,31.3352668 62.297631,31.0278268 C61.088031,29.2357468 58.865391,28.9765468 57.017151,29.8045468 C55.934271,30.2891068 54.966591,30.9788668 54.058671,31.7370268 C53.628111,32.0963068 52.159311,33.0848668 51.713631,33.7429468 L60.005151,16.0381468 C60.741711,14.4656668 60.260031,12.6714268 58.934511,12.0515068 C58.272111,11.7404668 57.518991,11.7807868 56.840031,12.0939868 C56.409471,12.2927068 56.016351,12.6123868 55.686591,13.0127068 C55.712511,12.8823868 55.726911,12.8060668 55.726911,12.8060668 C46.015551,4.63982681 34.032591,32.4354268 34.032591,32.4354268 L30.632031,40.4598268 L1.78811103,93.9392668 C-2.29068897,101.698707 0.85283103,111.293427 8.73323103,115.135347 C8.84627103,115.191507 8.96075103,115.239747 9.07523103,115.291587 C11.387151,116.627187 14.069151,117.393987 16.930431,117.393987 L73.695231,117.393987 L85.927311,88.3225468 L35.415711,88.1187868" id="Fill-71" fill="#F4BE99"></path>
                    <path d="M26.169471,117.393987 C26.169471,117.393987 27.587151,113.453427 29.305071,108.312627 C29.714751,107.514867 30.063231,106.671027 30.338991,105.779667 L32.335551,98.8359868 C32.862591,97.0892668 33.359391,95.3763868 33.787791,93.7815868 L35.415711,88.1187868 L44.359551,88.1547868 C45.011151,88.1605468 45.732591,88.1634268 46.557711,88.1634268 L46.583631,88.1641468 L26.169471,117.393987" id="Fill-77" fill="#F2B292"></path>
                    <path d="M43.658271,35.5523068 C43.584111,35.5523068 43.509231,35.5292668 43.445151,35.4817468 C43.285311,35.3643868 43.250751,35.1383068 43.368831,34.9784668 C46.991871,30.0644668 51.862671,32.7198268 51.910191,32.7464668 C52.083711,32.8443868 52.144911,33.0625468 52.047711,33.2360668 C51.951231,33.4088668 51.731631,33.4707868 51.558111,33.3750268 C51.380991,33.2763868 47.188431,31.0127068 43.948431,35.4061468 C43.877871,35.5011868 43.769151,35.5523068 43.658271,35.5523068" id="Fill-79" fill="#E98772"></path>
                    <path d="M55.892511,12.9428668 C54.395631,14.8285468 53.003151,16.8121468 51.769071,18.8742268 C51.154191,19.9067068 50.597631,20.9723068 50.131791,22.0652668 C49.672431,23.1503068 49.300911,24.3167068 49.359951,25.4168668 L49.361391,25.4391868 C49.372191,25.6371868 49.220271,25.8071068 49.021551,25.8179068 C48.822831,25.8287068 48.653631,25.6760668 48.642111,25.4780668 L48.642111,25.4687068 C48.603231,24.1302268 49.043871,22.9335868 49.536351,21.8103868 C50.043231,20.6864668 50.632911,19.6122268 51.277311,18.5768668 C52.572591,16.5075868 54.009711,14.5463068 55.562031,12.6692668 C55.637631,12.5778268 55.772991,12.5648668 55.864431,12.6404668 C55.954431,12.7146268 55.968111,12.8478268 55.895391,12.9392668 L55.892511,12.9428668" id="Fill-80" fill="#E98772"></path>
                    <path d="M53.389071,11.9161468 C52.439391,12.5699068 51.586191,13.4360668 50.823711,14.3353468 C50.059791,15.2447068 49.388751,16.2303868 48.785391,17.2542268 C48.193551,18.2852668 47.672271,19.3573468 47.228031,20.4611068 C46.992591,21.0075868 46.817631,21.5785468 46.608831,22.1343868 L46.092591,23.8443868 L46.086111,23.8645468 C46.029231,24.0546268 45.828351,24.1626268 45.637551,24.1050268 C45.448191,24.0474268 45.340191,23.8465468 45.397071,23.6564668 L45.399231,23.6499868 L45.960831,21.9119068 C46.184031,21.3452668 46.374831,20.7663868 46.626111,20.2112668 C47.102751,19.0895068 47.657151,18.0015868 48.283551,16.9561468 C48.922911,15.9179068 49.629231,14.9199868 50.432751,14.0005468 C51.244191,13.0847068 52.107471,12.2279068 53.157231,11.5338268 C53.260191,11.4661468 53.399151,11.4942268 53.466111,11.5971868 C53.533791,11.6987068 53.507151,11.8355068 53.407071,11.9039068 L53.389071,11.9161468" id="Fill-81" fill="#E98772"></path>
                    <path d="M49.463631,12.1926268 C48.085551,13.6355068 46.802511,15.1943068 45.693711,16.8510268 C45.146511,17.6826268 44.620191,18.5329468 44.207631,19.4293468 C43.792191,20.3214268 43.448031,21.2487868 43.298271,22.1948668 L43.296831,22.2035068 C43.265871,22.4000668 43.082271,22.5339868 42.885711,22.5030268 C42.689151,22.4713468 42.555231,22.2870268 42.586191,22.0904668 L42.587631,22.0818268 C42.779871,21.0356668 43.172271,20.0665468 43.627311,19.1456668 C44.083071,18.2211868 44.643951,17.3643868 45.222831,16.5284668 C46.400031,14.8638268 47.727711,13.3295068 49.169151,11.8931068 C49.251231,11.8117468 49.384431,11.8117468 49.465791,11.8938268 C49.545711,11.9744668 49.547151,12.1047868 49.469391,12.1868668 L49.463631,12.1926268" id="Fill-82" fill="#E98772"></path>
                    <path d="M166.429071,140.922147 L152.504271,102.965187 C150.846831,94.6369468 142.923951,88.3225468 133.391151,88.3225468 L94.495311,88.0129468 L50.673231,88.1807068 L50.673231,117.393987 L64.273311,117.393987 L57.254751,193.588707 L153.749871,194.134467 L153.209151,142.539267 L166.429071,140.922147" id="Fill-83" fill="#53609D"></path>
                    <path d="M64.273311,117.393987 L50.673231,117.393987 L50.673231,88.1807068 L91.797471,88.0237468 L91.797471,88.4939068 C76.364271,90.0123868 64.344591,102.021987 64.344591,116.622867 L64.273311,117.393987" id="Fill-84" fill="#515E9B"></path>
                    <path d="M41.637951,66.4611868 C41.440671,66.4604668 39.039471,46.0643068 39.039471,46.0643068 L45.819711,51.7357468 C45.819711,51.7364668 45.818991,51.7371868 45.818271,51.7386268 L45.863631,51.7724668 C45.863631,51.7724668 45.860751,51.7832668 45.854271,51.8034268 C45.853551,51.8063068 45.852831,51.8091868 45.852111,51.8113468 L45.851391,51.8156668 C45.850671,51.8185468 45.849231,51.8207068 45.848511,51.8235868 C45.847791,51.8271868 45.847071,51.8307868 45.845631,51.8343868 L45.844911,51.8372668 C45.844191,51.8387068 45.844191,51.8401468 45.843471,51.8423068 C45.842751,51.8437468 45.842751,51.8451868 45.842031,51.8466268 L45.840591,51.8523868 L41.642991,66.4554268 C41.641551,66.4590268 41.640111,66.4611868 41.637951,66.4611868" id="Fill-86" fill="#F2B292"></path>
                    <path d="M96.478911,151.826547 L89.954991,118.946307 C89.620911,117.262227 87.969231,116.157027 86.285151,116.491107 L72.060831,119.313507 C70.376751,119.647587 69.271551,121.299267 69.605631,122.984067 L76.129551,155.864307 C76.463631,157.549107 78.115311,158.653587 79.800111,158.318787 L88.201071,156.652707 L94.024431,155.497107 C95.707791,155.163027 96.813711,153.510627 96.478911,151.826547" id="Fill-87" fill="#16171B"></path>
                    <path d="M172.191951,168.932307 L165.778191,141.001347 L136.614591,144.569667 L138.215871,151.674627 L138.067551,151.637907 L106.365951,143.789187 L106.338591,143.828067 C105.463791,143.389587 103.820031,142.344147 102.374271,140.184867 C99.716031,136.211907 95.251311,136.102467 95.251311,136.102467 C94.390911,135.201027 93.589551,134.238387 92.796831,133.266387 L93.539151,137.009667 L93.353391,137.108307 C91.338111,138.176067 89.064351,138.649827 86.790591,138.471987 C82.582911,138.143667 75.708351,137.606547 72.850671,137.384067 C71.978751,137.315667 71.141391,137.780067 70.765551,138.569907 C66.685311,147.145827 84.204351,154.993107 88.201791,156.652707 L88.201071,156.652707 L88.342191,156.710307 L88.505631,156.777267 L88.657551,156.839187 L88.784991,156.890307 L88.904511,156.937107 L88.950591,156.955107 L89.010351,156.978867 L95.866191,159.549267 L150.143391,186.264867 C150.647391,186.506067 151.157151,186.717027 151.671951,186.899907 C154.303551,188.105187 157.331871,188.497587 160.372431,187.799187 C168.846111,185.853027 174.138111,177.405987 172.191951,168.932307" id="Fill-88" fill="#F4BE99"></path>
                    <path d="M138.215871,151.674627 L138.067551,151.637907 C137.199231,147.809667 137.601711,149.022867 136.945071,146.034867 L138.215871,151.674627" id="Fill-90" fill="#62639D"></path>
                    <path d="M170.124111,159.927267 C169.992351,159.881187 149.966271,152.851107 140.347791,152.201667 L138.067551,151.637907 L138.215871,151.674627 L136.945071,146.034867 C136.856511,145.635267 136.749951,145.160067 136.618911,144.587667 L136.646271,144.584787 L170.124831,159.927267 L170.124111,159.927267" id="Fill-91" fill="#F2B292"></path>
                    <path d="M133.906671,144.929667 C133.738911,144.929667 133.589871,144.811587 133.555311,144.643107 L129.367791,124.362147 C129.327471,124.167027 129.453471,123.976947 129.647151,123.936627 C129.673071,123.930867 129.698271,123.927987 129.723471,123.927987 C129.886911,123.927987 130.038111,124.046787 130.072671,124.215987 L134.193231,144.170787 L148.294431,142.375827 C148.310991,142.373667 148.326831,142.372227 148.343391,142.372227 C148.519071,142.372227 148.673871,142.506867 148.696911,142.687587 C148.722111,142.884867 148.582431,143.064867 148.385871,143.090787 L140.408271,144.105987 L136.614591,144.569667 L136.618191,144.587667 L133.953471,144.926787 L133.906671,144.929667" id="Fill-92" fill="#3C4A8D"></path>
                    <path d="M130.604751,13.1271868 C129.717711,7.01222681 124.138431,2.66198681 117.955071,3.36110681 C116.314191,3.54614681 114.797151,4.07534681 113.457951,4.85798681 C111.467871,1.60214681 107.722431,-0.392253192 103.681791,0.0649468084 C101.372031,0.325586808 99.339471,1.35158681 97.789311,2.85206681 C95.558031,1.73390681 92.992671,1.22054681 90.328671,1.52150681 C83.006271,2.34950681 77.741631,8.95622681 78.569631,16.2779068 C78.956991,19.7022268 80.612271,22.6722268 83.009151,24.7832668 L80.297631,39.2682268 C79.519311,43.4262268 82.259631,47.4279868 86.416911,48.2070268 L118.546191,54.2211868 C122.704191,55.0002268 126.706671,52.2599068 127.484991,48.1019068 L132.748911,19.9837468 C133.234191,17.3888668 132.349311,14.8544668 130.604751,13.1271868" id="Fill-100" fill="#16171B"></path>
                    <path d="M83.775951,21.0471868 C83.657151,21.0471868 83.540511,20.9881468 83.471391,20.8794268 C77.732991,11.7973468 85.637151,5.97398681 85.717791,5.91638681 C85.879791,5.79902681 86.103711,5.83790681 86.220351,5.99846681 C86.335551,6.15974681 86.298831,6.38438681 86.137551,6.50102681 C85.832271,6.72134681 78.708591,11.9946268 84.080511,20.4949468 C84.186351,20.6634268 84.136671,20.8859068 83.968911,20.9917468 C83.909151,21.0291868 83.842191,21.0471868 83.775951,21.0471868" id="Fill-101" fill="#FDF1E0"></path>
                    <path d="M125.407791,41.5225468 L124.705071,41.3915068 L117.612351,26.1469468 C115.867791,25.8949468 114.231951,25.2512668 112.814271,24.2915068 C111.453471,25.7646268 109.582191,26.7798268 107.432991,27.0231868 C104.846751,27.3155068 102.403071,26.4306268 100.621071,24.8034268 C98.644671,26.5415068 96.139791,27.7179868 93.326031,28.0362268 C90.108351,28.4005468 87.029631,27.5862268 84.517551,25.9388668 L79.577631,52.3297468 C78.895071,55.9751068 79.643871,59.5499068 81.407871,62.5019068 C83.163951,66.8442268 86.939631,70.2548668 91.797471,71.3730268 L91.797471,88.8013468 C91.797471,94.8558268 96.751071,99.8087068 102.804831,99.8087068 L106.276671,99.8087068 C112.330431,99.8087068 117.284031,94.8558268 117.284031,88.8013468 L117.284031,69.0121468 C119.069631,67.0508668 120.361311,64.5963868 120.884751,61.7977468 L121.786911,56.9787868 L122.490351,57.1105468 C126.660591,57.8910268 130.711311,55.1175868 131.491791,50.9473468 L131.570991,50.5247068 C132.351471,46.3544668 129.578031,42.3037468 125.407791,41.5225468" id="Fill-102" fill="#F4BE99"></path>
                    <path d="M106.270911,77.8616668 L102.754431,77.8616668 C98.400591,77.8616668 94.626351,75.2927068 92.845071,71.6012668 L92.397951,71.5170268 C92.195631,71.4795868 91.995471,71.4378268 91.797471,71.3924668 L91.797471,71.3730268 C86.948991,70.2570268 83.178351,66.8579068 81.417951,62.5271068 C81.415071,62.5184668 81.411471,62.5105468 81.407871,62.5019068 C83.482191,65.9708668 86.964111,68.5758268 91.249551,69.3779068 L102.461391,71.4774268 C103.370031,71.6473468 104.273631,71.7294268 105.165711,71.7294268 C112.058991,71.7287068 118.195551,66.8276668 119.509551,59.8055068 L120.153951,56.3675068 L121.786911,56.9787868 L120.884751,61.7977468 C120.361311,64.5963868 119.069631,67.0508668 117.284031,69.0121468 L117.284031,69.0272668 C117.183951,69.1374268 117.082431,69.2454268 116.979471,69.3519868 C115.839711,74.2112668 111.465711,77.8616668 106.270911,77.8616668" id="Fill-104" fill="#EFA88D"></path>
                    <path d="M126.024831,51.8595868 C125.947071,51.8595868 125.869311,51.8351068 125.803791,51.7839868 L123.002991,49.6095868 C122.919471,49.5455068 122.869071,49.4475868 122.864031,49.3424668 C122.858271,49.2380668 122.900031,49.1358268 122.976351,49.0631068 L126.430911,45.8029468 C126.574911,45.6668668 126.804591,45.6726268 126.939231,45.8173468 C127.076031,45.9620668 127.069551,46.1895868 126.924831,46.3263868 L123.776271,49.2985468 L126.245871,51.2151868 C126.402111,51.3375868 126.430911,51.5636668 126.308511,51.7206268 C126.238671,51.8120668 126.131391,51.8595868 126.024831,51.8595868" id="Fill-105" fill="#E98772"></path>
                    <path d="M108.209871,38.4632668 C107.669151,38.4474268 107.111871,38.1198268 106.556031,37.8339868 C106.001631,37.5344668 105.437871,37.2471868 104.939631,37.0146268 C104.439231,36.7820668 103.856751,36.5343868 103.270671,36.3025468 C102.694671,36.0599068 102.082671,35.8424668 101.729151,35.4414268 C101.384991,35.0605468 101.452671,34.4600668 102.258351,34.0583068 C103.025151,33.6587068 104.586111,33.5636668 106.241391,34.3304668 C107.890911,35.1044668 108.802431,36.3522268 108.970191,37.1874268 C109.159551,38.0528668 108.727551,38.4841468 108.209871,38.4632668" id="Fill-106" fill="#16171B"></path>
                    <path d="M85.300911,36.4890268 C85.767471,36.7460668 86.411151,36.7806268 87.033231,36.8468668 C87.660351,36.9008668 88.289631,36.9692668 88.833951,37.0455868 C89.379711,37.1219068 90.004671,37.2284668 90.622431,37.3487068 C91.238031,37.4567068 91.870911,37.5999868 92.381391,37.4797468 C92.873871,37.3695868 93.133071,36.8929468 92.662191,36.1959868 C92.223711,35.5206268 90.950031,34.6746268 89.144271,34.4175868 C87.339231,34.1691868 85.910751,34.6371868 85.328271,35.1692668 C84.711951,35.7143068 84.850191,36.2463868 85.300911,36.4890268" id="Fill-107" fill="#16171B"></path>
                    <path d="M102.914271,44.6178268 L102.963231,44.6271868 C103.444911,44.7171868 103.912191,44.3967868 104.002911,43.9151068 L104.216031,42.7746268 C104.306751,42.2929468 103.985631,41.8249468 103.504671,41.7349468 L103.455711,41.7255868 C102.974031,41.6355868 102.506031,41.9559868 102.416031,42.4376668 L102.202191,43.5781468 C102.112191,44.0598268 102.432591,44.5278268 102.914271,44.6178268" id="Fill-108" fill="#16171B"></path>
                    <path d="M87.395391,42.0963868 L87.443631,42.1050268 C87.925311,42.1950268 88.393311,41.8746268 88.483311,41.3936668 L88.696431,40.2531868 C88.787151,39.7715068 88.466751,39.3035068 87.985071,39.2135068 L87.936111,39.2041468 C87.455151,39.1141468 86.987151,39.4338268 86.896431,39.9155068 L86.683311,41.0567068 C86.592591,41.5383868 86.913711,42.0056668 87.395391,42.0963868" id="Fill-109" fill="#16171B"></path>
                    <path d="M106.864191,49.1091868 C106.823151,49.1091868 106.782111,49.1070268 106.741071,49.1027068 L103.554351,48.7441468 C102.951711,48.6764668 102.513231,48.1271068 102.580911,47.5244668 L102.588111,47.4632668 C102.651471,46.9009468 103.131711,46.4833468 103.685391,46.4833468 C103.725711,46.4833468 103.766751,46.4855068 103.807791,46.4898268 L106.993791,46.8483868 C107.597151,46.9160668 108.035631,47.4654268 107.967231,48.0680668 L107.960031,48.1292668 C107.897391,48.6908668 107.416431,49.1091868 106.864191,49.1091868" id="Fill-110" fill="#F2B292"></path>
                    <path d="M85.850991,45.7993468 C85.809951,45.7993468 85.768911,45.7971868 85.727871,45.7921468 L82.541871,45.4335868 C81.938511,45.3659068 81.500751,44.8172668 81.569151,44.2146268 L81.574911,44.1534268 C81.638991,43.5918268 82.119231,43.1727868 82.672191,43.1727868 C82.712511,43.1727868 82.753551,43.1749468 82.795311,43.1799868 L85.981311,43.5378268 C86.584671,43.6062268 87.022431,44.1555868 86.954031,44.7582268 L86.947551,44.8194268 C86.884191,45.3810268 86.403231,45.7993468 85.850991,45.7993468" id="Fill-111" fill="#F2B292"></path>
                    <path d="M91.826991,61.7336668 C91.716111,61.7336668 91.606671,61.6825468 91.536111,61.5860668 C91.418751,61.4255068 91.454031,61.2001468 91.614591,61.0827868 C93.123711,59.9804668 94.813551,60.5989468 95.496111,61.0791868 C95.658831,61.1936668 95.698431,61.4168668 95.584671,61.5795868 C95.470191,61.7415868 95.246271,61.7804668 95.083551,61.6688668 C95.019471,61.6242268 93.501711,60.5953468 92.039391,61.6645468 C91.975311,61.7113468 91.900431,61.7336668 91.826991,61.7336668" id="Fill-112" fill="#E98772"></path>
                    <path d="M94.262031,51.4995868 L102.681711,50.2964668 L101.760111,53.2218268 C101.168991,55.0938268 99.433071,56.3675068 97.469631,56.3675068 C95.942511,56.3675068 94.660191,55.2162268 94.498191,53.6970268 L94.262031,51.4995868" id="Fill-113" fill="#FFFFFE"></path>
                    <path d="M96.438591,48.5144668 L96.347871,48.5029468 L93.737151,47.8232668 C92.629791,47.5352668 91.736991,46.7663068 91.286271,45.7151068 C90.836271,44.6631868 90.896031,43.4859868 91.451151,42.4866268 L95.426991,35.3298268 C95.524911,35.1548668 95.743791,35.0936668 95.916591,35.1901468 C96.090831,35.2866268 96.153471,35.5055068 96.056991,35.6797468 L92.081151,42.8358268 C91.634031,43.6400668 91.586511,44.5861468 91.948671,45.4314268 C92.310831,46.2774268 93.028671,46.8951868 93.918591,47.1263068 L96.529311,47.8059868 C96.722271,47.8563868 96.837471,48.0529468 96.786351,48.2451868 C96.745311,48.4071868 96.599151,48.5144668 96.438591,48.5144668" id="Fill-114" fill="#E98772"></path>
                </g>
                <g id="Group-74" transform="translate(268.005600, 186.593760)">
                    <mask id="mask-2" fill="white">
                        <use xlink:href="#path-1"></use>
                    </mask>
                    <g id="Clip-73"></g>
                    <polygon id="Fill-72" fill="#F2B292" mask="url(#mask-2)" points="0.59832 0.63504 1.6056 0.63504 1.6056 0.60408 0.59832 0.60408"></polygon>
                </g>
                <path d="M270.0864,187.24248 C269.9208,187.23816 269.7804,187.23312 269.64792,187.22952 C269.89416,187.23672 270.0864,187.24248 270.0864,187.24248" id="Fill-75" fill="#F2B292"></path>
                <path d="M288.27648,158.00328 L279.33264,157.96728 L279.3564,157.8852 C283.45104,157.8888 284.93784,157.9752 288.27648,158.00328" id="Fill-76" fill="#BBBAD2"></path>
                <polyline id="Fill-78" fill="#F2B292" points="269.62128 187.2288 269.6112 187.2288 269.62128 187.2288"></polyline>
                <path d="M285.55992,136.30392 L289.75752,121.70088 C289.4292,122.84208 285.6996,135.81936 285.56136,136.30032 C285.56064,136.30176 285.56064,136.3032 285.55992,136.30392" id="Fill-85" fill="#CAC4D8"></path>
                <path d="M414.04176,229.77576 C414.04176,229.77576 414.04176,229.77576 414.04104,229.77576 L414.04176,229.77576" id="Fill-89" fill="#FDEAE6"></path>
                <polyline id="Fill-93" fill="#A4816D" points="380.5632 214.43328 380.53152 214.41816 384.3252 213.95448 380.5632 214.43328"></polyline>
                <path d="M380.53584,214.43616 C380.5344,214.4304 380.53296,214.42464 380.53152,214.41816 L380.5632,214.43328 L380.53584,214.43616" id="Fill-94" fill="#A37A69"></path>
                <path d="M414.32616,231.2172 C414.32112,231.1884 414.3024,231.09696 414.26928,230.93064 C414.29664,231.06816 414.31896,231.1776 414.32616,231.2172" id="Fill-95" fill="#F2B292"></path>
                <path d="M414.04536,229.79448 L414.04536,229.79448 C414.04392,229.788 414.0432,229.78224 414.04176,229.77648 C414.04176,229.77792 414.0432,229.78368 414.04536,229.79448" id="Fill-96" fill="#FDEAE6"></path>
                <path d="M414.19368,230.54544 C414.15336,230.34456 414.10656,230.10696 414.04536,229.79448 C414.06192,229.87728 414.12888,230.2164 414.19368,230.54544" id="Fill-97" fill="#F2B292"></path>
                <path d="M414.04176,229.77648 C414.04176,229.77576 414.04176,229.77576 414.04176,229.77576 L414.04176,229.77648" id="Fill-98" fill="#FDEAE6"></path>
                <path d="M414.26928,230.93064 C414.24912,230.82624 414.22536,230.70744 414.20088,230.58288 C414.22896,230.72328 414.252,230.84064 414.26928,230.93064" id="Fill-99" fill="#F2B292"></path>
                <path d="M335.7144,141.24096 C330.86232,140.12568 327.096,136.70856 325.33488,132.3756 C327.09528,136.7064 330.86592,140.10552 335.7144,141.22152 L335.7144,141.24096 M361.20096,138.87576 L361.20096,138.86064 C362.98656,136.89936 364.27824,134.44488 364.80168,131.64624 L365.70384,126.82728 L364.80168,131.64624 C364.27752,134.44848 362.99088,136.91304 361.20096,138.87576" id="Fill-103" fill="#D0B8C9"></path>
                <g id="Group" transform="translate(338.817486, 175.932277) scale(-1, 1) translate(-338.817486, -175.932277) translate(255.817486, 87.432277)">
                    <path d="M163.266914,82.6965233 L134.423714,29.2163633 L131.022434,21.1919633 C131.022434,21.1919633 119.040194,-6.60363669 109.328114,1.56260331 C109.328114,1.56260331 109.343234,1.63964331 109.368434,1.76924331 C109.038674,1.36892331 108.645554,1.04996331 108.214994,0.850523305 C107.535314,0.537323305 106.782914,0.497723305 106.120514,0.808043305 C104.794994,1.42868331 104.313314,3.22292331 105.049874,4.79468331 L113.341394,22.4994833 C112.895714,21.8414033 111.426914,20.8535633 110.996354,20.4942833 C110.089154,19.7361233 109.120754,19.0463633 108.037874,18.5610833 C106.188914,17.7338033 103.966994,17.9922833 102.757394,19.7843633 C102.550034,20.0925233 102.380834,20.4633233 102.460754,20.8262033 C102.532754,21.1516433 102.786914,21.4000433 103.031714,21.6261233 C105.374594,23.7962033 107.960834,25.6912433 110.255474,27.9117233 C110.255474,27.9117233 110.768834,32.8775633 115.065794,35.8749233 C117.552674,37.6094033 118.767314,39.5778833 119.236034,40.4951633 L119.191394,40.5290033 L129.639314,76.8760433 L114.381074,77.0798033 L114.381074,106.151243 L148.124594,106.151243 C150.990194,106.151243 153.674354,105.381563 155.989154,104.043803 C156.100034,103.992683 156.211634,103.945883 156.322514,103.892603 C164.202194,100.050683 167.345714,90.4559633 163.266914,82.6965233" id="Fill-115" fill="#F4BE99"></path>
                    <path d="M138.885554,106.151243 L138.885554,106.151243 L118.517474,77.0243633 L118.534034,77.0243633 C120.070514,77.0243633 121.221074,77.0034833 122.215394,76.9746833 L129.639314,76.8760433 L129.615554,76.7932433 C129.642914,76.7932433 129.670274,76.7925233 129.697634,76.7925233 C131.044754,85.0559633 138.885554,106.151243 138.885554,106.151243 M139.090754,106.144763 C139.119554,106.144043 139.148354,106.143323 139.175714,106.141883 C139.146194,106.143323 139.117394,106.144043 139.090754,106.144763 M139.352834,106.136843 C139.380194,106.136123 139.406834,106.135403 139.432754,106.134683 C139.406114,106.135403 139.378754,106.136123 139.352834,106.136843 M139.469474,106.133243 C139.504754,106.132523 139.539314,106.131083 139.572434,106.130363 C139.537874,106.131083 139.503314,106.132523 139.469474,106.133243 M139.583234,106.129643 C140.162114,106.112363 140.373074,106.105883 140.373074,106.105883 C140.373074,106.105883 139.969874,106.118123 139.583234,106.129643" id="Fill-117" fill="#F2B292"></path>
                    <path d="M121.396754,24.3088433 C121.286594,24.3088433 121.177154,24.2584433 121.106594,24.1626833 C117.867314,19.7692433 113.673314,22.0329233 113.496914,22.1315633 C113.323394,22.2280433 113.104514,22.1668433 113.007314,21.9933233 C112.910114,21.8198033 112.972034,21.6009233 113.144834,21.5037233 C113.193794,21.4763633 118.063874,18.8231633 121.686194,23.7350033 C121.804274,23.8948433 121.769714,24.1209233 121.609874,24.2382833 C121.545794,24.2858033 121.470914,24.3088433 121.396754,24.3088433" id="Fill-118" fill="#E98772"></path>
                    <path d="M109.478594,1.40996331 C110.352674,2.28260331 111.146834,3.20924331 111.904274,4.17476331 C112.655954,5.14172331 113.360114,6.14900331 113.990114,7.20524331 C114.610754,8.26724331 115.163714,9.37388331 115.603634,10.5345233 C116.019794,11.7030833 116.314994,12.9234833 116.413634,14.1813233 C116.429474,14.3800433 116.280434,14.5535633 116.083154,14.5686833 C115.884434,14.5845233 115.710914,14.4362033 115.695794,14.2382033 L115.695074,14.2331633 L115.694354,14.2173233 C115.624514,13.0451633 115.371074,11.8823633 114.993794,10.7519633 C114.593474,9.62876331 114.078674,8.54300331 113.493314,7.49396331 C112.898594,6.44924331 112.226114,5.44628331 111.505394,4.47932331 C110.781794,3.51668331 110.007794,2.57852331 109.177634,1.71596331 L109.172594,1.71092331 C109.090514,1.62524331 109.093394,1.48916331 109.178354,1.40708331 C109.262594,1.32572331 109.395794,1.32788331 109.478594,1.40996331" id="Fill-119" fill="#E98772"></path>
                    <path d="M111.912914,0.0246833052 C113.086514,0.632363305 113.947634,1.53596331 114.752594,2.48636331 C115.543154,3.44612331 116.231474,4.48436331 116.821874,5.57084331 C117.433154,6.64796331 117.937154,7.77692331 118.417394,8.91452331 L119.071874,10.6454033 L119.654354,12.4007633 C119.716274,12.5901233 119.614034,12.7931633 119.425394,12.8558033 C119.236754,12.9184433 119.032994,12.8162033 118.970354,12.6275633 L118.968914,12.6225233 L118.963874,12.6066833 L118.423874,10.8678833 L117.811154,9.15500331 C117.361154,8.03036331 116.886674,6.91292331 116.309954,5.85020331 C115.751954,4.77668331 115.100354,3.75428331 114.352994,2.81180331 C113.609954,1.88588331 112.738034,0.977243305 111.738674,0.437243305 L111.704834,0.418523305 C111.596834,0.360203305 111.556514,0.224843305 111.614834,0.116843305 C111.672434,0.0102833052 111.805634,-0.0307566948 111.912914,0.0246833052" id="Fill-120" fill="#E98772"></path>
                    <path d="M115.868594,0.634523305 C116.676434,1.28684331 117.391394,2.00900331 118.066754,2.77796331 C118.741394,3.54548331 119.362034,4.36124331 119.916434,5.22164331 C120.475154,6.07844331 120.979874,6.97412331 121.398194,7.91156331 C121.840274,8.83964331 122.164274,9.81812331 122.460194,10.8038033 C122.517794,10.9946033 122.409794,11.1954833 122.218994,11.2523633 C122.028914,11.3092433 121.828034,11.2012433 121.770434,11.0111633 L121.768994,11.0046833 L121.763954,10.9859633 C121.501874,10.0326833 121.214594,9.08012331 120.808514,8.17292331 C120.426194,7.25564331 119.958194,6.37436331 119.435474,5.52692331 C118.917074,4.67588331 118.330994,3.86516331 117.690914,3.09980331 C117.053714,2.33516331 116.358194,1.60076331 115.610114,0.965723305 L115.600754,0.957803305 C115.512914,0.882923305 115.501394,0.750443305 115.576274,0.661883305 C115.650434,0.575483305 115.780034,0.563243305 115.868594,0.634523305" id="Fill-121" fill="#E98772"></path>
                    <path d="M122.146274,50.8077233 C122.146274,50.8077233 120.871874,44.4753233 119.253314,40.7450033 L119.191394,40.5290033 L119.236034,40.4951633 C119.091314,40.2107633 118.873874,39.8255633 118.569314,39.3770033 C118.348274,39.0062033 118.123634,38.7002033 117.897554,38.4791633 C117.896114,38.4770033 117.894674,38.4755633 117.893234,38.4741233 L129.038834,37.0982033 L122.146274,50.8077233" id="Fill-123" fill="#F2B292"></path>
                    <path d="M73.1013145,77.0798033 L73.1027545,77.0920433 C72.9306745,77.0884433 72.7607545,77.0798033 72.5872345,77.0798033 L37.3677145,77.0798033 C29.7205945,77.0798033 23.1988345,81.8807633 20.6421145,88.6322033 L20.6385145,88.6307633 L20.5852345,88.7769233 L5.58043449,129.679403 L19.4857945,131.380043 L19.4857945,176.724923 L95.1664345,176.724923 L100.825634,106.151243 L113.990834,106.151243 L113.990834,76.9372433 L73.1013145,77.0798033" id="Fill-124" fill="#FFFFFE"></path>
                    <polyline id="Fill-125" fill="#AABBD6" points="114.381074 106.151243 101.216594 106.151243 113.990834 106.151243 113.990834 76.9386833 114.381074 76.9372433 114.381074 106.151243"></polyline>
                    <path d="M113.990834,106.151243 L101.216594,106.151243 L101.278514,105.380123 C101.278514,90.1514033 89.2487545,77.7378833 74.1748345,77.1100433 L74.1741145,77.1050033 L113.990834,76.9386833 L113.990834,106.151243" id="Fill-126" fill="#F5F5F3"></path>
                    <path d="M100.338194,108.070043 L86.1145945,105.248363 C84.4305145,104.913563 82.7788345,106.018763 82.4440345,107.702843 L75.9208345,140.583083 C75.5860345,142.267883 76.6912345,143.919563 78.3753145,144.254363 L84.1979545,145.409243 L92.5996345,147.076043 C94.2844345,147.410123 95.9361145,146.304923 96.2701945,144.620843 L102.794114,111.740603 C103.127474,110.056523 102.022994,108.404843 100.338194,108.070043" id="Fill-127" fill="#16171B"></path>
                    <path d="M101.829314,127.181723 C101.652194,126.808763 101.370674,126.512843 101.032994,126.306923 C100.972514,126.217643 100.922834,126.128363 100.858034,126.038363 C100.858034,126.038363 100.729874,126.054203 100.517474,126.081563 C100.270514,126.008843 100.009154,125.975003 99.7434745,125.995163 C96.8865145,126.218363 90.0119545,126.754763 85.8042745,127.083083 C83.5305145,127.260923 81.2567545,126.787883 79.2414745,125.720123 L78.9052345,125.540843 L79.6029145,122.023643 C78.8505145,122.945963 78.0865945,123.856763 77.2758745,124.717883 C76.8647545,124.740923 74.5182745,124.948283 72.3229945,126.585563 C71.5086745,127.159403 70.7073145,127.921163 70.0247545,128.940683 C69.1679545,130.221563 68.2427545,131.105723 67.4478745,131.709083 C66.9827545,132.044603 66.5687545,132.282923 66.2562745,132.439883 L66.2289145,132.401003 L34.5244345,140.249723 L34.3789945,140.285723 L35.9881945,133.147643 L6.81667449,129.613163 L0.40291449,157.544123 C-1.54324551,166.017803 3.74875449,174.464843 12.2224345,176.411003 C15.2622745,177.108683 18.2913145,176.717003 20.9229145,175.511723 C21.4377145,175.328843 21.9474745,175.117883 22.4514745,174.876683 L76.1152345,148.462043 L83.3893945,145.735403 C83.3893945,145.735403 83.6838745,145.623083 84.1979545,145.409243 L84.0913945,145.388363 C87.4105945,144.036203 106.021154,135.992363 101.829314,127.181723" id="Fill-128" fill="#F4BE99"></path>
                    <path d="M2.44915449,148.632683 L2.45635449,148.601003 L35.7419545,133.315403 L35.7858745,133.321163 C34.7965945,137.631803 34.9845145,137.378363 34.3293145,140.394443 L11.4858745,146.050043 C11.0387545,146.170283 10.6053145,146.313563 10.1797945,146.469083 C6.21115449,147.521723 3.18787449,148.412363 2.44915449,148.632683" id="Fill-131" fill="#F2B292"></path>
                    <path d="M38.4923545,133.652363 L38.4477145,133.649483 L35.9442745,133.340603 L35.9881945,133.147643 L31.7934745,132.639323 C31.7718745,132.585323 31.7632345,132.524843 31.7711545,132.462923 C31.7934745,132.281483 31.9504345,132.146843 32.1261145,132.146843 C32.1412345,132.146843 32.1570745,132.147563 32.1721945,132.149723 L38.1899545,132.892043 L41.5408345,111.512363 C41.5689145,111.333083 41.7229945,111.208523 41.8993945,111.208523 C41.9166745,111.208523 41.9346745,111.209963 41.9526745,111.212123 C42.1485145,111.243083 42.2831545,111.427403 42.2521945,111.623243 L38.8480345,133.347803 C38.8199545,133.524923 38.6673145,133.652363 38.4923545,133.652363" id="Fill-134" fill="#A8A8A8"></path>
                    <path d="M35.9442745,133.340603 L35.7858745,133.321163 C35.7880345,133.311803 35.7901945,133.301723 35.7923545,133.292363 L35.7419545,133.315403 L32.0843545,132.863963 C31.9489945,132.848123 31.8402745,132.758123 31.7934745,132.639323 L35.9881945,133.147643 L35.9442745,133.340603" id="Fill-135" fill="#A4816D"></path>
                    <path d="M46.0321945,137.400683 L52.8477145,135.713723 L66.7465945,132.320363 C67.2095545,134.803643 63.5145145,137.078123 60.8404345,137.078123 C60.6532345,137.078123 60.4703545,137.066603 60.2946745,137.043563 L46.0321945,137.400683" id="Fill-138" fill="#F3B795"></path>
                    <path d="M91.2553945,67.8825233 L86.3687545,34.6264433 C85.8337945,30.9825233 84.7746745,27.5474033 83.2907545,24.3750833 L85.9432345,23.9488433 C85.9432345,23.9488433 84.0805945,-3.04395669 53.8067545,3.40076331 C50.8252345,3.09260331 47.7573145,3.14444331 44.6555545,3.60020331 C29.9481145,5.76092331 19.7766745,19.4351633 21.9381145,34.1426033 L24.7864345,53.5286033 C26.9471545,68.2360433 40.6213945,78.4067633 55.3288345,76.2460433 L88.6785145,71.3457233 C90.3467545,71.1002033 91.5001945,69.5500433 91.2553945,67.8825233" id="Fill-139" fill="#16171B"></path>
                    <path d="M71.1717145,22.8904433 C70.9945945,22.8904433 70.8405145,22.7594033 70.8153145,22.5794033 C70.7886745,22.3821233 70.9261945,22.2006833 71.1234745,22.1733233 L80.8585945,20.8434833 C80.9363545,20.8334033 81.0076345,20.7909233 81.0537145,20.7261233 C81.0796345,20.6908433 81.1199545,20.6166833 81.1033945,20.5209233 C79.5294745,11.7455633 71.4453145,7.69700331 71.3639545,7.65740331 C71.1853945,7.57028331 71.1112345,7.35428331 71.1983545,7.17572331 C71.2861945,6.99716331 71.5029145,6.92300331 71.6800345,7.01084331 C71.7642745,7.05188331 80.1717145,11.2509233 81.8118745,20.3934833 C81.8593945,20.6598833 81.7974745,20.9284433 81.6361945,21.1494833 C81.4749145,21.3719633 81.2272345,21.5202833 80.9557945,21.5577233 L71.2206745,22.8868433 L71.1717145,22.8904433" id="Fill-140" fill="#FDF1E0"></path>
                    <path d="M80.5497145,24.8150033 L53.9010745,29.0968433 L47.4333145,19.5309233 C48.7033945,30.2042033 40.8337945,37.0982033 40.8337945,37.0982033 C40.8337945,37.0982033 40.7531545,36.9880433 40.6134745,36.7857233 L40.3924345,36.8267633 C36.2221945,37.6072433 33.4487545,41.6586833 34.2292345,45.8282033 C35.0097145,49.9991633 39.0604345,52.7718833 43.2306745,51.9914033 L43.7404345,51.8963633 C44.6512345,55.8952433 46.7053945,59.3591633 49.5069145,61.9900433 L49.5069145,79.0691633 C49.5069145,85.1229233 54.4605145,90.0765233 60.5142745,90.0765233 C66.5687545,90.0765233 71.5216345,85.1229233 71.5216345,79.0691633 L71.5216345,65.5814033 C75.9064345,63.5632433 79.3393945,60.0388433 81.2992345,55.7771633 L81.3114745,55.7577233 C83.6932345,51.7674833 84.6897145,46.9283633 83.7673945,42.0014033 L80.5497145,24.8150033" id="Fill-141" fill="#F4BE99"></path>
                    <path d="M60.5142745,72.0326033 C54.8025145,72.0326033 50.0757145,67.6218833 49.5587545,62.0390033 C49.5414745,62.0231633 49.5241945,62.0066033 49.5069145,61.9907633 L49.5069145,61.9900433 C46.7327545,59.3843633 44.6908345,55.9622033 43.7670745,52.0122833 C43.8664345,51.8704433 44.7073945,51.6530033 45.1998745,51.6530033 C45.3885145,51.6530033 45.5260345,51.6846833 45.5519545,51.7646033 C48.1972345,59.9128433 55.8335545,65.4042833 64.3209145,65.4035633 C65.5261945,65.4035633 66.7501945,65.2926833 67.9785145,65.0622833 C73.7694745,63.9779633 78.4905145,60.4694033 81.2963545,55.7829233 C80.5900345,57.3179633 79.6921945,58.7579633 78.6273145,60.0654833 C76.4608345,62.7230033 73.6045945,64.8354833 70.2652345,66.1019633 C68.4213145,69.6170033 64.7392345,72.0326033 60.5142745,72.0326033" id="Fill-143" fill="#EFA88D"></path>
                    <path d="M39.5860345,46.9312433 C39.4787545,46.9312433 39.3729145,46.8837233 39.3016345,46.7922833 C39.1799545,46.6353233 39.2080345,46.4092433 39.3649945,46.2868433 L41.7597145,44.4292433 L38.7033145,41.5456433 C38.5593145,41.4095633 38.5521145,41.1813233 38.6889145,41.0366033 C38.8257145,40.8926033 39.0532345,40.8861233 39.1979545,41.0222033 L42.5589145,44.1945233 C42.6352345,44.2665233 42.6762745,44.3687633 42.6719545,44.4731633 C42.6661945,44.5782833 42.6157945,44.6762033 42.5329945,44.7402833 L39.8070745,46.8556433 C39.7408345,46.9067633 39.6630745,46.9312433 39.5860345,46.9312433" id="Fill-144" fill="#E98772"></path>
                    <path d="M58.7603545,33.8056433 C59.0814745,33.7970033 59.4119545,33.6018833 59.7424345,33.4326833 C60.0707545,33.2548433 60.4055545,33.0842033 60.7014745,32.9459633 C60.9981145,32.8077233 61.3444345,32.6608433 61.6921945,32.5233233 C62.0341945,32.3793233 62.3977945,32.2504433 62.6073145,32.0121233 C62.8117945,31.7860433 62.7714745,31.4296433 62.2933945,31.1906033 C61.8383545,30.9537233 60.9109945,30.8975633 59.9281945,31.3526033 C58.9497145,31.8119633 58.4082745,32.5528433 58.3081945,33.0489233 C58.1965945,33.5622833 58.4521945,33.8178833 58.7603545,33.8056433" id="Fill-145" fill="#16171B"></path>
                    <path d="M77.8597945,30.4842833 C77.5487545,30.5634833 77.1772345,30.4684433 76.8129145,30.3964433 C76.4478745,30.3165233 76.0792345,30.2452433 75.7559545,30.1948433 C75.4326745,30.1437233 75.0597145,30.0983633 74.6874745,30.0623633 C74.3188345,30.0184433 73.9343545,29.9946833 73.6665145,29.8240433 C73.4080345,29.6627633 73.3475545,29.3092433 73.7406745,28.9478033 C74.1129145,28.5942833 74.9884345,28.2839633 76.0583545,28.4495633 C77.1268345,28.6202033 77.8511545,29.1825233 78.0844345,29.6310833 C78.3342745,30.0940433 78.1593145,30.4108433 77.8597945,30.4842833" id="Fill-146" fill="#16171B"></path>
                    <path d="M67.0698745,48.7024433 C64.1157145,48.7024433 62.1450745,46.3847633 62.1205945,46.3545233 C61.9938745,46.2018833 62.0147545,45.9750833 62.1673945,45.8476433 C62.3200345,45.7216433 62.5468345,45.7410833 62.6735545,45.8937233 C62.7887545,46.0305233 65.5204345,49.2215633 69.3371545,47.4597233 C69.5178745,47.3754833 69.7317145,47.4546833 69.8152345,47.6354033 C69.8987545,47.8161233 69.8195545,48.0299633 69.6388345,48.1134833 C68.7244345,48.5354033 67.8611545,48.7024433 67.0698745,48.7024433" id="Fill-147" fill="#E98772"></path>
                    <path d="M69.2190745,43.6768433 C69.0498745,43.6768433 68.8993945,43.5580433 68.8655545,43.3866833 C68.8273945,43.1915633 68.9548345,43.0022033 69.1499545,42.9640433 L71.6814745,42.4658033 C73.2553945,42.1554833 74.2828345,40.6240433 73.9732345,39.0508433 C73.8616345,38.4820433 73.3079545,38.1126833 72.7398745,38.2228433 C71.4085945,38.4827633 70.1147545,37.6151633 69.8526745,36.2853233 L69.2413945,33.1792433 C69.2032345,32.9841233 69.3299545,32.7947633 69.5250745,32.7566033 C69.7201945,32.7184433 69.9102745,32.8451633 69.9484345,33.0402833 L70.5597145,36.1456433 C70.7440345,37.0866833 71.6620345,37.7008433 72.6009145,37.5158033 C73.0667545,37.4258033 73.5369145,37.5201233 73.9293145,37.7829233 C74.3224345,38.0464433 74.5888345,38.4474833 74.6802745,38.9111633 C75.0661945,40.8738833 73.7838745,42.7854833 71.8204345,43.1721233 L69.2889145,43.6703633 L69.2190745,43.6768433" id="Fill-148" fill="#E98772"></path>
                    <path d="M62.0464345,39.8810033 L62.0464345,39.8810033 C61.5647545,39.9710033 61.0967545,39.6506033 61.0067545,39.1689233 L60.8080345,38.1069233 C60.7180345,37.6252433 61.0377145,37.1572433 61.5193945,37.0672433 C62.0010745,36.9772433 62.4690745,37.2969233 62.5590745,37.7786033 L62.7585145,38.8413233 C62.8485145,39.3230033 62.5281145,39.7902833 62.0464345,39.8810033" id="Fill-149" fill="#16171B"></path>
                    <path d="M77.1448345,37.4272433 L77.1448345,37.4272433 C76.6631545,37.5179633 76.1951545,37.1975633 76.1051545,36.7158833 L75.9064345,35.6531633 C75.8157145,35.1714833 76.1361145,34.7042033 76.6177945,34.6134833 C77.0994745,34.5234833 77.5674745,34.8438833 77.6574745,35.3255633 L77.8561945,36.3875633 C77.9461945,36.8692433 77.6257945,37.3372433 77.1448345,37.4272433" id="Fill-150" fill="#16171B"></path>
                    <path d="M58.2541945,44.2427633 C57.7012345,44.2427633 57.2202745,43.8244433 57.1576345,43.2628433 C57.0899545,42.6594833 57.5277145,42.1108433 58.1303545,42.0431633 L61.1709145,41.7011633 C61.2119545,41.6968433 61.2537145,41.6939633 61.2940345,41.6939633 C61.8469945,41.6939633 62.3272345,42.1122833 62.3905945,42.6746033 C62.4582745,43.2772433 62.0205145,43.8258833 61.4171545,43.8942833 L58.3773145,44.2355633 C58.3362745,44.2406033 58.2945145,44.2427633 58.2541945,44.2427633" id="Fill-151" fill="#F2B292"></path>
                    <path d="M78.6971545,41.0229233 C78.1441945,41.0229233 77.6632345,40.6038833 77.5998745,40.0422833 C77.5321945,39.4396433 77.9699545,38.8902833 78.5733145,38.8226033 L81.6138745,38.4813233 C81.6549145,38.4762833 81.6959545,38.4741233 81.7369945,38.4741233 C82.2892345,38.4741233 82.7701945,38.8924433 82.8328345,39.4540433 C82.9012345,40.0574033 82.4627545,40.6060433 81.8601145,40.6737233 L78.8202745,41.0157233 C78.7785145,41.0200433 78.7374745,41.0229233 78.6971545,41.0229233" id="Fill-152" fill="#F2B292"></path>
                    <path d="M72.8557945,56.5382033 C72.7823545,56.5382033 72.7081945,56.5151633 72.6441145,56.4683633 C71.2271545,55.4322833 69.7561945,56.4302033 69.6942745,56.4726833 C69.5308345,56.5864433 69.3076345,56.5461233 69.1938745,56.3841233 C69.0801145,56.2214033 69.1189945,55.9974833 69.2809945,55.8830033 C69.9477145,55.4142833 71.5972345,54.8109233 73.0689145,55.8873233 C73.2294745,56.0046833 73.2640345,56.2300433 73.1473945,56.3906033 C73.0768345,56.4870833 72.9673945,56.5382033 72.8557945,56.5382033" id="Fill-153" fill="#E98772"></path>
                    <g id="Mask" transform="translate(64.468114, 113.441483) scale(-1, 1) translate(-64.468114, -113.441483) translate(50.468114, 98.441483)" fill="#FF6D40" fill-rule="nonzero">
                        <g id="Logo1">
                            <path d="M17.1641487,6.69405869 L18.9496377,2.41980495 C24.0298896,4.45897365 27.6172051,9.43038385 27.6172051,15.2396565 C27.6172051,22.8659371 21.4348831,29.048259 13.8086025,29.048259 C12.249402,29.048259 10.7505594,28.7898366 9.3525689,28.3134867 L12.5820656,24.3520925 C12.9867109,24.4065776 13.3997109,24.434712 13.819282,24.434712 C18.8916728,24.434712 23.003658,20.3227267 23.003658,15.250336 C23.003658,11.3581228 20.5825211,8.03139646 17.1641487,6.69405869 Z M14.1809585,6.07295077 C14.0609759,6.06830455 13.9404028,6.06595997 13.819282,6.06595997 C8.74689124,6.06595997 4.63490603,10.1779452 4.63490603,15.250336 C4.63490603,19.0832848 6.98287415,22.3678364 10.3189659,23.7441462 L8.21912664,27.8702038 C3.37748822,25.7244348 0,20.8764728 0,15.2396565 C0,7.61337587 6.18232193,1.43105394 13.8086025,1.43105394 C15.1002003,1.43105394 16.3503805,1.60838328 17.5361251,1.94002377 L14.1809621,6.07295089 L14.1809585,6.07295077 Z" id="Combined-Shape"></path>
                            <polygon id="Path-Copy" points="7.88940235 14.5937131 19.5707805 0 14.0248625 13.1501442 20.1768425 14.5937131 7.62516798 29.8036672 14.7259555 16.0329436"></polygon>
                        </g>
                    </g>
                </g>
                <path d="M177.03288,164.40696 C179.37144,164.34 180.8424,164.22696 184.43304,164.22552 L184.4568,164.30832 L177.03288,164.40696" id="Fill-116" fill="#BBBAD2"></path>
                <path d="M174.0708,128.17728 C173.84904,127.66392 173.62008,127.20096 173.3868,126.80928 C173.69136,127.25784 173.9088,127.64304 174.05352,127.92744 L174.00888,127.96128 L174.0708,128.17728" id="Fill-122" fill="#CAC4D8"></path>
                <path d="M56.81232,237.5352 C56.8188,237.49848 56.8332,237.42648 56.85624,237.31344 C56.83608,237.41352 56.82096,237.49128 56.81232,237.5352" id="Fill-129" fill="#CAC5D8"></path>
                <path d="M57.0924,236.1168 L57.27384,236.03328 L57.26664,236.06496 C57.15216,236.0988 57.0924,236.1168 57.0924,236.1168" id="Fill-130" fill="#CAC5D8"></path>
                <path d="M56.8692,237.24576 C56.89368,237.12264 56.92176,236.97936 56.95056,236.83392 C56.91744,237.0024 56.89008,237.14064 56.8692,237.24576" id="Fill-132" fill="#CAC5D8"></path>
                <path d="M56.95056,236.83392 C57.02184,236.4732 57.0924,236.1168 57.0924,236.1168 C57.03408,236.412 56.98944,236.63808 56.95056,236.83392" id="Fill-133" fill="#CAC5D8"></path>
                <path d="M90.60336,220.75344 L90.55944,220.74768 L90.60984,220.72464 C90.60768,220.734 90.60552,220.74408 90.60336,220.75344" id="Fill-136" fill="#A37A69"></path>
                <polyline id="Fill-137" fill="#FFF7F5" points="100.74456 224.83584 107.6652 223.146 100.84968 224.83296 100.74456 224.83584"></polyline>
                <path d="M104.3244,149.42304 C101.556,146.82384 99.50256,143.4168 98.5752,139.4784 C98.57304,139.4676 98.57592,139.4568 98.58456,139.44456 C99.50832,143.39448 101.55024,146.81664 104.3244,149.42232 L104.3244,149.42304 M133.4448,147.49776 C134.50968,146.19024 135.40752,144.75024 136.11384,143.2152 C136.11888,143.20728 136.12392,143.19864 136.12896,143.19 C135.41976,144.73512 134.51688,146.18304 133.4448,147.49776" id="Fill-142" fill="#563939"></path>
            </g>
        </g>
    </g>
</svg>