<?xml version="1.0" encoding="UTF-8"?>
<svg width="494px" height="279px" viewBox="0 0 494 279" version="1.1" xmlns="http://www.w3.org/2000/svg" xmlns:xlink="http://www.w3.org/1999/xlink">
    <!-- Generator: Sketch 64 (93537) - https://sketch.com -->
    <title>Rewards</title>
    <desc>Created with Sketch.</desc>
    <defs>
        <path d="M1.6056,0.63504 C0.85968,0.612 0.59832,0.60408 0.599038517,0.60408 C0.6012,0.60408 1.17216,0.62136 1.6056,0.63504 L1.6056,0.63504 Z" id="path-1"></path>
    </defs>
    <g id="Rewards" stroke="none" stroke-width="1" fill="none" fill-rule="evenodd">
        <g id="Group-4" transform="translate(4.000000, 3.000000)">
            <path d="M22.4989075,269.987114 C7.49963584,255.677228 0,237.988424 0,216.9207 C0,185.319114 24.2597202,150.955887 32.8773139,135.854301 C41.4949075,120.752714 47.9024204,102.949957 37.4225927,73.9661353 C26.942765,44.982314 46.9492085,15.834927 83.424493,5.30471491 C119.899778,-5.22549716 166.260881,1.21076614 187.515416,13.3457401 C208.76995,25.480714 245.18346,47.5979364 304.692508,36.5393252 C364.201555,25.480714 425.937325,50.5807215 438.593308,97.6263178 C451.24929,144.671914 431.648064,197.791845 394.725086,230.8648 C370.109767,252.913436 350.711622,265.227008 336.530651,267.805514 L22.4989075,269.987114 Z" id="Path-3" fill="#E1EAF1"></path>
            <path d="M57.3258077,269.199589 C41.0973634,257.738646 36.2693575,239.131611 42.8417899,213.378482 C52.7004385,174.748789 61.9511768,171.853744 57.3258077,134.460375 C52.7004385,97.0670071 59.6992709,69.5870513 97.0765899,51.2967089 C134.453909,33.0063665 166.02659,44.2774424 195.48179,51.2967089 C224.93699,58.3159755 290.169214,32.8627505 315.95259,35.1454001 C341.735966,37.4280497 400.575482,40.2287738 407.12059,107.488381 C413.665698,174.747989 370.744339,227.889989 358.665264,248.887589 C350.612548,262.885989 343.82938,268.727322 338.315761,266.411589 L57.3258077,269.199589 Z" id="Path-4" stroke="#C4D2E3" fill="#C4D2E3"></path>
            <path d="M103.8841,270.094659 C92.5677483,223.728792 87.7042464,192.447326 89.2935943,176.250259 C91.6776163,151.954659 102.191994,139.389961 112.883994,132.386659 C123.575994,125.383357 166.791217,122.961859 190.272405,139.217059 C213.753594,155.472259 218.125859,143.412259 245.187557,143.412259 C272.249255,143.412259 310.595041,157.79667 336.959807,220.390259 C354.536317,262.119319 361.596867,278.954119 358.141456,270.894659 L103.8841,270.094659 Z" id="Path-5" fill="#B2C3DA"></path>
            <path d="M447.23768,215.98648 C442.85576,215.98648 438.59768,214.72864 435.77816,211.67296 C429.34568,204.70048 438.06632,195.95896 440.02616,187.91512 C441.19112,183.13216 443.9624,181.28968 447.2564,181.28968 C451.688,181.28968 457.06784,184.62544 460.75856,188.62504 C467.19176,195.59752 467.7152,205.57888 461.92784,210.9184 C458.67632,213.91864 452.85512,215.98648 447.23768,215.98648" id="Fill-5" fill="#D7E2EC"></path>
            <path d="M420.46232,64.7512 C414.25448,64.7512 408.55856,55.74184 402.50768,51.76888 C392.66816,45.30904 399.13304,35.66824 406.59656,31.7284 C408.87104,30.52816 411.31184,29.95792 413.71664,29.95792 C419.20304,29.95792 424.50512,32.92 427.244,38.10904 C431.18384,45.57256 431.06432,60.00208 423.60008,63.94192 C422.53808,64.5028 421.49264,64.7512 420.46232,64.7512" id="Fill-6" fill="#D7E2EC"></path>
            <path d="M485.22776,270.4372 L17.132,270.4372 C16.50344,270.4372 15.9944,269.92816 15.9944,269.2996 C15.9944,268.67104 16.50344,268.16128 17.132,268.16128 L485.22776,268.16128 C485.85632,268.16128 486.36608,268.67104 486.36608,269.2996 C486.36608,269.92816 485.85632,270.4372 485.22776,270.4372" id="Fill-9" fill="#A1B5D3"></path>
            <path d="M470.61032,162.70216 C470.61032,164.49136 469.16024,165.94216 467.37032,165.94216 C465.58112,165.94216 464.13032,164.49136 464.13032,162.70216 C464.13032,160.91224 465.58112,159.46216 467.37032,159.46216 C469.16024,159.46216 470.61032,160.91224 470.61032,162.70216" id="Fill-10" fill="#131232"></path>
            <path d="M446.85032,252.70216 C446.85032,254.0932 445.72208,255.22216 444.33032,255.22216 C442.93928,255.22216 441.81032,254.0932 441.81032,252.70216 C441.81032,251.3104 442.93928,250.18216 444.33032,250.18216 C445.72208,250.18216 446.85032,251.3104 446.85032,252.70216" id="Fill-11" fill="#53609D"></path>
            <path d="M56.61032,50.38144 C56.61032,52.17136 55.16024,53.62144 53.37032,53.62144 C51.58112,53.62144 50.13032,52.17136 50.13032,50.38144 C50.13032,48.59224 51.58112,47.14144 53.37032,47.14144 C55.16024,47.14144 56.61032,48.59224 56.61032,50.38144" id="Fill-12" fill="#53609D"></path>
            <path d="M22.87616,243.28888 C22.87616,245.18968 21.33608,246.73048 19.43528,246.73048 C17.53448,246.73048 15.9944,245.18968 15.9944,243.28888 C15.9944,241.3888 17.53448,239.848 19.43528,239.848 C21.33608,239.848 22.87616,241.3888 22.87616,243.28888" id="Fill-13" fill="#131232"></path>
            <path d="M445.05464,37.38184 C444.75152,38.80024 443.35616,39.70456 441.93704,39.40144 C440.51792,39.09904 439.6136,37.70296 439.91672,36.28384 C440.21912,34.86544 441.6152,33.96112 443.03432,34.26424 C444.45272,34.56736 445.35776,35.96272 445.05464,37.38184" id="Fill-18" fill="#F2AE50"></path>
            <path d="M106.75256,20.66704 C106.44944,22.08544 105.05408,22.99048 103.63496,22.68736 C102.21584,22.38424 101.31152,20.98816 101.61464,19.56976 C101.91776,18.15064 103.31312,17.24632 104.73224,17.54872 C106.15136,17.85184 107.05568,19.24792 106.75256,20.66704" id="Fill-19" fill="#F2AE50"></path>
            <path d="M466.7,96.52192 C466.39688,97.94032 465.0008,98.84464 463.5824,98.54224 C462.16328,98.23912 461.25824,96.84304 461.56136,95.42464 C461.86448,94.00552 463.25984,93.1012 464.67896,93.4036 C466.09808,93.70672 467.00312,95.1028 466.7,96.52192" id="Fill-20" fill="#53609D"></path>
            <path d="M277.58912,32.6536 C277.35152,33.766 276.25712,34.4752 275.14472,34.2376 C274.0316,34 273.3224,32.9056 273.56,31.7932 C273.7976,30.68008 274.892,29.97088 276.0044,30.20848 C277.11752,30.44608 277.82672,31.5412 277.58912,32.6536" id="Fill-21" fill="#131232"></path>
            <path d="M175.84016,83.014 L175.84016,83.014 C175.84016,78.52408 172.19984,74.88376 167.70992,74.88376 C172.19984,74.88376 175.84016,71.24344 175.84016,66.75352 C175.84016,71.24344 179.48048,74.88376 183.9704,74.88376 C179.48048,74.88376 175.84016,78.52408 175.84016,83.014" id="Fill-34" fill="#FFFFFE"></path>
            <path d="M271.35392,123.89128 L271.35392,123.89128 C271.35392,120.59368 268.68056,117.9196 265.38296,117.9196 C268.68056,117.9196 271.35392,115.24624 271.35392,111.94864 C271.35392,115.24624 274.02728,117.9196 277.32488,117.9196 C274.02728,117.9196 271.35392,120.59368 271.35392,123.89128" id="Fill-35" fill="#FFFFFE"></path>
            <path d="M232.3256,152.64736 L232.3256,152.64736 C232.3256,146.58352 227.41016,141.66736 221.3456,141.66736 C227.41016,141.66736 232.3256,136.75192 232.3256,130.68808 C232.3256,136.75192 237.24104,141.66736 243.30488,141.66736 C237.24104,141.66736 232.3256,146.58352 232.3256,152.64736" id="Fill-36" fill="#FFFFFE"></path>
            <path d="M270.23144,67.93288 L270.23144,67.93288 C270.23144,62.25064 265.62488,57.64408 259.94264,57.64408 C265.62488,57.64408 270.23144,53.0368 270.23144,47.35456 C270.23144,53.0368 274.838,57.64408 280.52096,57.64408 C274.838,57.64408 270.23144,62.25064 270.23144,67.93288" id="Fill-37" fill="#FDF1E0"></path>
            <path d="M304.62656,74.88376 L304.62656,74.88376 C304.62656,71.7496 302.08568,69.208 298.9508,69.208 C302.08568,69.208 304.62656,66.66712 304.62656,63.53296 C304.62656,66.66712 307.16744,69.208 310.30232,69.208 C307.16744,69.208 304.62656,71.7496 304.62656,74.88376" id="Fill-38" fill="#FFFFFE"></path>
            <g id="Group-2" transform="translate(143.411329, 172.348493) scale(-1, 1) translate(-143.411329, -172.348493) translate(56.911329, 74.848493)">
                <path d="M35.415711,88.1187868 L35.439471,88.0367068 L45.863631,51.7724668 L45.818271,51.7386268 C46.287711,50.8206268 47.502351,48.8528668 49.988511,47.1183868 C54.286191,44.1210268 54.799551,39.1551868 54.799551,39.1551868 C57.094191,36.9339868 59.680431,35.0389468 62.023311,32.8695868 C62.268111,32.6427868 62.522991,32.3951068 62.594271,32.0696668 C62.674191,31.7067868 62.504991,31.3352668 62.297631,31.0278268 C61.088031,29.2357468 58.865391,28.9765468 57.017151,29.8045468 C55.934271,30.2891068 54.966591,30.9788668 54.058671,31.7370268 C53.628111,32.0963068 52.159311,33.0848668 51.713631,33.7429468 L60.005151,16.0381468 C60.741711,14.4656668 60.260031,12.6714268 58.934511,12.0515068 C58.272111,11.7404668 57.518991,11.7807868 56.840031,12.0939868 C56.409471,12.2927068 56.016351,12.6123868 55.686591,13.0127068 C55.712511,12.8823868 55.726911,12.8060668 55.726911,12.8060668 C46.015551,4.63982681 34.032591,32.4354268 34.032591,32.4354268 L30.632031,40.4598268 L1.78811103,93.9392668 C-2.29068897,101.698707 0.85283103,111.293427 8.73323103,115.135347 C8.84627103,115.191507 8.96075103,115.239747 9.07523103,115.291587 C11.387151,116.627187 14.069151,117.393987 16.930431,117.393987 L73.695231,117.393987 L85.927311,88.3225468 L35.415711,88.1187868" id="Fill-71" fill="#F4BE99"></path>
                <path d="M26.169471,117.393987 C26.169471,117.393987 27.587151,113.453427 29.305071,108.312627 C29.714751,107.514867 30.063231,106.671027 30.338991,105.779667 L32.335551,98.8359868 C32.862591,97.0892668 33.359391,95.3763868 33.787791,93.7815868 L35.415711,88.1187868 L44.359551,88.1547868 C45.011151,88.1605468 45.732591,88.1634268 46.557711,88.1634268 L46.583631,88.1641468 L26.169471,117.393987" id="Fill-77" fill="#F2B292"></path>
                <path d="M43.658271,35.5523068 C43.584111,35.5523068 43.509231,35.5292668 43.445151,35.4817468 C43.285311,35.3643868 43.250751,35.1383068 43.368831,34.9784668 C46.991871,30.0644668 51.862671,32.7198268 51.910191,32.7464668 C52.083711,32.8443868 52.144911,33.0625468 52.047711,33.2360668 C51.951231,33.4088668 51.731631,33.4707868 51.558111,33.3750268 C51.380991,33.2763868 47.188431,31.0127068 43.948431,35.4061468 C43.877871,35.5011868 43.769151,35.5523068 43.658271,35.5523068" id="Fill-79" fill="#E98772"></path>
                <path d="M55.892511,12.9428668 C54.395631,14.8285468 53.003151,16.8121468 51.769071,18.8742268 C51.154191,19.9067068 50.597631,20.9723068 50.131791,22.0652668 C49.672431,23.1503068 49.300911,24.3167068 49.359951,25.4168668 L49.361391,25.4391868 C49.372191,25.6371868 49.220271,25.8071068 49.021551,25.8179068 C48.822831,25.8287068 48.653631,25.6760668 48.642111,25.4780668 L48.642111,25.4687068 C48.603231,24.1302268 49.043871,22.9335868 49.536351,21.8103868 C50.043231,20.6864668 50.632911,19.6122268 51.277311,18.5768668 C52.572591,16.5075868 54.009711,14.5463068 55.562031,12.6692668 C55.637631,12.5778268 55.772991,12.5648668 55.864431,12.6404668 C55.954431,12.7146268 55.968111,12.8478268 55.895391,12.9392668 L55.892511,12.9428668" id="Fill-80" fill="#E98772"></path>
                <path d="M53.389071,11.9161468 C52.439391,12.5699068 51.586191,13.4360668 50.823711,14.3353468 C50.059791,15.2447068 49.388751,16.2303868 48.785391,17.2542268 C48.193551,18.2852668 47.672271,19.3573468 47.228031,20.4611068 C46.992591,21.0075868 46.817631,21.5785468 46.608831,22.1343868 L46.092591,23.8443868 L46.086111,23.8645468 C46.029231,24.0546268 45.828351,24.1626268 45.637551,24.1050268 C45.448191,24.0474268 45.340191,23.8465468 45.397071,23.6564668 L45.399231,23.6499868 L45.960831,21.9119068 C46.184031,21.3452668 46.374831,20.7663868 46.626111,20.2112668 C47.102751,19.0895068 47.657151,18.0015868 48.283551,16.9561468 C48.922911,15.9179068 49.629231,14.9199868 50.432751,14.0005468 C51.244191,13.0847068 52.107471,12.2279068 53.157231,11.5338268 C53.260191,11.4661468 53.399151,11.4942268 53.466111,11.5971868 C53.533791,11.6987068 53.507151,11.8355068 53.407071,11.9039068 L53.389071,11.9161468" id="Fill-81" fill="#E98772"></path>
                <path d="M49.463631,12.1926268 C48.085551,13.6355068 46.802511,15.1943068 45.693711,16.8510268 C45.146511,17.6826268 44.620191,18.5329468 44.207631,19.4293468 C43.792191,20.3214268 43.448031,21.2487868 43.298271,22.1948668 L43.296831,22.2035068 C43.265871,22.4000668 43.082271,22.5339868 42.885711,22.5030268 C42.689151,22.4713468 42.555231,22.2870268 42.586191,22.0904668 L42.587631,22.0818268 C42.779871,21.0356668 43.172271,20.0665468 43.627311,19.1456668 C44.083071,18.2211868 44.643951,17.3643868 45.222831,16.5284668 C46.400031,14.8638268 47.727711,13.3295068 49.169151,11.8931068 C49.251231,11.8117468 49.384431,11.8117468 49.465791,11.8938268 C49.545711,11.9744668 49.547151,12.1047868 49.469391,12.1868668 L49.463631,12.1926268" id="Fill-82" fill="#E98772"></path>
                <path d="M166.429071,140.922147 L152.504271,102.965187 C150.846831,94.6369468 142.923951,88.3225468 133.391151,88.3225468 L94.495311,88.0129468 L50.673231,88.1807068 L50.673231,117.393987 L64.273311,117.393987 L57.254751,193.588707 L153.749871,194.134467 L153.209151,142.539267 L166.429071,140.922147" id="Fill-83" fill="#53609D"></path>
                <path d="M64.273311,117.393987 L50.673231,117.393987 L50.673231,88.1807068 L91.797471,88.0237468 L91.797471,88.4939068 C76.364271,90.0123868 64.344591,102.021987 64.344591,116.622867 L64.273311,117.393987" id="Fill-84" fill="#515E9B"></path>
                <path d="M41.637951,66.4611868 C41.440671,66.4604668 39.039471,46.0643068 39.039471,46.0643068 L45.819711,51.7357468 C45.819711,51.7364668 45.818991,51.7371868 45.818271,51.7386268 L45.863631,51.7724668 C45.863631,51.7724668 45.860751,51.7832668 45.854271,51.8034268 C45.853551,51.8063068 45.852831,51.8091868 45.852111,51.8113468 L45.851391,51.8156668 C45.850671,51.8185468 45.849231,51.8207068 45.848511,51.8235868 C45.847791,51.8271868 45.847071,51.8307868 45.845631,51.8343868 L45.844911,51.8372668 C45.844191,51.8387068 45.844191,51.8401468 45.843471,51.8423068 C45.842751,51.8437468 45.842751,51.8451868 45.842031,51.8466268 L45.840591,51.8523868 L41.642991,66.4554268 C41.641551,66.4590268 41.640111,66.4611868 41.637951,66.4611868" id="Fill-86" fill="#F2B292"></path>
                <path d="M96.478911,151.826547 L89.954991,118.946307 C89.620911,117.262227 87.969231,116.157027 86.285151,116.491107 L72.060831,119.313507 C70.376751,119.647587 69.271551,121.299267 69.605631,122.984067 L76.129551,155.864307 C76.463631,157.549107 78.115311,158.653587 79.800111,158.318787 L88.201071,156.652707 L94.024431,155.497107 C95.707791,155.163027 96.813711,153.510627 96.478911,151.826547" id="Fill-87" fill="#16171B"></path>
                <path d="M172.191951,168.932307 L165.778191,141.001347 L136.614591,144.569667 L138.215871,151.674627 L138.067551,151.637907 L106.365951,143.789187 L106.338591,143.828067 C105.463791,143.389587 103.820031,142.344147 102.374271,140.184867 C99.716031,136.211907 95.251311,136.102467 95.251311,136.102467 C94.390911,135.201027 93.589551,134.238387 92.796831,133.266387 L93.539151,137.009667 L93.353391,137.108307 C91.338111,138.176067 89.064351,138.649827 86.790591,138.471987 C82.582911,138.143667 75.708351,137.606547 72.850671,137.384067 C71.978751,137.315667 71.141391,137.780067 70.765551,138.569907 C66.685311,147.145827 84.204351,154.993107 88.201791,156.652707 L88.201071,156.652707 L88.342191,156.710307 L88.505631,156.777267 L88.657551,156.839187 L88.784991,156.890307 L88.904511,156.937107 L88.950591,156.955107 L89.010351,156.978867 L95.866191,159.549267 L150.143391,186.264867 C150.647391,186.506067 151.157151,186.717027 151.671951,186.899907 C154.303551,188.105187 157.331871,188.497587 160.372431,187.799187 C168.846111,185.853027 174.138111,177.405987 172.191951,168.932307" id="Fill-88" fill="#F4BE99"></path>
                <path d="M138.215871,151.674627 L138.067551,151.637907 C137.199231,147.809667 137.601711,149.022867 136.945071,146.034867 L138.215871,151.674627" id="Fill-90" fill="#62639D"></path>
                <path d="M170.124111,159.927267 C169.992351,159.881187 149.966271,152.851107 140.347791,152.201667 L138.067551,151.637907 L138.215871,151.674627 L136.945071,146.034867 C136.856511,145.635267 136.749951,145.160067 136.618911,144.587667 L136.646271,144.584787 L170.124831,159.927267 L170.124111,159.927267" id="Fill-91" fill="#F2B292"></path>
                <path d="M133.906671,144.929667 C133.738911,144.929667 133.589871,144.811587 133.555311,144.643107 L129.367791,124.362147 C129.327471,124.167027 129.453471,123.976947 129.647151,123.936627 C129.673071,123.930867 129.698271,123.927987 129.723471,123.927987 C129.886911,123.927987 130.038111,124.046787 130.072671,124.215987 L134.193231,144.170787 L148.294431,142.375827 C148.310991,142.373667 148.326831,142.372227 148.343391,142.372227 C148.519071,142.372227 148.673871,142.506867 148.696911,142.687587 C148.722111,142.884867 148.582431,143.064867 148.385871,143.090787 L140.408271,144.105987 L136.614591,144.569667 L136.618191,144.587667 L133.953471,144.926787 L133.906671,144.929667" id="Fill-92" fill="#3C4A8D"></path>
                <path d="M130.604751,13.1271868 C129.717711,7.01222681 124.138431,2.66198681 117.955071,3.36110681 C116.314191,3.54614681 114.797151,4.07534681 113.457951,4.85798681 C111.467871,1.60214681 107.722431,-0.392253192 103.681791,0.0649468084 C101.372031,0.325586808 99.339471,1.35158681 97.789311,2.85206681 C95.558031,1.73390681 92.992671,1.22054681 90.328671,1.52150681 C83.006271,2.34950681 77.741631,8.95622681 78.569631,16.2779068 C78.956991,19.7022268 80.612271,22.6722268 83.009151,24.7832668 L80.297631,39.2682268 C79.519311,43.4262268 82.259631,47.4279868 86.416911,48.2070268 L118.546191,54.2211868 C122.704191,55.0002268 126.706671,52.2599068 127.484991,48.1019068 L132.748911,19.9837468 C133.234191,17.3888668 132.349311,14.8544668 130.604751,13.1271868" id="Fill-100" fill="#16171B"></path>
                <path d="M83.775951,21.0471868 C83.657151,21.0471868 83.540511,20.9881468 83.471391,20.8794268 C77.732991,11.7973468 85.637151,5.97398681 85.717791,5.91638681 C85.879791,5.79902681 86.103711,5.83790681 86.220351,5.99846681 C86.335551,6.15974681 86.298831,6.38438681 86.137551,6.50102681 C85.832271,6.72134681 78.708591,11.9946268 84.080511,20.4949468 C84.186351,20.6634268 84.136671,20.8859068 83.968911,20.9917468 C83.909151,21.0291868 83.842191,21.0471868 83.775951,21.0471868" id="Fill-101" fill="#FDF1E0"></path>
                <path d="M125.407791,41.5225468 L124.705071,41.3915068 L117.612351,26.1469468 C115.867791,25.8949468 114.231951,25.2512668 112.814271,24.2915068 C111.453471,25.7646268 109.582191,26.7798268 107.432991,27.0231868 C104.846751,27.3155068 102.403071,26.4306268 100.621071,24.8034268 C98.644671,26.5415068 96.139791,27.7179868 93.326031,28.0362268 C90.108351,28.4005468 87.029631,27.5862268 84.517551,25.9388668 L79.577631,52.3297468 C78.895071,55.9751068 79.643871,59.5499068 81.407871,62.5019068 C83.163951,66.8442268 86.939631,70.2548668 91.797471,71.3730268 L91.797471,88.8013468 C91.797471,94.8558268 96.751071,99.8087068 102.804831,99.8087068 L106.276671,99.8087068 C112.330431,99.8087068 117.284031,94.8558268 117.284031,88.8013468 L117.284031,69.0121468 C119.069631,67.0508668 120.361311,64.5963868 120.884751,61.7977468 L121.786911,56.9787868 L122.490351,57.1105468 C126.660591,57.8910268 130.711311,55.1175868 131.491791,50.9473468 L131.570991,50.5247068 C132.351471,46.3544668 129.578031,42.3037468 125.407791,41.5225468" id="Fill-102" fill="#F4BE99"></path>
                <path d="M106.270911,77.8616668 L102.754431,77.8616668 C98.400591,77.8616668 94.626351,75.2927068 92.845071,71.6012668 L92.397951,71.5170268 C92.195631,71.4795868 91.995471,71.4378268 91.797471,71.3924668 L91.797471,71.3730268 C86.948991,70.2570268 83.178351,66.8579068 81.417951,62.5271068 C81.415071,62.5184668 81.411471,62.5105468 81.407871,62.5019068 C83.482191,65.9708668 86.964111,68.5758268 91.249551,69.3779068 L102.461391,71.4774268 C103.370031,71.6473468 104.273631,71.7294268 105.165711,71.7294268 C112.058991,71.7287068 118.195551,66.8276668 119.509551,59.8055068 L120.153951,56.3675068 L121.786911,56.9787868 L120.884751,61.7977468 C120.361311,64.5963868 119.069631,67.0508668 117.284031,69.0121468 L117.284031,69.0272668 C117.183951,69.1374268 117.082431,69.2454268 116.979471,69.3519868 C115.839711,74.2112668 111.465711,77.8616668 106.270911,77.8616668" id="Fill-104" fill="#EFA88D"></path>
                <path d="M126.024831,51.8595868 C125.947071,51.8595868 125.869311,51.8351068 125.803791,51.7839868 L123.002991,49.6095868 C122.919471,49.5455068 122.869071,49.4475868 122.864031,49.3424668 C122.858271,49.2380668 122.900031,49.1358268 122.976351,49.0631068 L126.430911,45.8029468 C126.574911,45.6668668 126.804591,45.6726268 126.939231,45.8173468 C127.076031,45.9620668 127.069551,46.1895868 126.924831,46.3263868 L123.776271,49.2985468 L126.245871,51.2151868 C126.402111,51.3375868 126.430911,51.5636668 126.308511,51.7206268 C126.238671,51.8120668 126.131391,51.8595868 126.024831,51.8595868" id="Fill-105" fill="#E98772"></path>
                <path d="M108.209871,38.4632668 C107.669151,38.4474268 107.111871,38.1198268 106.556031,37.8339868 C106.001631,37.5344668 105.437871,37.2471868 104.939631,37.0146268 C104.439231,36.7820668 103.856751,36.5343868 103.270671,36.3025468 C102.694671,36.0599068 102.082671,35.8424668 101.729151,35.4414268 C101.384991,35.0605468 101.452671,34.4600668 102.258351,34.0583068 C103.025151,33.6587068 104.586111,33.5636668 106.241391,34.3304668 C107.890911,35.1044668 108.802431,36.3522268 108.970191,37.1874268 C109.159551,38.0528668 108.727551,38.4841468 108.209871,38.4632668" id="Fill-106" fill="#16171B"></path>
                <path d="M85.300911,36.4890268 C85.767471,36.7460668 86.411151,36.7806268 87.033231,36.8468668 C87.660351,36.9008668 88.289631,36.9692668 88.833951,37.0455868 C89.379711,37.1219068 90.004671,37.2284668 90.622431,37.3487068 C91.238031,37.4567068 91.870911,37.5999868 92.381391,37.4797468 C92.873871,37.3695868 93.133071,36.8929468 92.662191,36.1959868 C92.223711,35.5206268 90.950031,34.6746268 89.144271,34.4175868 C87.339231,34.1691868 85.910751,34.6371868 85.328271,35.1692668 C84.711951,35.7143068 84.850191,36.2463868 85.300911,36.4890268" id="Fill-107" fill="#16171B"></path>
                <path d="M102.914271,44.6178268 L102.963231,44.6271868 C103.444911,44.7171868 103.912191,44.3967868 104.002911,43.9151068 L104.216031,42.7746268 C104.306751,42.2929468 103.985631,41.8249468 103.504671,41.7349468 L103.455711,41.7255868 C102.974031,41.6355868 102.506031,41.9559868 102.416031,42.4376668 L102.202191,43.5781468 C102.112191,44.0598268 102.432591,44.5278268 102.914271,44.6178268" id="Fill-108" fill="#16171B"></path>
                <path d="M87.395391,42.0963868 L87.443631,42.1050268 C87.925311,42.1950268 88.393311,41.8746268 88.483311,41.3936668 L88.696431,40.2531868 C88.787151,39.7715068 88.466751,39.3035068 87.985071,39.2135068 L87.936111,39.2041468 C87.455151,39.1141468 86.987151,39.4338268 86.896431,39.9155068 L86.683311,41.0567068 C86.592591,41.5383868 86.913711,42.0056668 87.395391,42.0963868" id="Fill-109" fill="#16171B"></path>
                <path d="M106.864191,49.1091868 C106.823151,49.1091868 106.782111,49.1070268 106.741071,49.1027068 L103.554351,48.7441468 C102.951711,48.6764668 102.513231,48.1271068 102.580911,47.5244668 L102.588111,47.4632668 C102.651471,46.9009468 103.131711,46.4833468 103.685391,46.4833468 C103.725711,46.4833468 103.766751,46.4855068 103.807791,46.4898268 L106.993791,46.8483868 C107.597151,46.9160668 108.035631,47.4654268 107.967231,48.0680668 L107.960031,48.1292668 C107.897391,48.6908668 107.416431,49.1091868 106.864191,49.1091868" id="Fill-110" fill="#F2B292"></path>
                <path d="M85.850991,45.7993468 C85.809951,45.7993468 85.768911,45.7971868 85.727871,45.7921468 L82.541871,45.4335868 C81.938511,45.3659068 81.500751,44.8172668 81.569151,44.2146268 L81.574911,44.1534268 C81.638991,43.5918268 82.119231,43.1727868 82.672191,43.1727868 C82.712511,43.1727868 82.753551,43.1749468 82.795311,43.1799868 L85.981311,43.5378268 C86.584671,43.6062268 87.022431,44.1555868 86.954031,44.7582268 L86.947551,44.8194268 C86.884191,45.3810268 86.403231,45.7993468 85.850991,45.7993468" id="Fill-111" fill="#F2B292"></path>
                <path d="M91.826991,61.7336668 C91.716111,61.7336668 91.606671,61.6825468 91.536111,61.5860668 C91.418751,61.4255068 91.454031,61.2001468 91.614591,61.0827868 C93.123711,59.9804668 94.813551,60.5989468 95.496111,61.0791868 C95.658831,61.1936668 95.698431,61.4168668 95.584671,61.5795868 C95.470191,61.7415868 95.246271,61.7804668 95.083551,61.6688668 C95.019471,61.6242268 93.501711,60.5953468 92.039391,61.6645468 C91.975311,61.7113468 91.900431,61.7336668 91.826991,61.7336668" id="Fill-112" fill="#E98772"></path>
                <path d="M94.262031,51.4995868 L102.681711,50.2964668 L101.760111,53.2218268 C101.168991,55.0938268 99.433071,56.3675068 97.469631,56.3675068 C95.942511,56.3675068 94.660191,55.2162268 94.498191,53.6970268 L94.262031,51.4995868" id="Fill-113" fill="#FFFFFE"></path>
                <path d="M96.438591,48.5144668 L96.347871,48.5029468 L93.737151,47.8232668 C92.629791,47.5352668 91.736991,46.7663068 91.286271,45.7151068 C90.836271,44.6631868 90.896031,43.4859868 91.451151,42.4866268 L95.426991,35.3298268 C95.524911,35.1548668 95.743791,35.0936668 95.916591,35.1901468 C96.090831,35.2866268 96.153471,35.5055068 96.056991,35.6797468 L92.081151,42.8358268 C91.634031,43.6400668 91.586511,44.5861468 91.948671,45.4314268 C92.310831,46.2774268 93.028671,46.8951868 93.918591,47.1263068 L96.529311,47.8059868 C96.722271,47.8563868 96.837471,48.0529468 96.786351,48.2451868 C96.745311,48.4071868 96.599151,48.5144668 96.438591,48.5144668" id="Fill-114" fill="#E98772"></path>
            </g>
            <g id="Group-74" transform="translate(284.000000, 193.593760)">
                <mask id="mask-2" fill="white">
                    <use xlink:href="#path-1"></use>
                </mask>
                <g id="Clip-73"></g>
                <polygon id="Fill-72" fill="#F2B292" mask="url(#mask-2)" points="0.59832 0.63504 1.6056 0.63504 1.6056 0.60408 0.59832 0.60408"></polygon>
            </g>
            <path d="M286.0808,194.24248 C285.9152,194.23816 285.7748,194.23312 285.64232,194.22952 C285.88856,194.23672 286.0808,194.24248 286.0808,194.24248" id="Fill-75" fill="#F2B292"></path>
            <path d="M304.27088,165.00328 L295.32704,164.96728 L295.3508,164.8852 C299.44544,164.8888 300.93224,164.9752 304.27088,165.00328" id="Fill-76" fill="#BBBAD2"></path>
            <polyline id="Fill-78" fill="#F2B292" points="285.61568 194.2288 285.6056 194.2288 285.61568 194.2288"></polyline>
            <path d="M301.55432,143.30392 L305.75192,128.70088 C305.4236,129.84208 301.694,142.81936 301.55576,143.30032 C301.55504,143.30176 301.55504,143.3032 301.55432,143.30392" id="Fill-85" fill="#CAC4D8"></path>
            <path d="M430.03616,236.77576 C430.03616,236.77576 430.03616,236.77576 430.03544,236.77576 L430.03616,236.77576" id="Fill-89" fill="#FDEAE6"></path>
            <polyline id="Fill-93" fill="#A4816D" points="396.5576 221.43328 396.52592 221.41816 400.3196 220.95448 396.5576 221.43328"></polyline>
            <path d="M396.53024,221.43616 C396.5288,221.4304 396.52736,221.42464 396.52592,221.41816 L396.5576,221.43328 L396.53024,221.43616" id="Fill-94" fill="#A37A69"></path>
            <path d="M430.32056,238.2172 C430.31552,238.1884 430.2968,238.09696 430.26368,237.93064 C430.29104,238.06816 430.31336,238.1776 430.32056,238.2172" id="Fill-95" fill="#F2B292"></path>
            <path d="M430.03976,236.79448 L430.03976,236.79448 C430.03832,236.788 430.0376,236.78224 430.03616,236.77648 C430.03616,236.77792 430.0376,236.78368 430.03976,236.79448" id="Fill-96" fill="#FDEAE6"></path>
            <path d="M430.18808,237.54544 C430.14776,237.34456 430.10096,237.10696 430.03976,236.79448 C430.05632,236.87728 430.12328,237.2164 430.18808,237.54544" id="Fill-97" fill="#F2B292"></path>
            <path d="M430.03616,236.77648 C430.03616,236.77576 430.03616,236.77576 430.03616,236.77576 L430.03616,236.77648" id="Fill-98" fill="#FDEAE6"></path>
            <path d="M430.26368,237.93064 C430.24352,237.82624 430.21976,237.70744 430.19528,237.58288 C430.22336,237.72328 430.2464,237.84064 430.26368,237.93064" id="Fill-99" fill="#F2B292"></path>
            <path d="M351.7088,148.24096 C346.85672,147.12568 343.0904,143.70856 341.32928,139.3756 C343.08968,143.7064 346.86032,147.10552 351.7088,148.22152 L351.7088,148.24096 M377.19536,145.87576 L377.19536,145.86064 C378.98096,143.89936 380.27264,141.44488 380.79608,138.64624 L381.69824,133.82728 L380.79608,138.64624 C380.27192,141.44848 378.98528,143.91304 377.19536,145.87576" id="Fill-103" fill="#D0B8C9"></path>
            <g id="Group" transform="translate(354.811886, 182.932277) scale(-1, 1) translate(-354.811886, -182.932277) translate(271.811886, 94.432277)">
                <path d="M163.266914,82.6965233 L134.423714,29.2163633 L131.022434,21.1919633 C131.022434,21.1919633 119.040194,-6.60363669 109.328114,1.56260331 C109.328114,1.56260331 109.343234,1.63964331 109.368434,1.76924331 C109.038674,1.36892331 108.645554,1.04996331 108.214994,0.850523305 C107.535314,0.537323305 106.782914,0.497723305 106.120514,0.808043305 C104.794994,1.42868331 104.313314,3.22292331 105.049874,4.79468331 L113.341394,22.4994833 C112.895714,21.8414033 111.426914,20.8535633 110.996354,20.4942833 C110.089154,19.7361233 109.120754,19.0463633 108.037874,18.5610833 C106.188914,17.7338033 103.966994,17.9922833 102.757394,19.7843633 C102.550034,20.0925233 102.380834,20.4633233 102.460754,20.8262033 C102.532754,21.1516433 102.786914,21.4000433 103.031714,21.6261233 C105.374594,23.7962033 107.960834,25.6912433 110.255474,27.9117233 C110.255474,27.9117233 110.768834,32.8775633 115.065794,35.8749233 C117.552674,37.6094033 118.767314,39.5778833 119.236034,40.4951633 L119.191394,40.5290033 L129.639314,76.8760433 L114.381074,77.0798033 L114.381074,106.151243 L148.124594,106.151243 C150.990194,106.151243 153.674354,105.381563 155.989154,104.043803 C156.100034,103.992683 156.211634,103.945883 156.322514,103.892603 C164.202194,100.050683 167.345714,90.4559633 163.266914,82.6965233" id="Fill-115" fill="#F4BE99"></path>
                <path d="M138.885554,106.151243 L138.885554,106.151243 L118.517474,77.0243633 L118.534034,77.0243633 C120.070514,77.0243633 121.221074,77.0034833 122.215394,76.9746833 L129.639314,76.8760433 L129.615554,76.7932433 C129.642914,76.7932433 129.670274,76.7925233 129.697634,76.7925233 C131.044754,85.0559633 138.885554,106.151243 138.885554,106.151243 M139.090754,106.144763 C139.119554,106.144043 139.148354,106.143323 139.175714,106.141883 C139.146194,106.143323 139.117394,106.144043 139.090754,106.144763 M139.352834,106.136843 C139.380194,106.136123 139.406834,106.135403 139.432754,106.134683 C139.406114,106.135403 139.378754,106.136123 139.352834,106.136843 M139.469474,106.133243 C139.504754,106.132523 139.539314,106.131083 139.572434,106.130363 C139.537874,106.131083 139.503314,106.132523 139.469474,106.133243 M139.583234,106.129643 C140.162114,106.112363 140.373074,106.105883 140.373074,106.105883 C140.373074,106.105883 139.969874,106.118123 139.583234,106.129643" id="Fill-117" fill="#F2B292"></path>
                <path d="M121.396754,24.3088433 C121.286594,24.3088433 121.177154,24.2584433 121.106594,24.1626833 C117.867314,19.7692433 113.673314,22.0329233 113.496914,22.1315633 C113.323394,22.2280433 113.104514,22.1668433 113.007314,21.9933233 C112.910114,21.8198033 112.972034,21.6009233 113.144834,21.5037233 C113.193794,21.4763633 118.063874,18.8231633 121.686194,23.7350033 C121.804274,23.8948433 121.769714,24.1209233 121.609874,24.2382833 C121.545794,24.2858033 121.470914,24.3088433 121.396754,24.3088433" id="Fill-118" fill="#E98772"></path>
                <path d="M109.478594,1.40996331 C110.352674,2.28260331 111.146834,3.20924331 111.904274,4.17476331 C112.655954,5.14172331 113.360114,6.14900331 113.990114,7.20524331 C114.610754,8.26724331 115.163714,9.37388331 115.603634,10.5345233 C116.019794,11.7030833 116.314994,12.9234833 116.413634,14.1813233 C116.429474,14.3800433 116.280434,14.5535633 116.083154,14.5686833 C115.884434,14.5845233 115.710914,14.4362033 115.695794,14.2382033 L115.695074,14.2331633 L115.694354,14.2173233 C115.624514,13.0451633 115.371074,11.8823633 114.993794,10.7519633 C114.593474,9.62876331 114.078674,8.54300331 113.493314,7.49396331 C112.898594,6.44924331 112.226114,5.44628331 111.505394,4.47932331 C110.781794,3.51668331 110.007794,2.57852331 109.177634,1.71596331 L109.172594,1.71092331 C109.090514,1.62524331 109.093394,1.48916331 109.178354,1.40708331 C109.262594,1.32572331 109.395794,1.32788331 109.478594,1.40996331" id="Fill-119" fill="#E98772"></path>
                <path d="M111.912914,0.0246833052 C113.086514,0.632363305 113.947634,1.53596331 114.752594,2.48636331 C115.543154,3.44612331 116.231474,4.48436331 116.821874,5.57084331 C117.433154,6.64796331 117.937154,7.77692331 118.417394,8.91452331 L119.071874,10.6454033 L119.654354,12.4007633 C119.716274,12.5901233 119.614034,12.7931633 119.425394,12.8558033 C119.236754,12.9184433 119.032994,12.8162033 118.970354,12.6275633 L118.968914,12.6225233 L118.963874,12.6066833 L118.423874,10.8678833 L117.811154,9.15500331 C117.361154,8.03036331 116.886674,6.91292331 116.309954,5.85020331 C115.751954,4.77668331 115.100354,3.75428331 114.352994,2.81180331 C113.609954,1.88588331 112.738034,0.977243305 111.738674,0.437243305 L111.704834,0.418523305 C111.596834,0.360203305 111.556514,0.224843305 111.614834,0.116843305 C111.672434,0.0102833052 111.805634,-0.0307566948 111.912914,0.0246833052" id="Fill-120" fill="#E98772"></path>
                <path d="M115.868594,0.634523305 C116.676434,1.28684331 117.391394,2.00900331 118.066754,2.77796331 C118.741394,3.54548331 119.362034,4.36124331 119.916434,5.22164331 C120.475154,6.07844331 120.979874,6.97412331 121.398194,7.91156331 C121.840274,8.83964331 122.164274,9.81812331 122.460194,10.8038033 C122.517794,10.9946033 122.409794,11.1954833 122.218994,11.2523633 C122.028914,11.3092433 121.828034,11.2012433 121.770434,11.0111633 L121.768994,11.0046833 L121.763954,10.9859633 C121.501874,10.0326833 121.214594,9.08012331 120.808514,8.17292331 C120.426194,7.25564331 119.958194,6.37436331 119.435474,5.52692331 C118.917074,4.67588331 118.330994,3.86516331 117.690914,3.09980331 C117.053714,2.33516331 116.358194,1.60076331 115.610114,0.965723305 L115.600754,0.957803305 C115.512914,0.882923305 115.501394,0.750443305 115.576274,0.661883305 C115.650434,0.575483305 115.780034,0.563243305 115.868594,0.634523305" id="Fill-121" fill="#E98772"></path>
                <path d="M122.146274,50.8077233 C122.146274,50.8077233 120.871874,44.4753233 119.253314,40.7450033 L119.191394,40.5290033 L119.236034,40.4951633 C119.091314,40.2107633 118.873874,39.8255633 118.569314,39.3770033 C118.348274,39.0062033 118.123634,38.7002033 117.897554,38.4791633 C117.896114,38.4770033 117.894674,38.4755633 117.893234,38.4741233 L129.038834,37.0982033 L122.146274,50.8077233" id="Fill-123" fill="#F2B292"></path>
                <path d="M73.1013145,77.0798033 L73.1027545,77.0920433 C72.9306745,77.0884433 72.7607545,77.0798033 72.5872345,77.0798033 L37.3677145,77.0798033 C29.7205945,77.0798033 23.1988345,81.8807633 20.6421145,88.6322033 L20.6385145,88.6307633 L20.5852345,88.7769233 L5.58043449,129.679403 L19.4857945,131.380043 L19.4857945,176.724923 L95.1664345,176.724923 L100.825634,106.151243 L113.990834,106.151243 L113.990834,76.9372433 L73.1013145,77.0798033" id="Fill-124" fill="#FFFFFE"></path>
                <polyline id="Fill-125" fill="#AABBD6" points="114.381074 106.151243 101.216594 106.151243 113.990834 106.151243 113.990834 76.9386833 114.381074 76.9372433 114.381074 106.151243"></polyline>
                <path d="M113.990834,106.151243 L101.216594,106.151243 L101.278514,105.380123 C101.278514,90.1514033 89.2487545,77.7378833 74.1748345,77.1100433 L74.1741145,77.1050033 L113.990834,76.9386833 L113.990834,106.151243" id="Fill-126" fill="#F5F5F3"></path>
                <path d="M100.338194,108.070043 L86.1145945,105.248363 C84.4305145,104.913563 82.7788345,106.018763 82.4440345,107.702843 L75.9208345,140.583083 C75.5860345,142.267883 76.6912345,143.919563 78.3753145,144.254363 L84.1979545,145.409243 L92.5996345,147.076043 C94.2844345,147.410123 95.9361145,146.304923 96.2701945,144.620843 L102.794114,111.740603 C103.127474,110.056523 102.022994,108.404843 100.338194,108.070043" id="Fill-127" fill="#16171B"></path>
                <path d="M101.829314,127.181723 C101.652194,126.808763 101.370674,126.512843 101.032994,126.306923 C100.972514,126.217643 100.922834,126.128363 100.858034,126.038363 C100.858034,126.038363 100.729874,126.054203 100.517474,126.081563 C100.270514,126.008843 100.009154,125.975003 99.7434745,125.995163 C96.8865145,126.218363 90.0119545,126.754763 85.8042745,127.083083 C83.5305145,127.260923 81.2567545,126.787883 79.2414745,125.720123 L78.9052345,125.540843 L79.6029145,122.023643 C78.8505145,122.945963 78.0865945,123.856763 77.2758745,124.717883 C76.8647545,124.740923 74.5182745,124.948283 72.3229945,126.585563 C71.5086745,127.159403 70.7073145,127.921163 70.0247545,128.940683 C69.1679545,130.221563 68.2427545,131.105723 67.4478745,131.709083 C66.9827545,132.044603 66.5687545,132.282923 66.2562745,132.439883 L66.2289145,132.401003 L34.5244345,140.249723 L34.3789945,140.285723 L35.9881945,133.147643 L6.81667449,129.613163 L0.40291449,157.544123 C-1.54324551,166.017803 3.74875449,174.464843 12.2224345,176.411003 C15.2622745,177.108683 18.2913145,176.717003 20.9229145,175.511723 C21.4377145,175.328843 21.9474745,175.117883 22.4514745,174.876683 L76.1152345,148.462043 L83.3893945,145.735403 C83.3893945,145.735403 83.6838745,145.623083 84.1979545,145.409243 L84.0913945,145.388363 C87.4105945,144.036203 106.021154,135.992363 101.829314,127.181723" id="Fill-128" fill="#F4BE99"></path>
                <path d="M2.44915449,148.632683 L2.45635449,148.601003 L35.7419545,133.315403 L35.7858745,133.321163 C34.7965945,137.631803 34.9845145,137.378363 34.3293145,140.394443 L11.4858745,146.050043 C11.0387545,146.170283 10.6053145,146.313563 10.1797945,146.469083 C6.21115449,147.521723 3.18787449,148.412363 2.44915449,148.632683" id="Fill-131" fill="#F2B292"></path>
                <path d="M38.4923545,133.652363 L38.4477145,133.649483 L35.9442745,133.340603 L35.9881945,133.147643 L31.7934745,132.639323 C31.7718745,132.585323 31.7632345,132.524843 31.7711545,132.462923 C31.7934745,132.281483 31.9504345,132.146843 32.1261145,132.146843 C32.1412345,132.146843 32.1570745,132.147563 32.1721945,132.149723 L38.1899545,132.892043 L41.5408345,111.512363 C41.5689145,111.333083 41.7229945,111.208523 41.8993945,111.208523 C41.9166745,111.208523 41.9346745,111.209963 41.9526745,111.212123 C42.1485145,111.243083 42.2831545,111.427403 42.2521945,111.623243 L38.8480345,133.347803 C38.8199545,133.524923 38.6673145,133.652363 38.4923545,133.652363" id="Fill-134" fill="#A8A8A8"></path>
                <path d="M35.9442745,133.340603 L35.7858745,133.321163 C35.7880345,133.311803 35.7901945,133.301723 35.7923545,133.292363 L35.7419545,133.315403 L32.0843545,132.863963 C31.9489945,132.848123 31.8402745,132.758123 31.7934745,132.639323 L35.9881945,133.147643 L35.9442745,133.340603" id="Fill-135" fill="#A4816D"></path>
                <path d="M46.0321945,137.400683 L52.8477145,135.713723 L66.7465945,132.320363 C67.2095545,134.803643 63.5145145,137.078123 60.8404345,137.078123 C60.6532345,137.078123 60.4703545,137.066603 60.2946745,137.043563 L46.0321945,137.400683" id="Fill-138" fill="#F3B795"></path>
                <path d="M91.2553945,67.8825233 L86.3687545,34.6264433 C85.8337945,30.9825233 84.7746745,27.5474033 83.2907545,24.3750833 L85.9432345,23.9488433 C85.9432345,23.9488433 84.0805945,-3.04395669 53.8067545,3.40076331 C50.8252345,3.09260331 47.7573145,3.14444331 44.6555545,3.60020331 C29.9481145,5.76092331 19.7766745,19.4351633 21.9381145,34.1426033 L24.7864345,53.5286033 C26.9471545,68.2360433 40.6213945,78.4067633 55.3288345,76.2460433 L88.6785145,71.3457233 C90.3467545,71.1002033 91.5001945,69.5500433 91.2553945,67.8825233" id="Fill-139" fill="#16171B"></path>
                <path d="M71.1717145,22.8904433 C70.9945945,22.8904433 70.8405145,22.7594033 70.8153145,22.5794033 C70.7886745,22.3821233 70.9261945,22.2006833 71.1234745,22.1733233 L80.8585945,20.8434833 C80.9363545,20.8334033 81.0076345,20.7909233 81.0537145,20.7261233 C81.0796345,20.6908433 81.1199545,20.6166833 81.1033945,20.5209233 C79.5294745,11.7455633 71.4453145,7.69700331 71.3639545,7.65740331 C71.1853945,7.57028331 71.1112345,7.35428331 71.1983545,7.17572331 C71.2861945,6.99716331 71.5029145,6.92300331 71.6800345,7.01084331 C71.7642745,7.05188331 80.1717145,11.2509233 81.8118745,20.3934833 C81.8593945,20.6598833 81.7974745,20.9284433 81.6361945,21.1494833 C81.4749145,21.3719633 81.2272345,21.5202833 80.9557945,21.5577233 L71.2206745,22.8868433 L71.1717145,22.8904433" id="Fill-140" fill="#FDF1E0"></path>
                <path d="M80.5497145,24.8150033 L53.9010745,29.0968433 L47.4333145,19.5309233 C48.7033945,30.2042033 40.8337945,37.0982033 40.8337945,37.0982033 C40.8337945,37.0982033 40.7531545,36.9880433 40.6134745,36.7857233 L40.3924345,36.8267633 C36.2221945,37.6072433 33.4487545,41.6586833 34.2292345,45.8282033 C35.0097145,49.9991633 39.0604345,52.7718833 43.2306745,51.9914033 L43.7404345,51.8963633 C44.6512345,55.8952433 46.7053945,59.3591633 49.5069145,61.9900433 L49.5069145,79.0691633 C49.5069145,85.1229233 54.4605145,90.0765233 60.5142745,90.0765233 C66.5687545,90.0765233 71.5216345,85.1229233 71.5216345,79.0691633 L71.5216345,65.5814033 C75.9064345,63.5632433 79.3393945,60.0388433 81.2992345,55.7771633 L81.3114745,55.7577233 C83.6932345,51.7674833 84.6897145,46.9283633 83.7673945,42.0014033 L80.5497145,24.8150033" id="Fill-141" fill="#F4BE99"></path>
                <path d="M60.5142745,72.0326033 C54.8025145,72.0326033 50.0757145,67.6218833 49.5587545,62.0390033 C49.5414745,62.0231633 49.5241945,62.0066033 49.5069145,61.9907633 L49.5069145,61.9900433 C46.7327545,59.3843633 44.6908345,55.9622033 43.7670745,52.0122833 C43.8664345,51.8704433 44.7073945,51.6530033 45.1998745,51.6530033 C45.3885145,51.6530033 45.5260345,51.6846833 45.5519545,51.7646033 C48.1972345,59.9128433 55.8335545,65.4042833 64.3209145,65.4035633 C65.5261945,65.4035633 66.7501945,65.2926833 67.9785145,65.0622833 C73.7694745,63.9779633 78.4905145,60.4694033 81.2963545,55.7829233 C80.5900345,57.3179633 79.6921945,58.7579633 78.6273145,60.0654833 C76.4608345,62.7230033 73.6045945,64.8354833 70.2652345,66.1019633 C68.4213145,69.6170033 64.7392345,72.0326033 60.5142745,72.0326033" id="Fill-143" fill="#EFA88D"></path>
                <path d="M39.5860345,46.9312433 C39.4787545,46.9312433 39.3729145,46.8837233 39.3016345,46.7922833 C39.1799545,46.6353233 39.2080345,46.4092433 39.3649945,46.2868433 L41.7597145,44.4292433 L38.7033145,41.5456433 C38.5593145,41.4095633 38.5521145,41.1813233 38.6889145,41.0366033 C38.8257145,40.8926033 39.0532345,40.8861233 39.1979545,41.0222033 L42.5589145,44.1945233 C42.6352345,44.2665233 42.6762745,44.3687633 42.6719545,44.4731633 C42.6661945,44.5782833 42.6157945,44.6762033 42.5329945,44.7402833 L39.8070745,46.8556433 C39.7408345,46.9067633 39.6630745,46.9312433 39.5860345,46.9312433" id="Fill-144" fill="#E98772"></path>
                <path d="M58.7603545,33.8056433 C59.0814745,33.7970033 59.4119545,33.6018833 59.7424345,33.4326833 C60.0707545,33.2548433 60.4055545,33.0842033 60.7014745,32.9459633 C60.9981145,32.8077233 61.3444345,32.6608433 61.6921945,32.5233233 C62.0341945,32.3793233 62.3977945,32.2504433 62.6073145,32.0121233 C62.8117945,31.7860433 62.7714745,31.4296433 62.2933945,31.1906033 C61.8383545,30.9537233 60.9109945,30.8975633 59.9281945,31.3526033 C58.9497145,31.8119633 58.4082745,32.5528433 58.3081945,33.0489233 C58.1965945,33.5622833 58.4521945,33.8178833 58.7603545,33.8056433" id="Fill-145" fill="#16171B"></path>
                <path d="M77.8597945,30.4842833 C77.5487545,30.5634833 77.1772345,30.4684433 76.8129145,30.3964433 C76.4478745,30.3165233 76.0792345,30.2452433 75.7559545,30.1948433 C75.4326745,30.1437233 75.0597145,30.0983633 74.6874745,30.0623633 C74.3188345,30.0184433 73.9343545,29.9946833 73.6665145,29.8240433 C73.4080345,29.6627633 73.3475545,29.3092433 73.7406745,28.9478033 C74.1129145,28.5942833 74.9884345,28.2839633 76.0583545,28.4495633 C77.1268345,28.6202033 77.8511545,29.1825233 78.0844345,29.6310833 C78.3342745,30.0940433 78.1593145,30.4108433 77.8597945,30.4842833" id="Fill-146" fill="#16171B"></path>
                <path d="M67.0698745,48.7024433 C64.1157145,48.7024433 62.1450745,46.3847633 62.1205945,46.3545233 C61.9938745,46.2018833 62.0147545,45.9750833 62.1673945,45.8476433 C62.3200345,45.7216433 62.5468345,45.7410833 62.6735545,45.8937233 C62.7887545,46.0305233 65.5204345,49.2215633 69.3371545,47.4597233 C69.5178745,47.3754833 69.7317145,47.4546833 69.8152345,47.6354033 C69.8987545,47.8161233 69.8195545,48.0299633 69.6388345,48.1134833 C68.7244345,48.5354033 67.8611545,48.7024433 67.0698745,48.7024433" id="Fill-147" fill="#E98772"></path>
                <path d="M69.2190745,43.6768433 C69.0498745,43.6768433 68.8993945,43.5580433 68.8655545,43.3866833 C68.8273945,43.1915633 68.9548345,43.0022033 69.1499545,42.9640433 L71.6814745,42.4658033 C73.2553945,42.1554833 74.2828345,40.6240433 73.9732345,39.0508433 C73.8616345,38.4820433 73.3079545,38.1126833 72.7398745,38.2228433 C71.4085945,38.4827633 70.1147545,37.6151633 69.8526745,36.2853233 L69.2413945,33.1792433 C69.2032345,32.9841233 69.3299545,32.7947633 69.5250745,32.7566033 C69.7201945,32.7184433 69.9102745,32.8451633 69.9484345,33.0402833 L70.5597145,36.1456433 C70.7440345,37.0866833 71.6620345,37.7008433 72.6009145,37.5158033 C73.0667545,37.4258033 73.5369145,37.5201233 73.9293145,37.7829233 C74.3224345,38.0464433 74.5888345,38.4474833 74.6802745,38.9111633 C75.0661945,40.8738833 73.7838745,42.7854833 71.8204345,43.1721233 L69.2889145,43.6703633 L69.2190745,43.6768433" id="Fill-148" fill="#E98772"></path>
                <path d="M62.0464345,39.8810033 L62.0464345,39.8810033 C61.5647545,39.9710033 61.0967545,39.6506033 61.0067545,39.1689233 L60.8080345,38.1069233 C60.7180345,37.6252433 61.0377145,37.1572433 61.5193945,37.0672433 C62.0010745,36.9772433 62.4690745,37.2969233 62.5590745,37.7786033 L62.7585145,38.8413233 C62.8485145,39.3230033 62.5281145,39.7902833 62.0464345,39.8810033" id="Fill-149" fill="#16171B"></path>
                <path d="M77.1448345,37.4272433 L77.1448345,37.4272433 C76.6631545,37.5179633 76.1951545,37.1975633 76.1051545,36.7158833 L75.9064345,35.6531633 C75.8157145,35.1714833 76.1361145,34.7042033 76.6177945,34.6134833 C77.0994745,34.5234833 77.5674745,34.8438833 77.6574745,35.3255633 L77.8561945,36.3875633 C77.9461945,36.8692433 77.6257945,37.3372433 77.1448345,37.4272433" id="Fill-150" fill="#16171B"></path>
                <path d="M58.2541945,44.2427633 C57.7012345,44.2427633 57.2202745,43.8244433 57.1576345,43.2628433 C57.0899545,42.6594833 57.5277145,42.1108433 58.1303545,42.0431633 L61.1709145,41.7011633 C61.2119545,41.6968433 61.2537145,41.6939633 61.2940345,41.6939633 C61.8469945,41.6939633 62.3272345,42.1122833 62.3905945,42.6746033 C62.4582745,43.2772433 62.0205145,43.8258833 61.4171545,43.8942833 L58.3773145,44.2355633 C58.3362745,44.2406033 58.2945145,44.2427633 58.2541945,44.2427633" id="Fill-151" fill="#F2B292"></path>
                <path d="M78.6971545,41.0229233 C78.1441945,41.0229233 77.6632345,40.6038833 77.5998745,40.0422833 C77.5321945,39.4396433 77.9699545,38.8902833 78.5733145,38.8226033 L81.6138745,38.4813233 C81.6549145,38.4762833 81.6959545,38.4741233 81.7369945,38.4741233 C82.2892345,38.4741233 82.7701945,38.8924433 82.8328345,39.4540433 C82.9012345,40.0574033 82.4627545,40.6060433 81.8601145,40.6737233 L78.8202745,41.0157233 C78.7785145,41.0200433 78.7374745,41.0229233 78.6971545,41.0229233" id="Fill-152" fill="#F2B292"></path>
                <path d="M72.8557945,56.5382033 C72.7823545,56.5382033 72.7081945,56.5151633 72.6441145,56.4683633 C71.2271545,55.4322833 69.7561945,56.4302033 69.6942745,56.4726833 C69.5308345,56.5864433 69.3076345,56.5461233 69.1938745,56.3841233 C69.0801145,56.2214033 69.1189945,55.9974833 69.2809945,55.8830033 C69.9477145,55.4142833 71.5972345,54.8109233 73.0689145,55.8873233 C73.2294745,56.0046833 73.2640345,56.2300433 73.1473945,56.3906033 C73.0768345,56.4870833 72.9673945,56.5382033 72.8557945,56.5382033" id="Fill-153" fill="#E98772"></path>
                <g id="Mask" transform="translate(64.468114, 113.441483) scale(-1, 1) translate(-64.468114, -113.441483) translate(50.468114, 98.441483)" fill="#FF6D40" fill-rule="nonzero">
                    <g id="Logo1">
                        <path d="M17.1641487,6.69405869 L18.9496377,2.41980495 C24.0298896,4.45897365 27.6172051,9.43038385 27.6172051,15.2396565 C27.6172051,22.8659371 21.4348831,29.048259 13.8086025,29.048259 C12.249402,29.048259 10.7505594,28.7898366 9.3525689,28.3134867 L12.5820656,24.3520925 C12.9867109,24.4065776 13.3997109,24.434712 13.819282,24.434712 C18.8916728,24.434712 23.003658,20.3227267 23.003658,15.250336 C23.003658,11.3581228 20.5825211,8.03139646 17.1641487,6.69405869 Z M14.1809585,6.07295077 C14.0609759,6.06830455 13.9404028,6.06595997 13.819282,6.06595997 C8.74689124,6.06595997 4.63490603,10.1779452 4.63490603,15.250336 C4.63490603,19.0832848 6.98287415,22.3678364 10.3189659,23.7441462 L8.21912664,27.8702038 C3.37748822,25.7244348 0,20.8764728 0,15.2396565 C0,7.61337587 6.18232193,1.43105394 13.8086025,1.43105394 C15.1002003,1.43105394 16.3503805,1.60838328 17.5361251,1.94002377 L14.1809621,6.07295089 L14.1809585,6.07295077 Z" id="Combined-Shape"></path>
                        <polygon id="Path-Copy" points="7.88940235 14.5937131 19.5707805 0 14.0248625 13.1501442 20.1768425 14.5937131 7.62516798 29.8036672 14.7259555 16.0329436"></polygon>
                    </g>
                </g>
            </g>
            <path d="M193.02728,171.40696 C195.36584,171.34 196.8368,171.22696 200.42744,171.22552 L200.4512,171.30832 L193.02728,171.40696" id="Fill-116" fill="#BBBAD2"></path>
            <path d="M190.0652,135.17728 C189.84344,134.66392 189.61448,134.20096 189.3812,133.80928 C189.68576,134.25784 189.9032,134.64304 190.04792,134.92744 L190.00328,134.96128 L190.0652,135.17728" id="Fill-122" fill="#CAC4D8"></path>
            <path d="M72.80672,244.5352 C72.8132,244.49848 72.8276,244.42648 72.85064,244.31344 C72.83048,244.41352 72.81536,244.49128 72.80672,244.5352" id="Fill-129" fill="#CAC5D8"></path>
            <path d="M73.0868,243.1168 L73.26824,243.03328 L73.26104,243.06496 C73.14656,243.0988 73.0868,243.1168 73.0868,243.1168" id="Fill-130" fill="#CAC5D8"></path>
            <path d="M72.8636,244.24576 C72.88808,244.12264 72.91616,243.97936 72.94496,243.83392 C72.91184,244.0024 72.88448,244.14064 72.8636,244.24576" id="Fill-132" fill="#CAC5D8"></path>
            <path d="M72.94496,243.83392 C73.01624,243.4732 73.0868,243.1168 73.0868,243.1168 C73.02848,243.412 72.98384,243.63808 72.94496,243.83392" id="Fill-133" fill="#CAC5D8"></path>
            <path d="M106.59776,227.75344 L106.55384,227.74768 L106.60424,227.72464 C106.60208,227.734 106.59992,227.74408 106.59776,227.75344" id="Fill-136" fill="#A37A69"></path>
            <polyline id="Fill-137" fill="#FFF7F5" points="116.73896 231.83584 123.6596 230.146 116.84408 231.83296 116.73896 231.83584"></polyline>
            <path d="M120.3188,156.42304 C117.5504,153.82384 115.49696,150.4168 114.5696,146.4784 C114.56744,146.4676 114.57032,146.4568 114.57896,146.44456 C115.50272,150.39448 117.54464,153.81664 120.3188,156.42232 L120.3188,156.42304 M149.4392,154.49776 C150.50408,153.19024 151.40192,151.75024 152.10824,150.2152 C152.11328,150.20728 152.11832,150.19864 152.12336,150.19 C151.41416,151.73512 150.51128,153.18304 149.4392,154.49776" id="Fill-142" fill="#563939"></path>
            <g id="Group-3" transform="translate(196.000000, 39.000000)">
                <g id="Group-8" transform="translate(66.000000, 41.000000) scale(-1, 1) translate(-66.000000, -41.000000) translate(15.000000, 0.000000)">
                    <g id="Group-2" transform="translate(19.287122, 0.000000)">
                        <path d="M81.77664,42.936791 C81.77664,64.3879526 64.3879526,81.7773158 42.936791,81.7773158 C21.4856294,81.7773158 4.09626624,64.3879526 4.09626624,42.936791 C4.09626624,21.4863053 21.4856294,4.09694208 42.936791,4.09694208 C64.3879526,4.09694208 81.77664,21.4863053 81.77664,42.936791" id="Fill-26" fill="#16171B"></path>
                        <path d="M77.6803738,38.8405248 C77.6803738,60.2916864 60.2910106,77.6810496 38.8405248,77.6810496 C17.3893632,77.6810496 -5.68434189e-15,60.2916864 -5.68434189e-15,38.8405248 C-5.68434189e-15,17.3893632 17.3893632,-9.09494702e-14 38.8405248,-9.09494702e-14 C60.2910106,-9.09494702e-14 77.6803738,17.3893632 77.6803738,38.8405248" id="Fill-27" fill="#F2AE50"></path>
                        <path d="M38.8405248,9.66180864 C22.7095757,9.66180864 9.58611456,22.7852698 9.58611456,38.9162189 C9.58611456,55.047168 22.7095757,68.1706291 38.8405248,68.1706291 C54.9707981,68.1706291 68.0942592,55.047168 68.0942592,38.9162189 C68.0942592,22.7852698 54.9707981,9.66180864 38.8405248,9.66180864 Z M38.8405248,70.1981491 C21.5917363,70.1981491 7.55859456,56.1650074 7.55859456,38.9162189 C7.55859456,21.6674304 21.5917363,7.63428864 38.8405248,7.63428864 C56.0893133,7.63428864 70.1217792,21.6674304 70.1217792,38.9162189 C70.1217792,56.1650074 56.0893133,70.1981491 38.8405248,70.1981491 L38.8405248,70.1981491 Z" id="Fill-28" fill="#FDF1E0"></path>
                        <path d="M67.0406246,36.4122317 L67.0406246,36.4122317 C67.0406246,31.0785024 62.7166003,26.7544781 57.382871,26.7544781 C62.7166003,26.7544781 67.0406246,22.4297779 67.0406246,17.0960486 C67.0406246,22.4297779 71.364649,26.7544781 76.6990541,26.7544781 C71.364649,26.7544781 67.0406246,31.0785024 67.0406246,36.4122317" id="Fill-37" fill="#FDF1E0"></path>
                    </g>
                    <path d="M37.0015642,20.8645325 C37.0015642,30.5702707 29.1334349,38.4384 19.4276966,38.4384 C9.7219584,38.4384 1.85315328,30.5702707 1.85315328,20.8645325 C1.85315328,11.1581184 9.7219584,3.28998912 19.4276966,3.28998912 C29.1334349,3.28998912 37.0015642,11.1581184 37.0015642,20.8645325" id="Fill-30" fill="#16171B"></path>
                    <path d="M35.1484109,19.0107034 C35.1484109,28.7171174 27.2802816,36.5852467 17.5738675,36.5852467 C7.86812928,36.5852467 0,28.7171174 0,19.0107034 C0,9.30496512 7.86812928,1.43616 17.5738675,1.43616 C27.2802816,1.43616 35.1484109,9.30496512 35.1484109,19.0107034" id="Fill-31" fill="#F2AE50"></path>
                    <path d="M17.5738675,5.80816896 C10.2747955,5.80816896 4.33686528,11.7460992 4.33686528,19.0451712 C4.33686528,26.3435674 10.2747955,32.2821734 17.5738675,32.2821734 C24.8729395,32.2821734 30.8108698,26.3435674 30.8108698,19.0451712 C30.8108698,11.7460992 24.8729395,5.80816896 17.5738675,5.80816896 Z M17.5738675,33.1992883 C9.7692672,33.1992883 3.4197504,26.8497715 3.4197504,19.0451712 C3.4197504,11.2405709 9.7692672,4.89105408 17.5738675,4.89105408 C25.3784678,4.89105408 31.7279846,11.2405709 31.7279846,19.0451712 C31.7279846,26.8497715 25.3784678,33.1992883 17.5738675,33.1992883 L17.5738675,33.1992883 Z" id="Fill-32" fill="#FDF1E0"></path>
                    <path d="M18.5565389,22.8846182 C19.5209626,22.7359334 20.0028365,22.3013683 20.0028365,21.5809229 L20.0028365,21.5403725 C20.0028365,21.187584 19.9014605,20.8990003 19.6973568,20.6746214 C19.493929,20.4502426 19.113431,20.2366771 18.5565389,20.0332493 L18.5565389,22.8846182 Z M16.6418842,13.7384755 C16.1532518,13.8067354 15.7964083,13.9527168 15.5727053,14.1764198 C15.3483264,14.4007987 15.2368128,14.6751898 15.2368128,15.0016205 L15.2368128,15.0421709 C15.2368128,15.354409 15.3314304,15.6227174 15.5220173,15.8470963 C15.7119283,16.0707994 16.084992,16.2850406 16.6418842,16.4884685 L16.6418842,13.7384755 Z M16.5398323,25.390633 C15.6571853,25.2818227 14.8056269,25.0614989 13.9838054,24.7283098 C13.161984,24.3957965 12.4118016,23.971369 11.7325824,23.455703 L13.3214822,21.132841 C13.8783744,21.5538893 14.4183706,21.9039744 14.9407949,22.1817446 C15.463895,22.4601907 16.0309248,22.6609152 16.6418842,22.7832422 L16.6418842,19.5439411 C15.9085978,19.3405133 15.2672256,19.1161344 14.7170918,18.8714803 C14.1669581,18.6275021 13.7114419,18.3355392 13.3525709,17.9955917 C12.9923482,17.65632 12.7206605,17.2596019 12.5375078,16.8040858 C12.3543552,16.3492454 12.262441,15.8234419 12.262441,15.2253235 L12.262441,15.1847731 C12.262441,14.6143642 12.3644928,14.0986982 12.5679206,13.6364237 C12.7713485,13.174825 13.0599322,12.7740518 13.4336717,12.4347802 C13.8067354,12.0955085 14.2588723,11.8204416 14.788055,11.6095795 C15.3179136,11.3993933 15.9018394,11.2601702 16.5398323,11.1919104 L16.5398323,10.0105421 L18.6585907,10.0105421 L18.6585907,11.2331366 C19.3918771,11.3419469 20.0677171,11.5217203 20.6854349,11.772457 C21.3031526,12.0245453 21.8904576,12.346921 22.4480256,12.7402598 L21.0828288,15.1232717 C20.6752973,14.8522598 20.2610074,14.610985 19.839959,14.4007987 C19.4189107,14.1899366 18.991104,14.0304384 18.5565389,13.9216282 L18.5565389,16.997376 C20.1048883,17.4184243 21.2288102,17.9685581 21.9283046,18.6477773 C22.627799,19.3269965 22.9772083,20.2366771 22.9772083,21.377495 L22.9772083,21.4180454 C22.9772083,21.9884544 22.8717773,22.5047962 22.661591,22.9663949 C22.450729,23.4286694 22.1587661,23.8287667 21.7857024,24.1680384 C21.4119629,24.5079859 20.9605018,24.786432 20.4306432,25.0033766 C19.9014605,25.2209971 19.3107763,25.3635994 18.6585907,25.4311834 L18.6585907,27.4478899 L16.5398323,27.4478899 L16.5398323,25.390633 L16.5398323,25.390633 Z" id="Fill-33" fill="#16171B" transform="translate(17.354895, 18.729216) scale(-1, 1) translate(-17.354895, -18.729216) "></path>
                    <path d="M59.9937492,48.4338423 C61.9149417,48.1405203 62.8748648,47.2832202 62.8748648,45.8619419 L62.8748648,45.781945 C62.8748648,45.085972 62.6729174,44.5166608 62.2663301,44.0740112 C61.8610891,43.6313617 61.1031134,43.2100447 59.9937492,42.808727 L59.9937492,48.4338423 Z M56.179637,30.3905416 C55.2062508,30.5252031 54.4953961,30.8131919 54.0497656,31.2545081 C53.6027888,31.6971576 53.3806467,32.23847 53.3806467,32.882445 L53.3806467,32.9624419 C53.3806467,33.5784181 53.5691309,34.1077309 53.9487919,34.5503804 C54.3271066,34.9916966 55.0702729,35.4143469 56.179637,35.8156647 L56.179637,30.3905416 Z M55.9763433,53.3776506 C54.2180551,53.1629923 52.5216973,52.7283425 50.8845775,52.0710346 C49.2474576,51.41506 47.7530472,50.5777592 46.4,49.5604653 L49.5651881,44.9779762 C50.6745522,45.8086107 51.7502584,46.4992506 52.7909605,47.0472293 C53.8330088,47.5965414 54.9625676,47.992526 56.179637,48.23385 L56.179637,41.843431 C54.7188845,41.4421133 53.4412309,40.9994637 52.34533,40.5168158 C51.249429,40.0355011 50.3420123,39.4595234 49.6271186,38.7888828 C48.9095324,38.1195754 48.3683135,37.336939 48.003462,36.4383072 C47.6386104,35.5410086 47.4555115,34.5037155 47.4555115,33.3237613 L47.4555115,33.2437644 C47.4555115,32.1184746 47.6588051,31.1011807 48.0640462,30.1892161 C48.4692872,29.2785847 49.044164,28.4879487 49.7886765,27.8186413 C50.5318428,27.1493339 51.4325279,26.6066883 52.4866931,26.1907044 C53.5422046,25.7760538 54.7054213,25.5013978 55.9763433,25.3667363 L55.9763433,23.03616 L60.1970429,23.03616 L60.1970429,25.4480665 C61.6577954,25.6627249 63.0041111,26.0173778 64.2346436,26.5120253 C65.4651761,27.0093393 66.6351244,27.6453147 67.7458348,28.4212846 L65.0262772,33.1224357 C64.2144489,32.5877898 63.3891574,32.1118082 62.5504027,31.6971576 C61.711648,31.2811738 60.8594302,30.9665193 59.9937492,30.7518609 L59.9937492,36.8196258 C63.0781584,37.6502602 65.3170814,38.7355515 66.7105181,40.0754996 C68.1039548,41.4154476 68.8,43.2100447 68.8,45.4606242 L68.8,45.5406211 C68.8,46.6659108 68.5899748,47.684538 68.1712706,48.5951693 C67.7512201,49.507134 67.1696117,50.2964367 66.4264455,50.9657441 C65.6819329,51.6363848 64.7825941,52.1856968 63.7270826,52.6136803 C62.6729174,53.0429969 61.4962375,53.3243194 60.1970429,53.4576475 L60.1970429,57.43616 L55.9763433,57.43616 L55.9763433,53.3776506 L55.9763433,53.3776506 Z" id="Fill-33-Copy" fill="#16171B" transform="translate(57.600000, 40.236160) scale(-1, 1) translate(-57.600000, -40.236160) "></path>
                    <g id="Group-29" transform="translate(8.800000, 40.000000)">
                        <g id="Group-2-Copy-3">
                            <path d="M26.4,13.9470615 C26.4,20.8246719 20.8248885,26.4 13.9472782,26.4 C7.06966777,26.4 1.49433962,20.8246719 1.49433962,13.9470615 C1.49433962,7.06966777 7.06966777,1.49433962 13.9472782,1.49433962 C20.8248885,1.49433962 26.4,7.06966777 26.4,13.9470615" id="Fill-26" fill="#16171B"></path>
                            <path d="M24.9056604,12.4528302 C24.9056604,19.3303807 19.3303322,24.9056604 12.4529385,24.9056604 C5.57532814,24.9056604 0,19.3303807 0,12.4528302 C0,5.57527964 5.57532814,0 12.4529385,0 C19.3303322,0 24.9056604,5.57527964 24.9056604,12.4528302" id="Fill-27" fill="#F2AE50"></path>
                            <path d="M12.4529378,3.13626436 C7.31570648,3.13626436 3.13627133,7.31565435 3.13627133,12.4528302 C3.13627133,17.590006 7.31570648,21.769396 12.4529378,21.769396 C17.5899539,21.769396 21.769389,17.590006 21.769389,12.4528302 C21.769389,7.31565435 17.5899539,3.13626436 12.4529378,3.13626436 Z M12.4529378,22.4150943 C6.95970762,22.4150943 2.49056604,17.946001 2.49056604,12.4528302 C2.49056604,6.95965935 6.95970762,2.49056604 12.4529378,2.49056604 C17.946168,2.49056604 22.4150943,6.95965935 22.4150943,12.4528302 C22.4150943,17.946001 17.946168,22.4150943 12.4529378,22.4150943 L12.4529378,22.4150943 Z" id="Fill-28" fill="#FDF1E0"></path>
                            <path d="M21.4187634,11.4566038 L21.4187634,11.4566038 C21.4187634,9.80609073 20.0807017,8.4680291 18.4301887,8.4680291 C20.0807017,8.4680291 21.4187634,7.12975832 21.4187634,5.47924528 C21.4187634,7.12975832 22.756825,8.4680291 24.4075472,8.4680291 C22.756825,8.4680291 21.4187634,9.80609073 21.4187634,11.4566038" id="Fill-37" fill="#FDF1E0"></path>
                        </g>
                        <path d="M13.12,15.3454545 C13.7601495,15.2392682 14.08,14.9289147 14.08,14.4143938 L14.08,14.3854339 C14.08,14.1334827 14.0127103,13.9273848 13.8772336,13.76714 C13.7422056,13.6068952 13.4896449,13.4543731 13.12,13.3090909 L13.12,15.3454545 Z M12.16,9.74545455 C11.8261472,9.78336424 11.5823377,9.86443844 11.4294949,9.98867714 C11.2761905,10.1132912 11.2,10.2656806 11.2,10.4469716 L11.2,10.4694922 C11.2,10.6429009 11.2646465,10.7919122 11.3948629,10.9165263 C11.5246176,11.040765 11.7795094,11.1597489 12.16,11.2727273 L12.16,9.74545455 Z M11.8781103,17.0786249 C11.3129463,17.0087361 10.7676884,16.8672222 10.2414713,16.653215 C9.71525424,16.4396419 9.23490804,16.1670323 8.8,15.8358203 L9.8173819,14.3438471 C10.1739632,14.6142863 10.5197259,14.8391458 10.8542373,15.0175575 C11.1891814,15.1964032 11.5522539,15.3253285 11.9434547,15.4038991 L11.9434547,13.3232975 C11.4739272,13.1926359 11.0632528,13.0485175 10.7109989,12.8913763 C10.358745,12.7346692 10.0670754,12.5471416 9.83728814,12.3287935 C9.60663541,12.1108794 9.4326722,11.8560676 9.31539849,11.5634898 C9.19812477,11.2713461 9.13927155,10.9336227 9.13927155,10.5494516 L9.13927155,10.5234061 C9.13927155,10.1570327 9.20461594,9.8258207 9.33487198,9.52890198 C9.46512802,9.23241735 9.64990984,8.97500097 9.88921745,8.75708693 C10.1280923,8.5391729 10.4175983,8.36249758 10.7564371,8.22706097 C11.0957086,8.09205845 11.4695997,8.00263556 11.8781103,7.95879229 L11.8781103,7.2 L13.2347638,7.2 L13.2347638,7.98527189 C13.7042914,8.05516065 14.1370357,8.17062905 14.532564,8.33167707 C14.9280923,8.49359327 15.3041471,8.70065501 15.6611612,8.95329638 L14.7870177,10.4839037 C14.5260728,10.309833 14.2608006,10.1548622 13.9912009,10.0198597 C13.7216012,9.88442308 13.447674,9.78197744 13.1694194,9.71208868 L13.1694194,11.68764 C14.1608366,11.9580791 14.8804904,12.3114298 15.3283808,12.7476919 C15.7762712,13.1839541 16,13.7682415 16,14.5009883 L16,14.5270338 C16,14.8934072 15.9324919,15.2250533 15.7979084,15.5215379 C15.6628922,15.8184566 15.4759466,16.0754389 15.2370718,16.293353 C14.9977642,16.5117011 14.7086909,16.6905469 14.3694194,16.8298903 C14.0305806,16.9696678 13.6523621,17.0612612 13.2347638,17.1046704 L13.2347638,18.4 L11.8781103,18.4 L11.8781103,17.0786249 L11.8781103,17.0786249 Z" id="Fill-33-Copy-2" fill="#16171B" transform="translate(12.400000, 12.800000) scale(-1, 1) translate(-12.400000, -12.800000) "></path>
                    </g>
                </g>
                <g id="Group-3-Copy" transform="translate(0.000000, 23.000000)">
                    <path d="M27.7511731,14.5712794 C27.7511731,21.850583 21.8500762,27.75168 14.5707725,27.75168 C7.2914688,27.75168 1.38986496,21.850583 1.38986496,14.5712794 C1.38986496,7.2914688 7.2914688,1.39037184 14.5707725,1.39037184 C21.8500762,1.39037184 27.7511731,7.2914688 27.7511731,14.5712794" id="Fill-30" fill="#16171B"></path>
                    <path d="M26.3613082,13.1809075 C26.3613082,20.4607181 20.4602112,26.361815 13.1804006,26.361815 C5.90109696,26.361815 2.13162821e-15,20.4607181 2.13162821e-15,13.1809075 C2.13162821e-15,5.90160384 5.90109696,7.67386155e-14 13.1804006,7.67386155e-14 C20.4602112,7.67386155e-14 26.3613082,5.90160384 26.3613082,13.1809075" id="Fill-31" fill="#F2AE50"></path>
                    <path d="M13.1804006,3.27900672 C7.70609664,3.27900672 3.25264896,7.7324544 3.25264896,13.2067584 C3.25264896,18.6805555 7.70609664,23.1345101 13.1804006,23.1345101 C18.6547046,23.1345101 23.1081523,18.6805555 23.1081523,13.2067584 C23.1081523,7.7324544 18.6547046,3.27900672 13.1804006,3.27900672 Z M13.1804006,23.8223462 C7.3269504,23.8223462 2.5648128,19.0602086 2.5648128,13.2067584 C2.5648128,7.35330816 7.3269504,2.59117056 13.1804006,2.59117056 C19.0338509,2.59117056 23.7959885,7.35330816 23.7959885,13.2067584 C23.7959885,19.0602086 19.0338509,23.8223462 13.1804006,23.8223462 L13.1804006,23.8223462 Z" id="Fill-32" fill="#FDF1E0"></path>
                    <path d="M13.9174042,16.0863437 C14.6407219,15.9748301 15.0021274,15.6489062 15.0021274,15.1085722 L15.0021274,15.0781594 C15.0021274,14.813568 14.9260954,14.5971302 14.7730176,14.4288461 C14.6204467,14.2605619 14.3350733,14.1003878 13.9174042,13.947817 L13.9174042,16.0863437 Z M12.4814131,9.22673664 C12.1149389,9.27793152 11.8473062,9.3874176 11.679529,9.55519488 C11.5112448,9.72347904 11.4276096,9.92927232 11.4276096,10.1740954 L11.4276096,10.2045082 C11.4276096,10.4386867 11.4985728,10.6399181 11.641513,10.8082022 C11.7839462,10.9759795 12.063744,11.1366605 12.4814131,11.2892314 L12.4814131,9.22673664 Z M12.4048742,17.9658547 C11.742889,17.884247 11.1042202,17.7190042 10.4878541,17.4691123 C9.871488,17.2197274 9.3088512,16.9014067 8.7994368,16.5146573 L9.99111168,14.7725107 C10.4087808,15.088297 10.8137779,15.3508608 11.2055962,15.5591885 C11.5979213,15.768023 12.0231936,15.9185664 12.4814131,16.0103117 L12.4814131,13.5808358 C11.9314483,13.428265 11.4504192,13.2599808 11.0378189,13.0764902 C10.6252186,12.8935066 10.2835814,12.6745344 10.0144282,12.4195738 C9.74426112,12.16512 9.54049536,11.8675814 9.40313088,11.5259443 C9.2657664,11.1848141 9.19683072,10.7904614 9.19683072,10.3418726 L9.19683072,10.3114598 C9.19683072,9.88365312 9.2733696,9.49690368 9.42594048,9.15019776 C9.57851136,8.80399872 9.79494912,8.50341888 10.0752538,8.24896512 C10.3550515,7.99451136 10.6941542,7.7882112 11.0910413,7.63006464 C11.4884352,7.47242496 11.9263795,7.36800768 12.4048742,7.3168128 L12.4048742,6.43078656 L13.993943,6.43078656 L13.993943,7.34773248 C14.5439078,7.42934016 15.0507878,7.56417024 15.5140762,7.75222272 C15.9773645,7.94128896 16.4178432,8.18307072 16.8360192,8.47807488 L15.8121216,10.2653338 C15.506473,10.0620749 15.1957555,9.88111872 14.8799693,9.72347904 C14.564183,9.56533248 14.243328,9.4457088 13.9174042,9.36410112 L13.9174042,11.670912 C15.0786662,11.9866982 15.9216077,12.3992986 16.4462285,12.908713 C16.9708493,13.4181274 17.2329062,14.1003878 17.2329062,14.9560013 L17.2329062,14.9864141 C17.2329062,15.4142208 17.153833,15.8014771 16.9961933,16.1476762 C16.8380467,16.4943821 16.6190746,16.794455 16.3392768,17.0489088 C16.0589722,17.3038694 15.7203763,17.512704 15.3229824,17.6754125 C14.9260954,17.8386278 14.4830822,17.9455795 13.993943,17.9962675 L13.993943,19.5087974 L12.4048742,19.5087974 L12.4048742,17.9658547 L12.4048742,17.9658547 Z" id="Fill-33" fill="#16171B"></path>
                </g>
            </g>
        </g>
    </g>
</svg>