<?xml version="1.0" encoding="UTF-8"?>
<svg width="35px" height="35px" viewBox="0 0 35 35" version="1.1" xmlns="http://www.w3.org/2000/svg" xmlns:xlink="http://www.w3.org/1999/xlink">
    <title>Awesome Team</title>
    <g id="Awesome-Team" stroke="none" stroke-width="1" fill="none" fill-rule="evenodd">
        <g id="Group-13" fill="#E83F65" fill-rule="nonzero">
            <path d="M34.72,17.92 L34.72,13.4266016 C34.72,12.1805468 33.9180078,11.1026563 32.7247266,10.7447266 L29.12,9.66328125 L29.12,8.81261717 C30.1341797,8.10332033 30.8,6.92890625 30.8,5.60054684 L30.8,3.92 C30.8,1.75847658 29.0415234,1.27897692e-13 26.88,1.27897692e-13 C24.7184766,1.27897692e-13 22.96,1.75847658 22.96,3.92 L22.96,5.6 C22.96,6.92890625 23.6258203,8.10332033 24.64,8.81207033 L24.64,9.66273434 L21.4632032,10.6159375 C20.2710157,9.54980467 18.7520703,8.96 17.1393359,8.96 C15.5331641,8.96 14.0637109,9.5484375 12.928125,10.5180468 L10.08,9.66328125 L10.08,8.81261717 C11.0941797,8.10332033 11.76,6.92890625 11.76,5.60054684 L11.76,3.92 C11.76,1.75847658 10.0015234,1.27897692e-13 7.84,1.27897692e-13 C5.67847658,1.27897692e-13 3.92,1.75847658 3.92,3.92 L3.92,5.6 C3.92,6.92890625 4.58582033,8.10332033 5.6,8.81207033 L5.6,9.66273434 L1.99527342,10.7441797 C0.80199217,11.1026563 1.24344979e-13,12.1805468 1.24344979e-13,13.4266016 L1.24344979e-13,17.92 L1.12,17.92 L1.12,13.4266016 C1.12,12.6790234 1.60097658,12.0320703 2.31738283,11.8176953 L5.92320316,10.7357032 C6.24914066,11.1589843 6.8796875,11.76 7.84,11.76 C8.8003125,11.76 9.43085934,11.1589843 9.75679684,10.7357032 L12.0533984,11.4244922 C11.3244141,12.3413282 10.8387891,13.4572266 10.6914063,14.678125 C9.97636717,13.9182422 8.96382816,13.44 7.84,13.44 C5.67847658,13.44 3.92,15.1984766 3.92,17.36 L3.92,19.04 C3.92,20.3689063 4.58582033,21.5433203 5.6,22.2520703 L5.6,23.1027343 L1.99527342,24.1841797 C0.80199217,24.5426563 1.24344979e-13,25.6205468 1.24344979e-13,26.8666016 L1.24344979e-13,31.92 L6.72,31.92 C7.0284375,31.92 7.28,32.1715625 7.28,32.48 L7.28,34.72 L27.44,34.72 L27.44,32.48 C27.44,32.1715625 27.6915625,31.92 28,31.92 L34.72,31.92 L34.72,26.8666016 C34.72,25.6205468 33.9180078,24.5426563 32.7247266,24.1847266 L29.12,23.1032813 L29.12,22.2526172 C30.1341797,21.5433203 30.8,20.3689063 30.8,19.0405468 L30.8,17.3605468 C30.8,15.1990234 29.0415234,13.4405468 26.88,13.4405468 C25.7835157,13.4405468 24.7923047,13.8941797 24.08,14.6220703 L24.08,14.0913282 C24.08,12.9852734 23.4789843,11.9896875 22.5410938,11.4633203 L24.9632032,10.73625 C25.2891407,11.1589843 25.9196875,11.76 26.88,11.76 C27.8403125,11.76 28.4708593,11.1589843 28.7967968,10.7357032 L32.4031641,11.8176953 C33.1190234,12.0320703 33.6,12.6790234 33.6,13.4266016 L33.6,17.92 L34.72,17.92 Z M7.84,1.12 C9.38382816,1.12 10.64,2.37617184 10.64,3.92 L8.071875,3.92 C7.71613283,3.92 7.36722658,3.775625 7.1159375,3.5240625 L6.72,3.128125 L6.3240625,3.5240625 C6.07277342,3.775625 5.72386717,3.92 5.368125,3.92 L5.04,3.92 C5.04,2.37617184 6.29617184,1.12 7.84,1.12 Z M5.04,5.6 L5.04,5.04 L5.368125,5.04 C5.8559375,5.04 6.321875,4.9 6.72,4.63859375 C7.118125,4.9 7.5840625,5.04 8.071875,5.04 L10.64,5.04 L10.64,5.6 C10.64,7.14382816 9.38382816,8.4 7.84,8.4 C6.29617184,8.4 5.04,7.14382816 5.04,5.6 Z M7.84,10.64 C7.24472658,10.64 6.85890625,10.1398828 6.72,9.92605467 L6.72,9.35539066 C7.07492184,9.46121092 7.45089842,9.52 7.84,9.52 C8.22910158,9.52 8.60507816,9.46121092 8.96,9.35484375 L8.96,9.92550783 C8.82109375,10.1404297 8.43527342,10.64 7.84,10.64 Z M23.2331641,20.4689843 C23.5183593,21.1933203 24.0105468,21.8126563 24.64,22.2526172 L24.64,23.1032813 L21.0358203,24.1847266 C20.9171484,24.22 20.8017578,24.2659375 20.6891016,24.3167968 L20.16,24.1948438 L20.16,23.0915234 C20.7585547,22.6105468 21.2302343,21.9789063 21.5198047,21.2548438 C22.1648438,21.1982422 22.7696875,20.9237109 23.2331641,20.4689843 L23.2331641,20.4689843 Z M17.36,24.08 C17.9541797,24.08 18.5210157,23.9613282 19.04,23.7502343 L19.04,24.36 L17.36,25.62 L15.68,24.36 L15.68,23.7502343 C16.1989843,23.9613282 16.7658203,24.08 17.36,24.08 L17.36,24.08 Z M14.9923047,25.2442968 L16.3575782,26.2685938 L14.9532032,27.1113282 L14.5980078,25.335625 L14.9923047,25.2442968 Z M16.7412109,29.68 L17.9787891,29.68 L18.414375,33.6 L16.305625,33.6 L16.7412109,29.68 Z M18.0761328,28.56 L16.6433203,28.56 L16.3217578,27.5955859 L17.36,26.9729688 L18.3976953,27.5955859 L18.0761328,28.56 Z M18.3624218,26.2685938 L19.7276953,25.2442968 L20.1219922,25.3350782 L19.7667968,27.1107813 L18.3624218,26.2685938 Z M22.5233203,19.6101172 C22.3294532,19.8228516 22.0830859,19.971875 21.8159375,20.0626563 C21.8315234,19.9103516 21.84,19.7561328 21.84,19.6 L21.84,16.9203125 C22.4426563,17.1489063 22.8910938,17.6791016 22.9515234,18.3126563 C22.9974609,18.7947266 22.8457032,19.2549218 22.5233203,19.6101172 L22.5233203,19.6101172 Z M20.72,19.6 C20.72,21.4530859 19.2130859,22.96 17.36,22.96 C15.5069141,22.96 14,21.4530859 14,19.6 L14,16.8 L15.9012109,16.8 C17.1215625,16.8 18.3091016,16.4953907 19.3708593,15.9135157 L19.8138282,16.8 L20.72,16.8 L20.72,19.6 Z M12.9040625,20.0626563 C12.6369141,19.971875 12.3905468,19.8228516 12.1966797,19.6101172 C11.8742968,19.2554688 11.7225391,18.7947266 11.7684766,18.3132032 C11.8289063,17.6796484 12.2773438,17.1489063 12.88,16.9208593 L12.88,19.6 C12.88,19.7561328 12.8884766,19.9103516 12.9040625,20.0626563 Z M13.2001953,21.2548438 C13.4892188,21.9789063 13.9608984,22.6105468 14.56,23.0915234 L14.56,24.1948438 L14.0308984,24.3167968 C13.9176953,24.2659375 13.8028516,24.2205468 13.6847266,24.1847266 L10.08,23.1032813 L10.08,22.2526172 C10.7089063,21.8126563 11.2016407,21.1933203 11.4868359,20.4689843 C11.9503125,20.9237109 12.5551563,21.1982422 13.2001953,21.2548438 Z M7.84,14.56 C9.38382816,14.56 10.64,15.8161718 10.64,17.36 L10.311875,17.36 C9.95613283,17.36 9.60722658,17.215625 9.3559375,16.9640625 L8.96,16.568125 L8.5640625,16.9640625 C8.31277342,17.215625 7.96386717,17.36 7.608125,17.36 L5.04,17.36 C5.04,15.8161718 6.29617184,14.56 7.84,14.56 Z M5.04,19.04 L5.04,18.48 L7.608125,18.48 C8.0959375,18.48 8.561875,18.34 8.96,18.0785938 C9.358125,18.34 9.8240625,18.48 10.311875,18.48 L10.64,18.48 L10.64,19.04 C10.64,20.5838282 9.38382816,21.84 7.84,21.84 C6.29617184,21.84 5.04,20.5838282 5.04,19.04 Z M7.84,22.96 C8.22910158,22.96 8.60507816,22.9012109 8.96,22.7948438 L8.96,23.3655078 C8.82109375,23.5804297 8.43527342,24.08 7.84,24.08 C7.24472658,24.08 6.85890625,23.5798828 6.72,23.3660547 L6.72,22.7953907 C7.07492184,22.9012109 7.45089842,22.96 7.84,22.96 L7.84,22.96 Z M6.72,30.8 L4.48,30.8 L4.48,26.88 L3.36,26.88 L3.36,30.8 L1.12,30.8 L1.12,26.8666016 C1.12,26.1190234 1.60097658,25.4720703 2.31738283,25.2576953 L5.92320316,24.1757032 C6.24914066,24.5989843 6.8796875,25.2 7.84,25.2 C8.8003125,25.2 9.43085934,24.5989843 9.75679684,24.1757032 L11.8803125,24.8130859 L10.3184375,25.1732032 C8.52933592,25.5863672 7.28,27.1572657 7.28,28.9928516 L7.28,29.68 L8.4,29.68 L8.4,28.9928516 C8.4,27.6814453 9.29277342,26.5598047 10.5705468,26.2644922 L13.5061718,25.5869141 L14.16625,28.8886718 L15.3379297,28.1859375 L15.6693359,29.1804297 L15.1787891,33.6 L12.32,33.6 L12.32,29.12 L11.2,29.12 L11.2,33.6 L8.4,33.6 L8.4,32.48 C8.4,31.5538672 7.64613283,30.8 6.72,30.8 L6.72,30.8 Z M32.4026172,25.2576953 C33.1190234,25.4720703 33.6,26.1190234 33.6,26.8666016 L33.6,30.8 L31.36,30.8 L31.36,26.88 L30.24,26.88 L30.24,30.8 L28,30.8 C27.0738672,30.8 26.32,31.5538672 26.32,32.48 L26.32,33.6 L23.52,33.6 L23.52,29.12 L22.4,29.12 L22.4,33.6 L19.5412109,33.6 L19.0501172,29.1804297 L19.3815234,28.1859375 L20.5532032,28.8886718 L21.2132813,25.5869141 L24.1494532,26.2644922 C25.4272266,26.5598047 26.32,27.6814453 26.32,28.9928516 L26.32,29.68 L27.44,29.68 L27.44,28.9928516 C27.44,27.1572657 26.1906641,25.5863672 24.4015625,25.1732032 L22.8396875,24.8130859 L24.9632032,24.1757032 C25.2891407,24.5989843 25.9196875,25.2 26.88,25.2 C27.8403125,25.2 28.4708593,24.5989843 28.7967968,24.1757032 L32.4026172,25.2576953 Z M28,23.3660547 C27.8610938,23.5804297 27.4752734,24.08 26.88,24.08 C26.2836328,24.08 25.8972657,23.5782422 25.76,23.3660547 L25.76,22.7948438 C26.1149218,22.9012109 26.4908984,22.96 26.88,22.96 C27.2691016,22.96 27.6450782,22.9012109 28,22.7948438 L28,23.3660547 Z M26.88,21.84 C25.3361718,21.84 24.08,20.5838282 24.08,19.04 L24.08,18.48 L24.408125,18.48 C24.8959375,18.48 25.361875,18.34 25.76,18.0785938 C26.158125,18.34 26.6240625,18.48 27.111875,18.48 L29.68,18.48 L29.68,19.04 C29.68,20.5838282 28.4238282,21.84 26.88,21.84 Z M26.88,14.56 C28.4238282,14.56 29.68,15.8161718 29.68,17.36 L27.111875,17.36 C26.7561328,17.36 26.4072266,17.215625 26.1559375,16.9640625 L25.76,16.568125 L25.3640625,16.9640625 C25.1127734,17.215625 24.7638672,17.36 24.408125,17.36 L24.08,17.36 C24.08,15.8161718 25.3361718,14.56 26.88,14.56 Z M22.96,16.2875782 C22.4645313,15.9124218 21.8490234,15.68 21.18375,15.68 L20.5061718,15.68 L19.8173828,14.3024218 L19.2896484,14.6540625 C18.2823047,15.325625 17.1108984,15.68 15.9012109,15.68 L13.53625,15.68 C12.8709766,15.68 12.2554688,15.9124218 11.76,16.2875782 L11.76,15.4593359 C11.76,12.4936328 14.1736328,10.08 17.1393359,10.08 C18.57625,10.08 19.9275782,10.6394532 20.9433984,11.6552734 L21.5375782,12.2494532 L21.6630859,12.2915625 C22.4385547,12.5502343 22.96,13.2732032 22.96,14.0907813 L22.96,16.2875782 Z M26.88,1.12 C28.4238282,1.12 29.68,2.37617184 29.68,3.92 L29.351875,3.92 C28.9961328,3.92 28.6472266,3.775625 28.3959375,3.5240625 L28,3.128125 L27.6040625,3.5240625 C27.3527734,3.775625 27.0038672,3.92 26.648125,3.92 L24.08,3.92 C24.08,2.37617184 25.3361718,1.12 26.88,1.12 Z M24.08,5.6 L24.08,5.04 L26.648125,5.04 C27.1359375,5.04 27.601875,4.9 28,4.63859375 C28.398125,4.9 28.8640625,5.04 29.351875,5.04 L29.68,5.04 L29.68,5.6 C29.68,7.14382816 28.4238282,8.4 26.88,8.4 C25.3361718,8.4 24.08,7.14382816 24.08,5.6 Z M26.88,10.64 C26.2836328,10.64 25.8972657,10.1382422 25.76,9.92605467 L25.76,9.35484375 C26.1149218,9.46121092 26.4908984,9.52 26.88,9.52 C27.2691016,9.52 27.6450782,9.46121092 28,9.35484375 L28,9.92550783 C27.8610938,10.1404297 27.4752734,10.64 26.88,10.64 Z" id="Shape"></path>
            <polygon id="Path" points="12.88 -5.46229728e-14 14 -5.46229728e-14 14 1.12 12.88 1.12"></polygon>
            <polygon id="Path" points="12.88 2.24 14 2.24 14 8.4 12.88 8.4"></polygon>
            <polygon id="Path" points="20.72 -5.46229728e-14 21.84 -5.46229728e-14 21.84 1.12 20.72 1.12"></polygon>
            <polygon id="Path" points="20.72 2.24 21.84 2.24 21.84 8.4 20.72 8.4"></polygon>
            <polygon id="Path" points="15.12 2.24 16.24 2.24 16.24 6.16 15.12 6.16"></polygon>
            <polygon id="Path" points="15.12 7.28 16.24 7.28 16.24 8.4 15.12 8.4"></polygon>
            <polygon id="Path" points="18.48 2.24 19.6 2.24 19.6 6.16 18.48 6.16"></polygon>
            <polygon id="Path" points="18.48 7.28 19.6 7.28 19.6 8.4 18.48 8.4"></polygon>
        </g>
    </g>
</svg>