<?xml version="1.0" encoding="UTF-8"?>
<svg width="31px" height="26px" viewBox="0 0 31 26" version="1.1" xmlns="http://www.w3.org/2000/svg" xmlns:xlink="http://www.w3.org/1999/xlink">
    <title>Cloud Architecture</title>
    <g id="Cloud-Architecture" stroke="none" stroke-width="1" fill="none" fill-rule="evenodd">
        <g id="Group-5" fill="#3E4C6F" fill-rule="nonzero">
            <path d="M15.36,11.52 C13.94816,11.52 12.8,10.37184 12.8,8.96 C12.8,7.54816 13.94816,6.4 15.36,6.4 C16.77184,6.4 17.92,7.54816 17.92,8.96 C17.92,10.37184 16.77184,11.52 15.36,11.52 Z M15.36,7.68 C14.65344,7.68 14.08,8.25472 14.08,8.96 C14.08,9.66528 14.65344,10.24 15.36,10.24 C16.06656,10.24 16.64,9.66528 16.64,8.96 C16.64,8.25472 16.06656,7.68 15.36,7.68 Z" id="Shape"></path>
            <path d="M21.76,16.64 C20.34816,16.64 19.2,15.49184 19.2,14.08 C19.2,12.66816 20.34816,11.52 21.76,11.52 C23.17184,11.52 24.32,12.66816 24.32,14.08 C24.32,15.49184 23.17184,16.64 21.76,16.64 Z M21.76,12.8 C21.05344,12.8 20.48,13.37472 20.48,14.08 C20.48,14.78528 21.05344,15.36 21.76,15.36 C22.46656,15.36 23.04,14.78528 23.04,14.08 C23.04,13.37472 22.46656,12.8 21.76,12.8 Z" id="Shape"></path>
            <path d="M15.36,25.6 C15.00672,25.6 14.72,25.31328 14.72,24.96 L14.72,10.88 C14.72,10.52672 15.00672,10.24 15.36,10.24 C15.71328,10.24 16,10.52672 16,10.88 L16,24.96 C16,25.31328 15.71328,25.6 15.36,25.6 Z" id="Path"></path>
            <path d="M18.56,21.76 C18.20672,21.76 17.92,21.47328 17.92,21.12 L17.92,17.28 C17.92,17.10976 17.98784,16.9472 18.10688,16.82688 L19.95008,14.98368 C20.19968,14.73408 20.60544,14.73408 20.85504,14.98368 C21.10464,15.23328 21.10464,15.63904 20.85504,15.88864 L19.2,17.54496 L19.2,21.12 C19.2,21.47328 18.91328,21.76 18.56,21.76 L18.56,21.76 Z" id="Path"></path>
            <path d="M8.96,16.64 C7.54816,16.64 6.4,15.49184 6.4,14.08 C6.4,12.66816 7.54816,11.52 8.96,11.52 C10.37184,11.52 11.52,12.66816 11.52,14.08 C11.52,15.49184 10.37184,16.64 8.96,16.64 Z M8.96,12.8 C8.25344,12.8 7.68,13.37472 7.68,14.08 C7.68,14.78528 8.25344,15.36 8.96,15.36 C9.66656,15.36 10.24,14.78528 10.24,14.08 C10.24,13.37472 9.66656,12.8 8.96,12.8 Z" id="Shape"></path>
            <path d="M12.16,21.76 C11.80672,21.76 11.52,21.47328 11.52,21.12 L11.52,17.54496 L9.86368,15.88992 C9.61408,15.64032 9.61408,15.23456 9.86368,14.98496 C10.11328,14.73536 10.51904,14.73536 10.76864,14.98496 L12.61184,16.82816 C12.73216,16.9472 12.8,17.10976 12.8,17.28 L12.8,21.12 C12.8,21.47328 12.51328,21.76 12.16,21.76 Z" id="Path"></path>
            <path d="M23.04,20.48 L22.4,20.48 C22.04672,20.48 21.76,20.19328 21.76,19.84 C21.76,19.48672 22.04672,19.2 22.4,19.2 L23.04,19.2 C26.56896,19.2 29.44,16.32896 29.44,12.8 C29.44,9.41184 26.79936,6.6112 23.42784,6.42432 C23.19104,6.41152 22.9824,6.26944 22.88256,6.05568 C21.52832,3.1552 18.57664,1.28 15.36,1.28 C11.2448,1.28 7.70944,4.3456 7.136,8.4096 C7.0912,8.72448 6.82112,8.96 6.5024,8.96 C3.57632,8.96 1.28,11.25632 1.28,14.08 C1.28,16.90368 3.57632,19.2 6.4,19.2 L8.32,19.2 C8.67328,19.2 8.96,19.48672 8.96,19.84 C8.96,20.19328 8.67328,20.48 8.32,20.48 L6.4,20.48 C2.87104,20.48 -9.9475983e-14,17.60896 -9.9475983e-14,14.08 C-9.9475983e-14,10.69824 2.63552,7.92192 5.95968,7.69536 C6.84544,3.27168 10.79424,1.0658141e-14 15.36,1.0658141e-14 C18.94528,1.0658141e-14 22.24768,2.01984 23.87584,5.17632 C27.744,5.58208 30.72,8.86016 30.72,12.8 C30.72,17.03552 27.27552,20.48 23.04,20.48 Z" id="Path"></path>
        </g>
    </g>
</svg>