<?xml version="1.0" encoding="UTF-8"?>
<svg width="45px" height="30px" viewBox="0 0 45 30" version="1.1" xmlns="http://www.w3.org/2000/svg" xmlns:xlink="http://www.w3.org/1999/xlink">
    <title>Code Quality</title>
    <g id="Code-Quality" stroke="none" stroke-width="1" fill="none" fill-rule="evenodd">
        <g id="Group-9">
            <g id="Group-11" transform="translate(0.000032, 0.030568)" fill="#E83F65" fill-rule="nonzero">
                <path d="M32.432608,12.1824243 L24.855008,4.15426427 C24.38928,3.66031227 23.611872,3.63778427 23.11792,4.10389627 C22.624736,4.56962427 22.601824,5.34741627 23.067936,5.84098427 L29.849696,13.0253683 L23.067936,20.2105843 C22.601824,20.7041523 22.624736,21.4815603 23.11792,21.9476723 C23.355488,22.1717363 23.658976,22.2827123 23.961312,22.2827123 C24.287776,22.2827123 24.613792,22.1533043 24.855072,21.8980723 L32.432672,13.8695283 C32.879456,13.3956723 32.879456,12.6558963 32.432608,12.1824243 Z" id="Path"></path>
                <path d="M9.700192,20.2102003 L2.91888,13.0253683 L9.700192,5.84060027 C10.16592,5.34703227 10.143392,4.56917627 9.649824,4.10351227 C9.15664,3.63778427 8.3784,3.66031227 7.912736,4.15388027 L0.335136,12.1820403 C-0.111712,12.6555123 -0.111712,13.3956723 0.335136,13.8692083 L7.91312,21.8977523 C8.154784,22.1537523 8.480416,22.2827763 8.80688,22.2827763 C9.109152,22.2827763 9.412704,22.1713523 9.649824,21.9472883 C10.14384,21.4815603 10.16592,20.7037683 9.700192,20.2102003 Z" id="Path"></path>
                <path d="M18.371872,0.0140402738 C17.701344,-0.0875277262 17.073824,0.372824274 16.971424,1.04335227 L13.366944,24.6363123 C13.264544,25.3072243 13.725344,25.9343603 14.396256,26.0367603 C14.45936,26.0461683 14.521568,26.0507123 14.583456,26.0507123 C15.180256,26.0507123 15.703712,25.6153203 15.796704,25.0074483 L19.401184,1.41448827 C19.503584,0.743512274 19.042784,0.116440274 18.371872,0.0140402738 Z" id="Path"></path>
            </g>
            <polygon id="Rectangle" fill="#FFFFFF" points="26.6559616 12.0205286 29.0540764 8 43.2 8 44.379194 27.461077 21.0109912 29.3640798 21.9801657 15.1426001"></polygon>
            <g id="Group-12" transform="translate(23.200038, 6.400000)" fill="#E83F65" fill-rule="nonzero">
                <path d="M18.5087616,11.0208 C18.5087616,10.0679808 17.7335808,9.2928 16.7807616,9.2928 L14.2143744,9.2928 C14.5323264,8.4331392 14.7295104,7.4120448 14.8447872,6.6385536 C14.961216,5.857728 14.7326976,5.0673408 14.2178304,4.4699904 C13.7044992,3.8744064 12.9590784,3.5328 12.1727616,3.5328 C11.854656,3.5328 11.5967616,3.7906944 11.5967616,4.1088 C11.5967616,5.5003008 10.7970816,7.6009344 9.8638464,8.0688384 C8.813376,8.5954176 6.7468416,9.1789824 6.335232,9.2928 C6.0782592,9.2928 0.8243712,9.2928 0.576,9.2928 C0.2578944,9.2928 3.55271368e-14,9.5506944 3.55271368e-14,9.8688 L3.55271368e-14,17.9328 C3.55271368e-14,18.2509056 0.257856,18.5088 0.5759616,18.5088 L2.3039616,18.5088 L2.3039616,19.0848 C2.3039616,19.4029056 2.561856,19.6608 2.8799616,19.6608 L5.2607616,19.6608 C5.964288,19.6608 6.5705088,19.2379776 6.8398464,18.6332928 L10.8810624,19.6435968 C10.9267584,19.6550016 10.9736832,19.6608 11.0207616,19.6608 L14.4767616,19.6608 C15.4295808,19.6608 16.2047616,18.8856192 16.2047616,17.9328 C16.2047616,17.7080832 16.1616384,17.4932736 16.083264,17.2961664 C16.8162432,17.0961024 17.3567616,16.4243712 17.3567616,15.6288 C17.3567616,15.4040832 17.3136384,15.1892736 17.235264,14.9921664 C17.9682432,14.7921024 18.5087616,14.1203712 18.5087616,13.3248 C18.5087616,12.882624 18.3418368,12.4787328 18.0676992,12.1728 C18.3418368,11.8668672 18.5087616,11.462976 18.5087616,11.0208 Z M2.3039232,17.3568 L1.1519232,17.3568 L1.1519232,10.4448 L2.3039232,10.4448 L2.3039232,17.3568 Z M5.8367232,17.9328 C5.8367232,18.2504064 5.5783296,18.5088 5.2607232,18.5088 L3.4559232,18.5088 L3.4559232,10.4448 L5.8367232,10.4448 L5.8367232,17.9328 Z M13.3247616,12.7488 L16.7807616,12.7488 C17.098368,12.7488 17.3567616,13.0071936 17.3567616,13.3248 C17.3567616,13.6424064 17.098368,13.9008 16.7807616,13.9008 C16.3464576,13.9008 13.6797312,13.9008 13.3247616,13.9008 C13.006656,13.9008 12.7487616,14.1586944 12.7487616,14.4768 C12.7487616,14.7949056 13.006656,15.0528 13.3247616,15.0528 L15.6287616,15.0528 C15.946368,15.0528 16.2047616,15.3111936 16.2047616,15.6288 C16.2047616,15.9464064 15.946368,16.2048 15.6287616,16.2048 C15.384576,16.2048 13.5689472,16.2048 13.3247616,16.2048 C13.006656,16.2048 12.7487616,16.4626944 12.7487616,16.7808 C12.7487616,17.0989056 13.006656,17.3568 13.3247616,17.3568 L14.4767616,17.3568 C14.794368,17.3568 15.0527616,17.6151936 15.0527616,17.9328 C15.0527616,18.2504064 14.794368,18.5088 14.4767616,18.5088 L11.0916864,18.5088 L6.9887616,17.4830976 L6.9887616,10.3056384 C7.7659008,10.082496 9.4142976,9.5828736 10.380096,9.098688 C11.702976,8.4354816 12.513024,6.3377664 12.70464,4.7789184 C12.9496704,4.868544 13.1708544,5.0197632 13.3453056,5.2221312 C13.6411392,5.565312 13.7723904,6.0196608 13.7054208,6.468672 C13.4325888,8.2985856 13.0903296,9.049728 12.8095872,9.6111744 C12.7203072,9.7897344 12.7298304,10.0017792 12.8347776,10.171584 C12.9397248,10.3413888 13.12512,10.4448 13.3247616,10.4448 L16.7807616,10.4448 C17.098368,10.4448 17.3567616,10.7031936 17.3567616,11.0208 C17.3567616,11.3384064 17.098368,11.5968 16.7807616,11.5968 L13.3247616,11.5968 C13.006656,11.5968 12.7487616,11.8546944 12.7487616,12.1728 C12.7487616,12.4909056 13.006656,12.7488 13.3247616,12.7488 Z" id="Shape"></path>
                <path d="M12.7487616,-4.59632332e-14 C12.430656,-4.59632332e-14 12.1727616,0.2578944 12.1727616,0.576 L12.1727616,1.8048 C12.1727616,2.1229056 12.430656,2.3808 12.7487616,2.3808 C13.0668672,2.3808 13.3247616,2.1229056 13.3247616,1.8048 L13.3247616,0.576 C13.3247616,0.2578944 13.0668672,-4.59632332e-14 12.7487616,-4.59632332e-14 Z" id="Path"></path>
                <path d="M9.4904064,2.9158656 L8.6758272,2.1012864 C8.4509184,1.8763392 8.0861952,1.8763392 7.861248,2.1012864 C7.6363008,2.3262336 7.6363008,2.6909184 7.861248,2.9158656 L8.6758272,3.7304448 C8.900736,3.955392 9.2654976,3.955392 9.4904064,3.7304448 C9.7153536,3.5054976 9.7153536,3.1408128 9.4904064,2.9158656 Z" id="Path"></path>
                <path d="M7.5647232,6.4128 L6.4127232,6.4128 C6.0946176,6.4128 5.8367232,6.6706944 5.8367232,6.9888 C5.8367232,7.3069056 6.0946176,7.5648 6.4127232,7.5648 L7.5647232,7.5648 C7.8828288,7.5648 8.1407232,7.3069056 8.1407232,6.9888 C8.1407232,6.6706944 7.8828288,6.4128 7.5647232,6.4128 Z" id="Path"></path>
                <path d="M19.0847616,6.4128 L17.9327616,6.4128 C17.614656,6.4128 17.3567616,6.6706944 17.3567616,6.9888 C17.3567616,7.3069056 17.614656,7.5648 17.9327616,7.5648 L19.0847616,7.5648 C19.4028672,7.5648 19.6607616,7.3069056 19.6607616,6.9888 C19.6607616,6.6706944 19.4028672,6.4128 19.0847616,6.4128 Z" id="Path"></path>
                <path d="M17.6362752,2.1012864 C17.4113664,1.8763392 17.0466432,1.8763392 16.821696,2.1012864 L16.0071168,2.9158656 C15.7821696,3.1408128 15.7821696,3.5054976 16.0071168,3.7304448 C16.2320256,3.955392 16.5967872,3.955392 16.821696,3.7304448 L17.6362752,2.9158656 C17.8612224,2.6909184 17.8612224,2.3262336 17.6362752,2.1012864 Z" id="Path"></path>
            </g>
        </g>
    </g>
</svg>