<?xml version="1.0" encoding="UTF-8"?>
<svg width="39px" height="31px" viewBox="0 0 39 31" version="1.1" xmlns="http://www.w3.org/2000/svg" xmlns:xlink="http://www.w3.org/1999/xlink">
    <title>Communication</title>
    <g id="Communication" stroke="none" stroke-width="1" fill="none" fill-rule="evenodd">
        <g id="Group-14" fill="#E83F65" fill-rule="nonzero">
            <path d="M37.65,12.2041406 C37.235625,12.2041406 36.9,12.5402344 36.9,12.9541406 L36.9,15.6269531 C36.9,17.1607031 35.6519531,18.40875 34.1182031,18.40875 L29.8432031,18.40875 C29.6442187,18.40875 29.4536719,18.4875 29.3128125,18.628125 L24.1300781,23.8110937 L24.1300781,19.15875 C24.1300781,18.744375 23.7942187,18.40875 23.3800781,18.40875 L12.6419531,18.40875 C11.1082031,18.40875 9.86015628,17.1609375 9.86015628,15.6269531 L9.86015628,4.2815625 C9.86015628,2.7478125 11.1082031,1.5 12.6419531,1.5 L34.1182031,1.5 C35.6519531,1.5 36.9,2.7478125 36.9,4.2815625 L36.9,6.95414064 C36.9,7.36851564 37.235625,7.70414064 37.65,7.70414064 C38.0639063,7.70414064 38.4,7.36851564 38.4,6.95414064 L38.4,4.2815625 C38.4,1.92070314 36.4792969,-1.08357767e-13 34.1182031,-1.08357767e-13 L12.6419531,-1.08357767e-13 C10.2808594,-1.08357767e-13 8.36015628,1.92070314 8.36015628,4.2815625 L8.36015628,13.9169531 L2.90132814,13.9169531 C1.30171872,13.9169531 4.61852778e-14,15.2182031 4.61852778e-14,16.8182813 L4.61852778e-14,23.7295313 C4.61852778e-14,25.3296094 1.30171872,26.6308594 2.90132814,26.6308594 L5.19515628,26.6308594 L8.91234372,30.3482813 C9.05601564,30.4919531 9.24796872,30.568125 9.44296872,30.568125 C9.53953128,30.568125 9.63726564,30.549375 9.72984372,30.5109375 C10.0101563,30.3949219 10.1929687,30.1216406 10.1929687,29.818125 L10.1929687,26.6308594 L15.984375,26.6308594 C17.5842187,26.6308594 18.8857031,25.3296094 18.8857031,23.7295313 L18.8857031,19.90875 L22.6300781,19.90875 L22.6300781,25.6216406 C22.6300781,25.9251563 22.8128906,26.1984375 23.0932031,26.3144531 C23.1857813,26.3528906 23.2832813,26.3716406 23.3800781,26.3716406 C23.5753125,26.3716406 23.7670313,26.2954687 23.9104687,26.1517969 L30.15375,19.90875 L34.1182031,19.90875 C36.4792969,19.90875 38.4,17.9880469 38.4,15.6269531 L38.4,12.9541406 C38.4,12.5402344 38.0639063,12.2041406 37.65,12.2041406 Z M17.3859375,23.7295313 C17.3859375,24.5025 16.7573437,25.1308594 15.984375,25.1308594 L9.44296872,25.1308594 C9.02859372,25.1308594 8.69296872,25.4669531 8.69296872,25.8808594 L8.69296872,28.0075781 L6.03609372,25.3507031 C5.89546872,25.2100781 5.7046875,25.1308594 5.50570314,25.1308594 L2.90132814,25.1308594 C2.12859372,25.1308594 1.5,24.5025 1.5,23.7295313 L1.5,16.8182813 C1.5,16.0455469 2.12859372,15.4169531 2.90132814,15.4169531 L8.36015628,15.4169531 L8.36015628,15.6269531 C8.36015628,17.9880469 10.2808594,19.90875 12.6419531,19.90875 L17.3859375,19.90875 L17.3859375,23.7295313 Z" id="Shape"></path>
            <path d="M30.6925781,4.91484372 L16.0675781,4.91484372 C15.6534375,4.91484372 15.3175781,5.25070314 15.3175781,5.66484372 C15.3175781,6.07921872 15.6534375,6.41484372 16.0675781,6.41484372 L30.6925781,6.41484372 C31.1067187,6.41484372 31.4425781,6.07921872 31.4425781,5.66484372 C31.4425781,5.25070314 31.1067187,4.91484372 30.6925781,4.91484372 L30.6925781,4.91484372 Z" id="Path"></path>
            <path d="M31.4425781,9.71507814 C31.4425781,9.3009375 31.1067187,8.96507814 30.6925781,8.96507814 L16.0675781,8.96507814 C15.6534375,8.96507814 15.3175781,9.3009375 15.3175781,9.71507814 C15.3175781,10.1294531 15.6534375,10.4650781 16.0675781,10.4650781 L30.6925781,10.4650781 C31.1067187,10.4650781 31.4425781,10.1294531 31.4425781,9.71507814 Z" id="Path"></path>
            <path d="M16.0675781,13.0150781 C15.6534375,13.0150781 15.3175781,13.3509375 15.3175781,13.7650781 C15.3175781,14.1794531 15.6534375,14.5150781 16.0675781,14.5150781 L24.5050781,14.5150781 C24.9192187,14.5150781 25.2550781,14.1794531 25.2550781,13.7650781 C25.2550781,13.3509375 24.9192187,13.0150781 24.5050781,13.0150781 L16.0675781,13.0150781 Z" id="Path"></path>
            <path d="M37.65,9.20414064 C37.2370313,9.20414064 36.9,9.54117186 36.9,9.95414064 C36.9,10.3673437 37.2370313,10.7041406 37.65,10.7041406 C38.0629687,10.7041406 38.4,10.3673437 38.4,9.95414064 C38.4,9.54117186 38.0629687,9.20414064 37.65,9.20414064 Z" id="Path"></path>
        </g>
    </g>
</svg>