<?xml version="1.0" encoding="UTF-8"?>
<svg width="18px" height="14px" viewBox="0 0 18 14" version="1.1" xmlns="http://www.w3.org/2000/svg" xmlns:xlink="http://www.w3.org/1999/xlink">
    <title>email</title>
    <g id="email" stroke="none" stroke-width="1" fill="none" fill-rule="evenodd">
        <g id="Shape-3" transform="translate(1.000000, 1.000000)" fill="#F97794" fill-rule="nonzero" stroke="#F97794" stroke-width="0.55">
            <path d="M14.8684694,-1.69642078e-13 L1.35169056,-1.69642078e-13 C0.6061968,-1.69642078e-13 -7.46069873e-14,0.6061968 -7.46069873e-14,1.35169056 L-7.46069873e-14,10.8134611 C-7.46069873e-14,11.5589232 0.6061968,12.16512 1.35169056,12.16512 L14.8685011,12.16512 C15.6139632,12.16512 16.22016,11.5589232 16.22016,10.8134294 L16.22016,1.35169056 C16.22016,0.6061968 15.6139632,-1.69642078e-13 14.8684694,-1.69642078e-13 Z M1.35169056,0.67582944 L14.8685011,0.67582944 C14.9183021,0.67582944 14.9621789,0.69398208 15.0089069,0.7042464 C13.8386794,1.77525216 9.95838624,5.32505952 8.6004864,6.54850944 C8.49423168,6.64421472 8.3229696,6.75838944 8.11011168,6.75838944 C7.89725376,6.75838944 7.72599168,6.64421472 7.61938848,6.54819264 C6.26161536,5.3249328 2.38110048,1.77493536 1.21106304,0.70430976 C1.25788608,0.69404544 1.30185792,0.67582944 1.35169056,0.67582944 Z M0.67582944,10.8134294 L0.67582944,1.35169056 C0.67582944,1.28547936 0.69578784,1.22541408 0.71365536,1.16490528 C1.60931232,1.98465696 4.31681184,4.46152608 6.07239072,6.05797632 C4.32251424,7.56109728 1.61431776,10.1286979 0.7115328,10.9895702 C0.69559776,10.9321027 0.67582944,10.8759024 0.67582944,10.8134294 Z M14.8684694,11.4892906 L1.35169056,11.4892906 C1.29770784,11.4892906 1.24971264,11.4704726 1.19930976,11.4584342 C2.13219072,10.5691133 4.85762112,7.98674976 6.57673632,6.51606912 C6.80084064,6.71935968 7.0055568,6.90471936 7.16693472,7.05013056 C7.44546528,7.3016064 7.77148416,7.43425056 8.11008,7.43425056 C8.44867584,7.43425056 8.77469472,7.30157472 9.0528768,7.05044736 C9.21431808,6.9049728 9.41919264,6.71945472 9.64342368,6.51606912 C11.3626339,7.98659136 14.0876842,10.5687648 15.0208502,11.4584342 C14.9704474,11.4704726 14.9225155,11.4892906 14.8684694,11.4892906 Z M15.5443306,10.8134294 C15.5443306,10.8758707 15.5245622,10.9321027 15.5086589,10.9895702 C14.6055254,10.1282544 11.8976458,7.56093888 10.147801,6.058008 C11.9034432,4.46155776 14.6105309,1.9849104 15.5065046,1.16484192 C15.5243722,1.22535072 15.5443306,1.28544768 15.5443306,1.35165888 L15.5443306,10.8134294 L15.5443306,10.8134294 Z" id="Shape"></path>
        </g>
    </g>
</svg>