<?xml version="1.0" encoding="UTF-8"?>
<svg width="30px" height="31px" viewBox="0 0 30 31" version="1.1" xmlns="http://www.w3.org/2000/svg" xmlns:xlink="http://www.w3.org/1999/xlink">
    <title>Idea to Full Digital Product</title>
    <g id="Idea-to-Full-Digital-Product" stroke="none" stroke-width="1" fill="none" fill-rule="evenodd">
        <g id="Group-6" fill="#544D3E" fill-rule="nonzero">
            <path d="M24.86826,11.73258 C24.6339,11.49834 24.25398,11.49834 24.01968,11.73258 C23.78538,11.96694 23.78538,12.34686 24.01968,12.58116 C24.02892,12.5904 24.03852,12.59982 24.04782,12.60846 C24.16362,12.71688 24.31092,12.77052 24.45792,12.77052 C24.618,12.77052 24.77784,12.70674 24.89592,12.58068 C25.12248,12.33894 25.11006,11.95914 24.86826,11.73258 Z" id="Path"></path>
            <path d="M23.64924,10.74714 C23.3058,10.51392 22.95318,10.3059 22.60122,10.12872 C20.61006,9.12678 18.50004,8.92566 16.49916,9.54702 C16.18272,9.64536 16.00578,9.98154 16.10412,10.29798 C16.2024,10.61448 16.53846,10.79124 16.85508,10.69302 C18.55332,10.16556 20.35374,10.34112 22.0617,11.20056 C22.36296,11.3523 22.67886,11.5389 22.97526,11.73996 C23.07852,11.81004 23.1957,11.8437 23.31168,11.8437 C23.5038,11.8437 23.69262,11.7516 23.80866,11.5806 C23.99478,11.30646 23.92338,10.93326 23.64924,10.74714 Z" id="Path"></path>
            <path d="M29.10786,18.51174 C28.86186,17.99574 28.45452,17.14122 28.4472,16.85856 C29.14884,15.12912 28.89288,13.2153 27.7242,11.46468 C25.92702,8.7723 22.24362,6.8181 18.966,6.8181 C17.23344,6.8181 15.54162,7.23126 14.01954,8.01996 C13.58286,5.62734 11.48454,3.80748 8.96778,3.80748 C6.13542,3.80748 3.83118,6.11172 3.83118,8.94402 C3.83118,10.746 4.74954,12.38442 6.28758,13.32672 C6.73098,13.5984 6.8313,13.83324 6.86694,14.21802 L6.86694,16.2666 L6.86694,17.72898 C6.86694,18.39894 7.41186,18.94398 8.08164,18.94398 L8.28564,18.94398 C8.61522,21.57054 9.88638,23.95524 11.90418,25.71006 C11.9232,25.76934 11.9787,26.0472 11.74026,26.87622 C11.55456,27.52206 11.26956,28.23948 11.01822,28.87248 C10.84998,29.29602 10.70466,29.66184 10.61682,29.93844 C10.55892,30.12078 10.59144,30.31986 10.70442,30.47436 C10.81746,30.6288 10.99734,30.72012 11.18868,30.72012 L19.75338,30.72012 C20.03478,30.72012 20.4213,30.59412 20.6646,29.99382 C20.7705,29.73258 20.83962,29.4183 20.91288,29.08548 C20.98416,28.76124 21.15132,28.00182 21.31752,27.91008 C21.31764,27.91008 21.32736,27.90846 21.35082,27.91206 C21.3816,27.91698 21.41274,27.91932 21.44394,27.91932 C22.34088,27.91932 23.07378,27.96 23.7204,27.99582 C25.61694,28.10106 26.76174,28.1646 27.76596,26.71812 C28.27668,25.9824 28.21878,24.90942 28.15752,23.77344 C28.12596,23.18796 28.09338,22.58364 28.15122,22.08126 C28.25592,21.97812 28.51812,21.79812 28.68252,21.68526 C29.24814,21.29676 29.7823201,20.92998 29.7823201,20.37228 C29.7823201,19.94838 29.52612,19.38912 29.10786,18.51174 Z M6.91458,12.30336 C5.73528,11.58096 5.03124,10.32516 5.03124,8.94396 C5.03124,6.77328 6.79722,5.00742 8.96784,5.00742 C11.13852,5.00742 12.90444,6.77334 12.90444,8.94396 C12.90444,10.32516 12.20046,11.58102 11.0211,12.30348 C10.46064,12.64698 10.12752,13.0476 9.96942,13.58892 L8.96766,13.58856 L7.96638,13.58892 C7.80816,13.04766 7.4751,12.64698 6.91458,12.30336 Z M9.86874,14.78904 L9.86874,15.66654 L8.06706,15.66654 L8.06706,14.78904 L9.86874,14.78904 L9.86874,14.78904 Z M8.08176,17.74392 C8.0751,17.74392 8.06706,17.73564 8.06706,17.72892 L8.06706,16.86654 L9.86874,16.86654 L9.86874,17.72892 C9.86874,17.7357 9.86064,17.74392 9.85386,17.74392 L8.08176,17.74392 Z M28.00338,20.69592 C27.48696,21.05064 27.04092,21.35688 26.97516,21.82032 C26.8848,22.45608 26.92272,23.15862 26.95932,23.83794 C27.0048,24.68076 27.05628,25.63608 26.78028,26.0337 C26.18328,26.89374 25.66692,26.90208 23.78694,26.79762 C23.16666,26.76318 22.39698,26.72052 21.48444,26.7192 C21.13398,26.67792 20.541,26.74368 20.1453,27.51294 C19.9443,27.90354 19.8363,28.3944 19.74102,28.82742 C19.69314,29.04504 19.62588,29.3508 19.56288,29.52 L12.05244,29.52 C12.07872,29.4537 12.10584,29.38536 12.13368,29.31528 C12.99804,27.1389 13.54548,25.54266 12.7122,24.8223 C10.94604,23.29476 9.81972,21.22632 9.49674,18.94392 L9.85392,18.94392 C10.52382,18.94392 11.0688,18.39888 11.0688,17.72892 L11.0688,16.26654 L11.0688,14.21916 C11.10438,13.83366 11.2044,13.59864 11.64816,13.32666 C13.06842,12.45654 13.95954,10.99272 14.08782,9.35478 C15.56046,8.47968 17.24022,8.01804 18.96606,8.01804 C21.82494,8.01804 25.16112,9.78618 26.72622,12.13086 C27.39702,13.13574 28.04496,14.69904 27.32208,16.43964 C27.08664,17.00646 27.43572,17.79258 28.02468,19.0281 C28.21536,19.42806 28.49136,20.00706 28.56444,20.27754 C28.44048,20.3958 28.17396,20.5788 28.00338,20.69592 Z" id="Shape"></path>
            <path d="M11.91096,8.09622 C11.73378,7.43952 11.29332,6.91356 10.6371,6.57498 C10.34262,6.42324 9.98076,6.53868 9.82878,6.83328 C9.67692,7.12782 9.79248,7.48968 10.08702,7.64154 C10.44528,7.82634 10.66296,8.07738 10.75236,8.40876 C10.8939,8.9334 10.67982,9.50106 10.58586,9.64848 C10.40772,9.92796 10.48986,10.29888 10.76928,10.47702 C10.86924,10.5408 10.9809,10.5711 11.09124,10.5711 C11.28942,10.5711 11.48334,10.47312 11.5977,10.2936 C11.85366,9.89226 12.14826,8.9757 11.91096,8.09622 Z" id="Path"></path>
            <path d="M8.96784,3.55271368e-15 C8.63646,3.55271368e-15 8.36784,0.26874 8.36784,0.6 L8.36784,2.31048 C8.36784,2.64174 8.63646,2.91048 8.96784,2.91048 C9.29916,2.91048 9.56784,2.64174 9.56784,2.31048 L9.56784,0.6 C9.56784,0.26874 9.29916,3.55271368e-15 8.96784,3.55271368e-15 Z" id="Path"></path>
            <path d="M2.31048,8.3679 L0.6,8.3679 C0.26862,8.3679 3.55271368e-15,8.63664 3.55271368e-15,8.9679 C3.55271368e-15,9.29928 0.26862,9.5679 0.6,9.5679 L2.31054,9.5679 C2.64186,9.5679 2.91048,9.29928 2.91048,8.9679 C2.91048,8.63664 2.6418,8.3679 2.31048,8.3679 Z" id="Path"></path>
            <path d="M6.15852,2.90178 L5.30352,1.4211 C5.1378,1.13412 4.77078,1.0359 4.48386,1.2015 C4.19694,1.36722 4.0986,1.73412 4.26432,2.0211 L5.11932,3.50178 C5.2305,3.69432 5.4321,3.8019 5.63946,3.8019 C5.74128,3.8019 5.84448,3.77598 5.93892,3.72138 C6.2259,3.55566 6.32424,3.18876 6.15852,2.90178 Z" id="Path"></path>
            <path d="M3.50178,5.1195 L2.02092,4.2645 C1.734,4.0989 1.36698,4.19724 1.20132,4.4841 C1.0356,4.77108 1.13394,5.13798 1.42092,5.3037 L2.90178,6.1587 C2.99622,6.2133 3.09942,6.23922 3.20118,6.23922 C3.40854,6.23922 3.6102,6.13164 3.72138,5.9391 C3.8871,5.65224 3.78876,5.28522 3.50178,5.1195 Z" id="Path"></path>
            <path d="M16.7346,4.48404 C16.56882,4.19706 16.20192,4.09872 15.915,4.26444 L14.43414,5.11944 C14.14716,5.28516 14.04882,5.65218 14.21454,5.93904 C14.32566,6.13158 14.52732,6.23916 14.73468,6.23916 C14.83644,6.23916 14.93964,6.21324 15.03414,6.15864 L16.515,5.30364 C16.80198,5.13792 16.90032,4.77102 16.7346,4.48404 Z" id="Path"></path>
            <path d="M3.72168,11.99682 C3.55608,11.70984 3.18924,11.61162 2.9022,11.7771 L1.42098,12.6321 C1.134,12.7977 1.0356,13.16472 1.20126,13.4517 C1.31238,13.64424 1.5141,13.75182 1.72146,13.75182 C1.82322,13.75182 1.92636,13.7259 2.02086,13.67142 L3.50202,12.81642 C3.789,12.65082 3.8874,12.2838 3.72168,11.99682 Z" id="Path"></path>
            <path d="M5.8155,14.42802 C5.52864,14.26242 5.16162,14.36076 4.9959,14.64762 L4.26426,15.915 C4.0986,16.20198 4.19694,16.569 4.48392,16.7346 C4.57842,16.7892 4.68156,16.81512 4.78332,16.81512 C4.99068,16.81512 5.1924,16.70754 5.30352,16.515 L6.03516,15.24762 C6.20088,14.96064 6.10254,14.59374 5.8155,14.42802 Z" id="Path"></path>
            <path d="M13.452,1.2015 C13.16496,1.03578 12.79812,1.13412 12.6324,1.4211 L11.7774,2.90178 C11.61168,3.18876 11.70996,3.55572 11.99694,3.72138 C12.09144,3.77598 12.19464,3.8019 12.2964,3.8019 C12.50376,3.8019 12.70542,3.69432 12.8166,3.50178 L13.6716,2.0211 C13.83732,1.73412 13.73898,1.36722 13.452,1.2015 Z" id="Path"></path>
        </g>
    </g>
</svg>