<?xml version="1.0" encoding="UTF-8"?>
<svg width="29px" height="29px" viewBox="0 0 29 29" version="1.1" xmlns="http://www.w3.org/2000/svg" xmlns:xlink="http://www.w3.org/1999/xlink">
    <title>IoT Architecture</title>
    <g id="IoT-Architecture" stroke="none" stroke-width="1" fill="none" fill-rule="evenodd">
        <g id="Group-7" fill="#232323" fill-rule="nonzero">
            <path d="M22.42644,14.2668 C22.42644,9.76728 18.76596,6.1068 14.26644,6.1068 C9.76692,6.1068 6.10644,9.76728 6.10644,14.2668 C6.10644,16.7532 7.22724,18.97944 8.98644,20.47704 L8.98644,23.18808 L6.72708,25.44744 C6.63684,25.5372 6.58644,25.65912 6.58644,25.7868 L6.58644,26.7468 L7.54644,26.7468 L7.54644,25.98552 L9.8058,23.72616 C9.89604,23.6364 9.94644,23.51448 9.94644,23.3868 L9.94644,21.17688 C10.39908,21.46056 10.88052,21.70056 11.38644,21.89208 L11.38644,24.14808 L10.08708,25.44744 C9.99684,25.5372 9.94644,25.65912 9.94644,25.7868 L9.94644,26.7468 L10.90644,26.7468 L10.90644,25.98552 L12.2058,24.68616 C12.29604,24.5964 12.34644,24.47448 12.34644,24.3468 L12.34644,22.1892 C12.81252,22.302 13.29348,22.37352 13.78644,22.40232 L13.78644,26.7468 L14.74644,26.7468 L14.74644,22.40232 C15.2394,22.37352 15.72036,22.302 16.18644,22.1892 L16.18644,24.3468 C16.18644,24.47448 16.23684,24.5964 16.32708,24.68616 L17.62644,25.98552 L17.62644,26.7468 L18.58644,26.7468 L18.58644,25.7868 C18.58644,25.65912 18.53604,25.5372 18.4458,25.44744 L17.14644,24.14808 L17.14644,21.89208 C17.65236,21.70008 18.1338,21.46056 18.58644,21.17688 L18.58644,23.3868 C18.58644,23.51448 18.63684,23.6364 18.72708,23.72616 L20.98644,25.98552 L20.98644,26.7468 L21.94644,26.7468 L21.94644,25.7868 C21.94644,25.65912 21.89604,25.5372 21.8058,25.44744 L19.54644,23.18808 L19.54644,20.47704 C21.30564,18.97944 22.42644,16.7532 22.42644,14.2668 Z M14.26644,7.0668 C15.11988,7.0668 16.03428,8.22792 16.59828,10.1388 C15.06132,10.44792 13.47156,10.44792 11.9346,10.1388 C12.4986,8.22792 13.413,7.0668 14.26644,7.0668 L14.26644,7.0668 Z M14.26644,11.33352 C15.12564,11.33352 15.98388,11.2428 16.8282,11.07048 C16.99908,11.88408 17.10852,12.79608 17.13588,13.7868 L11.397,13.7868 C11.42436,12.79608 11.5338,11.8836 11.70468,11.07048 C12.549,11.2428 13.40724,11.33352 14.26644,11.33352 L14.26644,11.33352 Z M18.0954,14.7468 L21.44196,14.7468 C21.34692,16.1796 20.83236,17.49624 20.01828,18.5796 C19.29156,18.20904 18.53556,17.91336 17.75988,17.69256 C17.95188,16.7916 18.06756,15.79944 18.0954,14.7468 Z M16.8282,17.4636 C15.14052,17.11896 13.39284,17.11896 11.70516,17.4636 C11.53428,16.65 11.42484,15.738 11.39748,14.7468 L17.13588,14.7468 C17.10852,15.738 16.99908,16.65 16.8282,17.4636 Z M18.0954,13.7868 C18.06756,12.73416 17.95188,11.742 17.75988,10.84152 C18.53556,10.62072 19.29156,10.32504 20.01828,9.95448 C20.83236,11.03784 21.34692,12.35448 21.44196,13.78728 L18.0954,13.78728 L18.0954,13.7868 Z M10.43748,13.7868 L7.09092,13.7868 C7.18596,12.354 7.70052,11.03736 8.5146,9.954 C9.24132,10.32456 9.99732,10.62072 10.773,10.84104 C10.581,11.74248 10.46532,12.73416 10.43748,13.7868 L10.43748,13.7868 Z M10.43748,14.7468 C10.46532,15.79944 10.581,16.7916 10.773,17.69256 C9.99732,17.91288 9.24132,18.20856 8.5146,18.5796 C7.70052,17.49624 7.18596,16.1796 7.09092,14.7468 L10.43748,14.7468 Z M11.00676,18.62328 C11.30628,19.64808 11.70948,20.51304 12.189,21.15864 C11.02692,20.80776 9.98772,20.17176 9.15444,19.33032 C9.753,19.03944 10.37316,18.8052 11.00676,18.62328 L11.00676,18.62328 Z M11.9346,18.3948 C13.47156,18.08568 15.06132,18.08568 16.59828,18.3948 C16.03428,20.30568 15.11988,21.4668 14.26644,21.4668 C13.413,21.4668 12.4986,20.30568 11.9346,18.3948 L11.9346,18.3948 Z M17.52612,18.62328 C18.15972,18.8052 18.77988,19.03944 19.37892,19.32984 C18.54564,20.17128 17.50644,20.80728 16.34436,21.15816 C16.8234,20.51304 17.2266,19.64808 17.52612,18.62328 Z M19.37892,9.20376 C18.77988,9.49464 18.15972,9.7284 17.52612,9.91032 C17.2266,8.88552 16.8234,8.02056 16.34388,7.37496 C17.50644,7.72632 18.54516,8.36232 19.37892,9.20376 Z M12.189,7.37544 C11.70948,8.02056 11.30676,8.88552 11.00676,9.9108 C10.37316,9.72888 9.753,9.49464 9.15396,9.20424 C9.98772,8.36232 11.02644,7.72632 12.189,7.37544 Z" id="Shape"></path>
            <polygon id="Path" points="20.98644 27.7068 21.94644 27.7068 21.94644 28.6668 20.98644 28.6668"></polygon>
            <polygon id="Path" points="17.62644 27.7068 18.58644 27.7068 18.58644 28.6668 17.62644 28.6668"></polygon>
            <polygon id="Path" points="6.58644 27.7068 7.54644 27.7068 7.54644 28.6668 6.58644 28.6668"></polygon>
            <polygon id="Path" points="9.94644 27.7068 10.90644 27.7068 10.90644 28.6668 9.94644 28.6668"></polygon>
            <polygon id="Path" points="13.78644 27.7068 14.74644 27.7068 14.74644 28.6668 13.78644 28.6668"></polygon>
            <path d="M12.56964,4.80744 L13.24836,5.48616 C13.80996,4.92456 14.72292,4.92456 15.28452,5.48616 L15.96324,4.80744 C15.02772,3.87192 13.50516,3.87192 12.56964,4.80744 L12.56964,4.80744 Z" id="Path"></path>
            <path d="M17.47332,3.36744 C15.705,1.59912 12.82788,1.59912 11.06004,3.36744 L11.73876,4.04616 C13.13268,2.65224 15.40068,2.65224 16.7946,4.04616 L17.47332,3.36744 Z" id="Path"></path>
            <path d="M18.24708,2.60616 L18.9258,1.92744 C16.35684,-0.64248 12.17604,-0.64248 9.60708,1.92744 L10.2858,2.60616 C12.48036,0.4116 16.05252,0.4116 18.24708,2.60616 Z" id="Path"></path>
            <path d="M4.80708,12.57 C3.87156,13.50552 3.87156,15.02808 4.80708,15.9636 L5.4858,15.28488 C4.9242,14.72328 4.9242,13.81032 5.4858,13.24872 L4.80708,12.57 Z" id="Path"></path>
            <path d="M3.36708,11.05992 C1.59876,12.82824 1.59876,15.70536 3.36708,17.4732 L4.0458,16.79448 C2.65188,15.40056 2.65188,13.13256 4.0458,11.73864 L3.36708,11.05992 Z" id="Path"></path>
            <path d="M2.6058,10.28616 L1.92708,9.60744 C-0.64236,12.17688 -0.64236,16.3572 1.92708,18.92616 L2.6058,18.24744 C0.41124,16.0524 0.41124,12.4812 2.6058,10.28616 Z" id="Path"></path>
            <path d="M23.04708,13.24872 C23.60868,13.81032 23.60868,14.72328 23.04708,15.28488 L23.7258,15.9636 C24.66132,15.02808 24.66132,13.50552 23.7258,12.57 L23.04708,13.24872 Z" id="Path"></path>
            <path d="M25.1658,11.05992 L24.48708,11.73864 C25.881,13.13256 25.881,15.40056 24.48708,16.79448 L25.1658,17.4732 C26.93412,15.70536 26.93412,12.82824 25.1658,11.05992 Z" id="Path"></path>
            <path d="M26.6058,9.60744 L25.92708,10.28616 C28.12164,12.4812 28.12164,16.0524 25.92708,18.24744 L26.6058,18.92616 C29.17524,16.35672 29.17524,12.17688 26.6058,9.60744 Z" id="Path"></path>
        </g>
    </g>
</svg>