<?xml version="1.0" encoding="UTF-8"?>
<svg width="26px" height="23px" viewBox="0 0 26 23" version="1.1" xmlns="http://www.w3.org/2000/svg" xmlns:xlink="http://www.w3.org/1999/xlink">
    <title>menu</title>
    <g id="menu" stroke="none" stroke-width="1" fill="none" fill-rule="evenodd">
        <g id="Group-3" fill="#F97794" fill-rule="nonzero">
            <path d="M23.24415,2.22044605e-15 L2.35585,2.22044605e-15 C1.05685,2.22044605e-15 1.81188398e-13,1.0568 1.81188398e-13,2.35745 C1.81188398e-13,3.65645 1.05685,4.7133 2.35585,4.7133 L23.24415,4.7133 C24.54315,4.7133 25.6,3.65645 25.6,2.35745 C25.6,1.0568 24.54315,2.22044605e-15 23.24415,2.22044605e-15 Z" id="Path"></path>
            <path d="M23.24415,8.7133 L2.35585,8.7133 C1.05685,8.7133 1.81188398e-13,9.7701 1.81188398e-13,11.07075 C1.81188398e-13,12.36975 1.05685,13.4266 2.35585,13.4266 L23.24415,13.4266 C24.54315,13.4266 25.6,12.36975 25.6,11.07075 C25.6,9.7701 24.54315,8.7133 23.24415,8.7133 L23.24415,8.7133 Z" id="Path"></path>
            <path d="M23.24415,17.4266 L2.35585,17.4266 C1.05685,17.4266 1.81188398e-13,18.48345 1.81188398e-13,19.78405 C1.81188398e-13,21.08305 1.05685,22.1399 2.35585,22.1399 L23.24415,22.1399 C24.54315,22.1399 25.6,21.08305 25.6,19.78405 C25.6,18.48345 24.54315,17.4266 23.24415,17.4266 Z" id="Path"></path>
        </g>
    </g>
</svg>