<?xml version="1.0" encoding="UTF-8"?>
<svg width="26px" height="23px" viewBox="0 0 26 23" version="1.1" xmlns="http://www.w3.org/2000/svg" xmlns:xlink="http://www.w3.org/1999/xlink">
    <title>menu 2</title>
    <g id="menu-2" stroke="none" stroke-width="1" fill="none" fill-rule="evenodd">
        <g id="Group-3-Copy" transform="translate(2.000000, 0.000000)" fill="#F97794" fill-rule="nonzero">
            <path d="M21.24415,9 L0.35585,9 C-0.94315,9 -2,10.0568 -2,11.35745 C-2,12.65645 -0.94315,13.7133 0.35585,13.7133 L21.24415,13.7133 C22.54315,13.7133 23.6,12.65645 23.6,11.35745 C23.6,10.0568 22.54315,9 21.24415,9 Z" id="Path" transform="translate(10.800000, 11.356650) rotate(-45.000000) translate(-10.800000, -11.356650) "></path>
            <path d="M21.24415,9 L0.35585,9 C-0.94315,9 -2,10.0568 -2,11.35745 C-2,12.65645 -0.94315,13.7133 0.35585,13.7133 L21.24415,13.7133 C22.54315,13.7133 23.6,12.65645 23.6,11.35745 C23.6,10.0568 22.54315,9 21.24415,9 Z" id="Path-Copy" transform="translate(10.800000, 11.356650) scale(-1, 1) rotate(-45.000000) translate(-10.800000, -11.356650) "></path>
        </g>
    </g>
</svg>