<?xml version="1.0" encoding="UTF-8"?>
<svg width="17px" height="28px" viewBox="0 0 17 28" version="1.1" xmlns="http://www.w3.org/2000/svg" xmlns:xlink="http://www.w3.org/1999/xlink">
    <title>Mobile Application</title>
    <g id="Mobile-Application" stroke="none" stroke-width="1" fill="none" fill-rule="evenodd">
        <g id="Group-4" fill="#F97794" fill-rule="nonzero">
            <path d="M14.56866,7.10542736e-14 L2.17134,7.10542736e-14 C0.974052,7.10542736e-14 -1.08357767e-13,0.974052 -1.08357767e-13,2.17134 L-1.08357767e-13,25.47666 C-1.08357767e-13,26.673948 0.974052,27.648 2.17134,27.648 L14.56866,27.648 C15.765948,27.648 16.74,26.673948 16.74,25.47666 L16.74,2.17134 C16.74,0.974052 15.765948,7.10542736e-14 14.56866,7.10542736e-14 Z M5.839722,1.62 L10.905516,1.62 L10.905516,2.435616 L5.839722,2.435616 L5.839722,1.62 Z M15.12,25.47666 C15.12,25.78068 14.872626,26.028 14.56866,26.028 L2.17134,26.028 C1.86732,26.028 1.62,25.78068 1.62,25.47666 L1.62,2.17134 C1.62,1.86732 1.86732,1.62 2.17134,1.62 L4.219722,1.62 L4.219722,2.65518 C4.219722,3.427326 4.847094,4.055562 5.618214,4.055562 L11.12697,4.055562 C11.89809,4.055562 12.525462,3.427326 12.525462,2.65518 L12.525462,1.62 L14.568606,1.62 C14.872626,1.62 15.12,1.86732 15.12,2.17134 L15.12,25.47666 L15.12,25.47666 Z" id="Shape"></path>
            <path d="M10.588698,23.333616 L6.156486,23.333616 C5.70915,23.333616 5.346486,23.69628 5.346486,24.143616 C5.346486,24.590952 5.70915,24.953616 6.156486,24.953616 L10.588698,24.953616 C11.036034,24.953616 11.398698,24.590952 11.398698,24.143616 C11.398698,23.69628 11.036034,23.333616 10.588698,23.333616 Z" id="Path"></path>
            <path d="M12.70944,13.012704 L12.040542,13.012704 C11.944098,12.574278 11.771244,12.164256 11.536722,11.797488 L12.015486,11.317212 C12.331332,11.000394 12.330468,10.487502 12.01365,10.17171 C11.696778,9.855918 11.18394,9.856674 10.868148,10.173546 L10.392354,10.650852 C10.027152,10.416384 9.61902,10.243584 9.182592,10.147032 L9.182592,9.47322 C9.182592,9.025884 8.819928,8.66322 8.372592,8.66322 C7.925256,8.66322 7.562592,9.025884 7.562592,9.47322 L7.562592,10.146924 C7.127028,10.24326 6.719544,10.415682 6.354882,10.649448 L5.881356,10.174356 C5.56551,9.857484 5.052618,9.856674 4.735854,10.17252 C4.418982,10.488312 4.418172,11.001204 4.734018,11.318022 L5.209812,11.795328 C4.974102,12.163338 4.800546,12.57498 4.704102,13.015242 L4.035798,13.015242 C3.588462,13.015242 3.225798,13.377906 3.225798,13.825242 C3.225798,14.272578 3.588462,14.635242 4.035798,14.635242 L4.704696,14.635242 C4.801356,15.074748 4.974804,15.485742 5.210244,15.853212 L4.736826,16.328142 C4.42098,16.64496 4.421844,17.157852 4.738662,17.473644 C4.896774,17.631216 5.103648,17.709948 5.310522,17.709948 C5.51826,17.709948 5.725944,17.630514 5.884218,17.471808 L6.355692,16.998822 C6.720948,17.232858 7.129026,17.405334 7.565346,17.501508 L7.565346,18.174672 C7.565346,18.622008 7.92801,18.984672 8.375346,18.984672 C8.822682,18.984672 9.185346,18.622008 9.185346,18.174672 L9.185346,17.500374 C9.622314,17.40339 10.030878,17.229888 10.39635,16.994664 L10.869228,17.469054 C11.027502,17.627814 11.235132,17.707194 11.442924,17.707194 C11.649798,17.707194 11.856726,17.628462 12.014784,17.47089 C12.331602,17.155044 12.332412,16.642206 12.01662,16.325388 L11.539422,15.846624 C11.773188,15.480126 11.945394,15.070536 12.041352,14.632596 L12.709656,14.632596 C13.156992,14.632596 13.519656,14.269932 13.519656,13.822596 C13.519656,13.37526 13.15683,13.012704 12.70944,13.012704 L12.70944,13.012704 Z M8.372592,15.969204 C7.194906,15.969204 6.236784,15.00687 6.236784,13.824 C6.236784,12.64113 7.194906,11.678742 8.372592,11.678742 C9.550278,11.678742 10.508346,12.641076 10.508346,13.824 C10.5084,15.00687 9.550278,15.969204 8.372592,15.969204 Z" id="Shape"></path>
        </g>
    </g>
</svg>