<?xml version="1.0" encoding="UTF-8"?>
<svg width="31px" height="21px" viewBox="0 0 31 21" version="1.1" xmlns="http://www.w3.org/2000/svg" xmlns:xlink="http://www.w3.org/1999/xlink">
    <title>MVP Development</title>
    <g id="MVP-Development" stroke="none" stroke-width="1" fill="none" fill-rule="evenodd">
        <g id="Shape-2" fill="#2F2D74" fill-rule="nonzero">
            <path d="M30.7200041,5.226 C30.7192841,4.75962 30.5821241,4.28664 30.2788241,3.89676 L27.8447441,0.78228 C27.4370441,0.2646 26.8167041,0.00102 26.1967841,7.46069873e-14 C25.8278441,7.46069873e-14 25.4521841,0.09456 25.1202641,0.30156 L22.7469041,1.77816 C22.4973041,1.93734 22.0693841,2.0466 21.6560441,2.04378 C21.3349241,2.04516 21.0246041,1.9809 20.8197041,1.87968 L18.4955441,0.7539 C18.1206641,0.57342 17.7027641,0.49944 17.2825241,0.49872 C16.6789841,0.50154 16.0677641,0.64986 15.5766041,0.99024 L15.3054041,1.1805 C15.0886241,1.07232 14.7573641,0.9075 14.3821241,0.72078 C13.9321241,0.50016 13.4029841,0.41118 12.8685041,0.40944 C12.3856841,0.41082 11.9029841,0.48522 11.4791441,0.66426 L9.89610408,1.33974 C9.63846408,1.45146 9.22866408,1.52442 8.82162408,1.52262 C8.41458408,1.52436 8.00550408,1.4514 7.74786408,1.33974 L6.16338408,0.6639 C5.87436408,0.54066 5.56542408,0.48798 5.25924408,0.48762 C4.90668408,0.48798 4.55622408,0.55746 4.23048408,0.6894 C3.90516408,0.82206 3.60318408,1.0179 3.36270408,1.28664 L0.477904084,4.5174 C0.158164084,4.87446 -0.000655915631,5.3241 2.03584925e-06,5.76672 C-0.000655915631,6.29454 0.225184084,6.82404 0.660784084,7.19514 L3.35178408,9.49098 L2.07522408,10.82268 C1.72332408,11.18994 1.54812408,11.6661 1.54812408,12.13692 C1.54746408,12.63786 1.74642408,13.14366 2.14050408,13.51608 L2.39946408,13.76214 C2.64348408,13.99362 2.93670408,14.14086 3.24354408,14.2194 C3.08964408,14.50248 3.00552408,14.81286 3.00618408,15.12384 C3.00552408,15.62514 3.20448408,16.13058 3.59784408,16.50342 L3.59718408,16.50306 L3.85692408,16.7502 C4.22664408,17.10066 4.70592408,17.2752 5.17812408,17.2749 C5.43192408,17.27526 5.68602408,17.22426 5.92482408,17.12442 C6.00864408,17.46444 6.18174408,17.78766 6.45402408,18.04596 L6.71376408,18.2931 C7.08348408,18.64356 7.56198408,18.8181 8.03496408,18.8178 C8.40468408,18.81816 8.77608408,18.7092 9.09582408,18.4977 C9.18936408,18.7986 9.34962408,19.08378 9.59358408,19.31556 L9.85332408,19.5627 C10.2222641,19.91316 10.7015441,20.0877 11.1738641,20.0874 C11.6768441,20.08776 12.1848041,19.89018 12.5599841,19.4985 L13.6882241,18.32034 L15.2210441,19.73898 C15.5879441,20.0793 16.0588841,20.24862 16.5237641,20.2476046 C17.0344841,20.24868 17.5497041,20.04408 17.9256641,19.6416 L18.1703441,19.37946 C18.3815441,19.1526 18.5194241,18.8841 18.5994041,18.60384 L19.1931641,19.15188 C19.5607241,19.49082 20.0310041,19.65942 20.4952241,19.65906 C21.0066041,19.65942 21.5232641,19.45482 21.8995841,19.05204 L22.1428841,18.7902 C22.4238641,18.49002 22.5820241,18.1182 22.6308641,17.73846 C22.7875841,17.7786 22.9464041,17.80584 23.1066041,17.80584 C23.6179841,17.80584 24.1332041,17.6016 24.5098841,17.19918 L24.7539041,16.93734 C25.0949441,16.57182 25.2646241,16.10304 25.2639041,15.64086 C25.2639041,15.4974 25.2433241,15.35466 25.2115241,15.2136 C25.6356641,15.15738 26.0469041,14.9682 26.3596241,14.63238 L26.6043041,14.37024 C26.9453441,14.00472 27.1143041,13.53594 27.1143041,13.0734 C27.1149641,12.56448 26.9097641,12.05094 26.5048241,11.67678 L26.0472041,11.25408 L30.1774841,6.68748 C30.5482841,6.27636 30.7193441,5.74716 30.7200041,5.226 Z M3.72084408,13.2477 C3.50202408,13.24704 3.28800408,13.1688 3.12078408,13.01034 L2.86140408,12.76428 C2.68194408,12.5946 2.59332408,12.36882 2.59260408,12.13698 C2.59332408,11.91954 2.67114408,11.70726 2.83140408,11.54004 L5.44596408,8.81166 C5.61630408,8.63394 5.84358408,8.54496 6.07674408,8.54466 C6.29490408,8.54502 6.50820408,8.62356 6.67680408,8.78238 L6.93510408,9.0288 C6.93510408,9.0288 7.20252408,9.42426 7.20318408,9.6564 C7.20252408,9.83022 7.15014408,9.99954 7.04856408,10.14618 C7.03986408,10.15488 4.22664408,13.08678 4.22664408,13.08678 C4.07724408,13.1925 3.90060408,13.24692 3.72084408,13.2477 Z M5.80896408,15.96912 C5.63898408,16.14612 5.41206408,16.23474 5.17890408,16.23546 C4.96008408,16.2351 4.74672408,16.15656 4.57884408,15.9981 L4.31910408,15.75126 L4.31844408,15.7509 C4.14042408,15.58194 4.05102408,15.35544 4.05102408,15.1236 C4.05102408,14.90616 4.12956408,14.69388 4.28904408,14.52666 C4.28904408,14.52666 7.77420408,10.89876 7.80354408,10.86378 C7.97010408,10.70358 8.18472408,10.62084 8.40636408,10.62048 C8.62518408,10.62084 8.83854408,10.69902 9.00642408,10.85784 L9.26616408,11.10498 C9.44484408,11.27394 9.53358408,11.50014 9.53424408,11.73228 C9.53352408,11.94972 9.45504408,12.1623 9.29544408,12.32952 L5.80896408,15.96912 Z M8.66538408,17.5116 C8.49576408,17.68902 8.26890408,17.77776 8.03568408,17.77842 C7.81686408,17.77806 7.60350408,17.69952 7.43562408,17.5407 L7.17516408,17.29386 C6.99648408,17.12454 6.90708408,16.8984 6.90708408,16.66656 C6.90708408,16.47252 6.97308408,16.2843 7.09938408,16.12758 L9.52650408,13.59432 C9.69024408,13.44666 9.89544408,13.36884 10.1080841,13.36884 C10.3269041,13.3692 10.5402641,13.44738 10.7081441,13.6062 L10.9686041,13.85334 C11.1466241,14.0223 11.2360241,14.2485 11.2366841,14.48028 C11.2359641,14.69814 11.1567641,14.91072 10.9978841,15.07752 L8.66538408,17.5116 Z M13.2771041,17.24424 L11.8043441,18.78132 C11.6346641,18.95862 11.4074441,19.04736 11.1742841,19.04802 C10.9554641,19.04766 10.7421041,18.96912 10.5742241,18.8103 L10.3144841,18.56346 C10.1364641,18.3945 10.0470641,18.168 10.0464041,17.93616 C10.0470641,17.7183 10.1256041,17.50572 10.2852041,17.33922 L11.7573041,15.8022 C11.9276441,15.6249 12.1549241,15.53586 12.3880841,15.5355 C12.6062441,15.53586 12.8202641,15.61404 12.9881441,15.77322 L13.2486041,16.02006 C13.4266241,16.18902 13.5153041,16.41522 13.5160241,16.647 C13.5151841,16.8648 13.4366441,17.07738 13.2771041,17.24424 Z M26.0713841,13.07478 C26.0710841,13.28826 25.9945841,13.49736 25.8396041,13.6635 L25.5955841,13.92534 C25.4252441,14.10756 25.1941241,14.19972 24.9574841,14.20008 C24.7428041,14.19972 24.5326241,14.1243 24.3658241,13.9701 L20.2537241,10.16724 L19.5426641,10.92858 L23.9441441,15.00612 C24.1274441,15.1758 24.2195441,15.4062 24.2209241,15.64146 C24.2195441,15.85578 24.1437641,16.06452 23.9891441,16.23072 L23.7458441,16.49256 C23.5755041,16.67478 23.3443841,16.76658 23.1077441,16.7673 C22.8930641,16.76664 22.6822241,16.69086 22.5167441,16.53762 L18.4035641,12.73482 L17.6932241,13.49616 L21.3435041,16.87176 C21.5194241,17.04036 21.6095441,17.26482 21.6095441,17.49516 C21.6095441,17.70882 21.5337641,17.91786 21.3791441,18.0837 L21.1351241,18.34554 C20.9654441,18.52776 20.7336641,18.61992 20.4963641,18.62058 C20.2809641,18.61992 20.0708441,18.54414 19.9047041,18.3909 L16.2617441,15.02754 L16.2610841,15.02754 L16.2604241,15.02688 L15.5514641,15.7896 L15.5521841,15.79026 L15.5658041,15.80316 L17.3904041,17.48712 C17.5520441,17.65326 17.6358041,17.8662 17.6364641,18.08646 C17.6358041,18.29904 17.5606841,18.50706 17.4060641,18.67296 L17.1620441,18.9351 C16.9917041,19.11732 16.7613041,19.20876 16.5253241,19.20948 C16.3106441,19.20882 16.1004641,19.1334 15.9343241,18.9795 L14.3457041,17.50848 C14.4839441,17.23728 14.5611041,16.94298 14.5611041,16.64766 C14.5617641,16.14672 14.3628041,15.64164 13.9694441,15.2685 L13.7089841,15.02136 C13.3400441,14.6712 12.8614241,14.49636 12.3891641,14.49702 C12.3525041,14.49702 12.3155441,14.50542 12.2796041,14.50752 C12.2796041,14.49882 12.2816441,14.4897 12.2816441,14.481 C12.2823041,13.98006 11.6899841,13.10112 11.6899841,13.10112 L11.4302441,12.8547 C11.1541241,12.59286 10.8172241,12.42954 10.4668241,12.3639 C10.5390641,12.15936 10.5799241,11.94642 10.5799241,11.73312 C10.5799241,11.23218 10.3816241,10.72668 9.98826408,10.35396 L9.72852408,10.10682 C9.35880408,9.75636 8.88030408,9.58146 8.40798408,9.58182 C8.35284408,9.58182 8.29842408,9.59298 8.24358408,9.5979 C8.22858408,9.11688 8.03484408,8.63622 7.65786408,8.27808 L7.65786408,8.27772 L7.39884408,8.03166 C7.02912408,7.68084 6.55062408,7.50594 6.07830408,7.5063 C5.57454408,7.50594 5.06736408,7.70352 4.69218408,8.0952 L4.07502408,8.73924 L1.34106408,6.4074 C1.14456408,6.23916 1.04646408,6.00666 1.04574408,5.76792 C1.04640408,5.56788 1.11450408,5.37204 1.25970408,5.20944 L4.14444408,1.97874 C4.25892408,1.85028 4.42824408,1.73406 4.62654408,1.65336 C4.82484408,1.57272 5.04996408,1.52844 5.26044408,1.52874 C5.44374408,1.52874 5.61576408,1.56192 5.75334408,1.62126 L7.33710408,2.29704 C7.78356408,2.4852 8.30190408,2.56236 8.82282408,2.56404 C9.34434408,2.5623 9.86202408,2.48514 10.3085441,2.29704 L11.8915841,1.62156 C12.1356041,1.51512 12.5038241,1.44912 12.8700041,1.45044725 C13.2749441,1.44804 13.6805441,1.53186 13.9158041,1.65192 C14.0652041,1.72626 14.2069241,1.79682 14.3385041,1.86276 L12.7240241,2.99766 C12.2052641,3.36246 11.9256641,3.9426 11.9263841,4.52802 C11.9257241,4.9155 12.0485441,5.30994 12.2985041,5.64468 L12.2978441,5.64396 L12.5110841,5.93052 C12.9160241,6.46884 13.5474641,6.74562 14.1786041,6.747 C14.5350041,6.747 14.8980641,6.65694 15.2216441,6.46284 L16.1871641,5.883 C16.3840841,5.76258 16.6814441,5.6865 16.9889441,5.68788 C17.3502641,5.68578 17.7143441,5.79264 17.9332241,5.9535 L20.6043641,7.86852 C21.1988441,8.2944 22.1671241,9.08436 22.7037041,9.58146 L25.7954441,12.44004 C25.9785041,12.60978 26.0706641,12.83916 26.0713841,13.07478 Z M29.4022841,5.99256 L25.2835241,10.54692 L23.4135041,8.81832 C22.8277841,8.2776 21.8619041,7.48908 21.2140241,7.02372 L18.5436041,5.1087 C18.0908441,4.78794 17.5365041,4.64928 16.9884641,4.64724 C16.5220841,4.64862 16.0522241,4.75026 15.6466241,4.99176 L14.6818241,5.5716 C14.5338041,5.66058 14.3593241,5.706 14.1780641,5.70636 C13.8540641,5.70744 13.5298241,5.55624 13.3490441,5.31012 L13.1364641,5.02392 L13.1357441,5.0232 C13.0226441,4.87068 12.9699641,4.69962 12.9691841,4.52646 C12.9705641,4.26462 13.0913441,4.01052 13.3252841,3.8454 L16.1800241,1.8396 C16.4268641,1.66092 16.8660041,1.53558 17.2831241,1.5387 C17.5728641,1.53732 17.8496441,1.59558 18.0391841,1.68918 L20.3632841,2.81496 C20.7595241,3.00522 21.2067041,3.08304 21.6565841,3.08412 C22.2346241,3.0813 22.8189641,2.95566 23.3004041,2.65998 L25.6744841,1.18308 C25.8259841,1.08852 26.0078441,1.03961776 26.1974441,1.03961776 C26.5179041,1.03896 26.8390241,1.18416 27.0208841,1.42116 L29.4549641,4.53564 C29.5953041,4.71402 29.6766054,4.96566 29.6766054,5.22648 C29.6770241,5.51814 29.5740041,5.80512 29.4022841,5.99256 Z" id="Shape"></path>
        </g>
    </g>
</svg>