<?xml version="1.0" encoding="UTF-8"?>
<svg width="28px" height="31px" viewBox="0 0 28 31" version="1.1" xmlns="http://www.w3.org/2000/svg" xmlns:xlink="http://www.w3.org/1999/xlink">
    <title>We Listen and We Pitch In</title>
    <g id="We-Listen-and-We-Pitch-In" stroke="none" stroke-width="1" fill="none" fill-rule="evenodd">
        <g id="Group-10" fill="#E83F65" fill-rule="nonzero">
            <path d="M27.2682715,24.9302344 C27.2675684,24.9288281 27.2668652,24.9274219 27.2661621,24.9260156 C27.2647558,24.9232031 27.2633496,24.9203906 27.2619434,24.9175781 L25.296709,21.16125 C24.1785058,19.0211719 23.1870996,17.4953906 20.5995996,17.3561719 C19.5430371,17.29875 18.8666308,17.1065625 18.1025684,16.2154687 C18.0219434,16.1210156 17.8890527,15.9817969 17.7580371,15.8470313 C18.7297558,14.9017969 19.4717871,13.7200781 19.7982715,12.5479687 L20.3556152,12.5479687 C21.2905371,12.5479687 22.0513184,11.7803906 22.0513184,10.8370313 L22.0513184,10.0064063 C22.0513184,9.47953128 21.8138965,9.00773436 21.4414746,8.69367186 L21.4414746,7.04929686 C21.4414746,4.87382814 20.5988965,3.04265628 19.0053808,1.75429686 C17.6059277,0.62296872 15.7288184,8.52651283e-14 13.7195215,8.52651283e-14 C11.6811621,8.52651283e-14 9.77663083,0.63984372 8.35631839,1.801875 C6.73444339,3.12890628 5.87709961,5.01960936 5.87709961,7.26960936 L5.87709961,8.6953125 C5.84100583,8.72578128 5.80561525,8.75765628 5.77186525,8.79140628 C5.44631839,9.11625 5.26702147,9.54820314 5.26702147,10.0082813 L5.26702147,10.8389063 C5.26702147,11.7822656 6.02780275,12.5496094 6.96272461,12.5496094 L7.52030275,12.5496094 C7.87022461,13.8060937 8.69709961,15.0721875 9.77217775,16.0467187 C9.71264647,16.1097656 9.65944339,16.1678906 9.61889647,16.215 C8.85272461,17.1086719 8.17702147,17.300625 7.12163083,17.3564063 C4.95717775,17.4733594 3.92217775,18.5285156 2.95374025,20.1930469 C2.82764647,20.409375 2.90100583,20.686875 3.11756839,20.8129687 C3.18928711,20.8546875 3.26756839,20.8746094 3.34514647,20.8746094 C3.50124025,20.8746094 3.65334961,20.79375 3.73749025,20.6491406 C4.59530275,19.1749219 5.39639647,18.3578906 7.17014647,18.2620313 C7.57397461,18.2407031 7.94803711,18.196875 8.30311525,18.1078125 C9.30553711,19.5271875 11.3663965,20.3835937 13.7701465,20.3835937 C13.8702246,20.3835937 13.9707715,20.3819531 14.0720215,20.3789063 C16.4385058,20.3090625 18.4365527,19.4477344 19.4014746,18.1061719 C19.7567871,18.1954687 20.1350684,18.2392969 20.5506152,18.2620313 C22.5983496,18.3719531 23.3574902,19.408125 24.4930371,21.5817187 L25.891084,24.2535937 C24.9613184,24.0253125 23.8763965,24.0635156 22.4694434,24.3611719 L22.6902246,22.1514844 C22.7199902,21.8484375 22.6199121,21.5526563 22.4082715,21.3189844 C22.180459,21.0675 21.8556152,20.9233594 21.5174121,20.9233594 L15.1140527,20.9233594 C14.8635058,20.9233594 14.6605371,21.1263281 14.6605371,21.3766406 C14.6605371,21.6271875 14.8637402,21.8301563 15.1140527,21.8301563 L21.5174121,21.8301563 C21.5975684,21.8301563 21.6814746,21.8676563 21.736084,21.9278906 C21.7749902,21.9705469 21.7920996,22.0157813 21.7876465,22.0617187 L21.1299902,28.65 C21.1297558,28.6504687 21.1297558,28.6511719 21.1297558,28.6516406 L21.0456152,29.49375 C21.0303808,29.6477344 20.9394434,29.8132031 20.7756152,29.8132031 L6.94561525,29.8132031 C6.78905275,29.8132031 6.69108397,29.6524219 6.67538083,29.4932813 L6.59147461,28.6523437 C6.59124025,28.6511719 6.59124025,28.6502344 6.59124025,28.6492969 L6.21952147,24.9271875 C6.21881839,24.9072656 6.21694339,24.8875781 6.21366211,24.8683594 L5.93358397,22.0621875 C5.92889647,22.0157813 5.94624025,21.9705469 5.98491211,21.9278906 C6.03975583,21.8674219 6.12342775,21.8301563 6.20358397,21.8301563 L12.8265527,21.8301563 C13.0768652,21.8301563 13.279834,21.6269531 13.279834,21.3766406 C13.279834,21.1260937 13.0768652,20.923125 12.8265527,20.923125 L6.20358397,20.923125 C5.86538083,20.923125 5.54077147,21.0675 5.31295897,21.3189844 C5.10131839,21.5526563 5.00100583,21.8482031 5.03100583,22.1517187 L5.25155275,24.3607031 C3.84459961,24.0635156 2.75967775,24.0253125 1.83014647,24.2535937 L2.90077147,22.2077344 C3.01678711,21.9860156 2.93124025,21.7117969 2.70928711,21.5957813 C2.48733397,21.4795313 2.21334961,21.5655469 2.09733397,21.7872656 L0.459052749,24.9178125 C0.457646469,24.920625 0.456474609,24.9234375 0.454833969,24.92625 C0.454130829,24.9276563 0.453427749,24.9290625 0.452724609,24.9304687 C-0.0856347506,25.9664063 -0.144462891,26.8464844 0.279521469,27.5463281 C0.932958969,28.6258594 2.67764647,29.150625 5.61249025,29.150625 L5.72991211,29.150625 L5.77303711,29.5830469 C5.83819339,30.241875 6.33131839,30.7202344 6.94561525,30.7202344 L20.7753808,30.7202344 C21.3899121,30.7202344 21.8830371,30.241875 21.947959,29.5832813 L21.9913184,29.150625 L22.1103808,29.150625 C25.0440527,29.150625 26.7880371,28.6258594 27.441709,27.5463281 C27.865459,26.8464844 27.8068652,25.9661719 27.2682715,24.9302344 L27.2682715,24.9302344 Z M19.0745215,8.29734372 L16.1694434,8.29734372 C14.0052246,8.29734372 13.1394434,7.76953128 12.3763184,7.30453128 C12.2249121,7.21171872 12.0917871,7.123125 11.9631152,7.03734372 C11.584834,6.785625 11.2531934,6.56484372 10.870459,6.56484372 C10.8287402,6.56484372 10.7863184,6.56765628 10.7431934,6.57304686 C10.2524121,6.63585936 9.88163083,7.0425 9.47592775,7.6340625 C9.08686525,8.20148436 8.86772461,8.29734372 8.52366211,8.29734372 L8.24381839,8.29734372 L8.24381839,7.39289064 C8.24381839,4.201875 11.1238184,2.47195314 13.8338965,2.46445314 L13.8514746,2.46445314 C16.2512402,2.46445314 19.0522558,3.85382814 19.0745215,7.7709375 L19.0745215,8.29734372 Z M21.1445215,10.8370313 C21.1445215,11.2804687 20.7906152,11.6411719 20.3556152,11.6411719 L19.9649121,11.6411719 C19.9749902,11.5232813 19.9815527,11.4058594 19.9815527,11.2898437 L19.9815527,9.20320314 L20.3556152,9.2025 C20.4915527,9.2025 20.6197558,9.23765628 20.7315527,9.29976564 C20.742334,9.30726564 20.7538184,9.31429686 20.7655371,9.32085936 C20.9924121,9.4621875 21.1445215,9.71625 21.1445215,10.0064063 L21.1445215,10.8370313 Z M6.78389647,7.26960936 C6.78389647,2.89804686 10.379209,0.90679686 13.7195215,0.90679686 C15.5218652,0.90679686 17.196709,1.45828128 18.4351465,2.45953128 C19.808584,3.56976564 20.5344434,5.15695314 20.5344434,7.04929686 L20.5344434,8.3053125 C20.4753808,8.29898436 20.4153808,8.29570314 20.3546777,8.29570314 L19.9815527,8.29640628 L19.9815527,7.76835936 C19.9571777,3.4753125 16.8889746,1.55742186 13.851709,1.55742186 C13.8451465,1.55742186 13.8378808,1.55742186 13.8313184,1.55742186 C12.2042871,1.56210936 10.591084,2.11359372 9.40491211,3.07078128 C8.07131839,4.14679686 7.33678711,5.68195314 7.33678711,7.39289064 L7.33678711,8.29734372 L6.96389647,8.29734372 C6.96249025,8.29734372 6.96084961,8.29734372 6.95944339,8.29734372 C6.90038083,8.29734372 6.84178711,8.300625 6.78389647,8.30671872 L6.78389647,7.26960936 Z M6.96272461,11.6428125 C6.52772461,11.6428125 6.17381839,11.2821094 6.17381839,10.8389063 L6.17381839,10.0082813 C6.17381839,9.79101564 6.25842775,9.586875 6.41241211,9.43335936 C6.56053711,9.28570314 6.75483397,9.204375 6.96084961,9.204375 L6.96272461,9.204375 L7.33702147,9.204375 L7.33702147,11.2898437 C7.33702147,11.4065625 7.34358397,11.5244531 7.35366211,11.6430469 L6.96272461,11.6430469 L6.96272461,11.6428125 Z M8.32327147,12.0239063 C8.32163083,12.0138281 8.31975583,12.0035156 8.31741211,11.9936719 C8.26983397,11.7550781 8.24381839,11.5192969 8.24381839,11.2898437 L8.24381839,9.20414064 L8.52389647,9.20414064 C9.33319339,9.20414064 9.78881839,8.7815625 10.2240527,8.146875 C10.6264746,7.56 10.8015527,7.47984372 10.8580371,7.47257814 C10.9611621,7.45875 11.2147558,7.62867186 11.4606152,7.79226564 C11.5897558,7.87851564 11.7364746,7.97601564 11.9033496,8.07820314 C12.7264746,8.57976564 13.7506934,9.20414064 16.1694434,9.20414064 L19.0745215,9.20414064 L19.0745215,11.2898437 C19.0745215,11.5174219 19.0487402,11.7513281 19.0020996,11.9880469 C18.9988184,12.0014063 18.9962402,12.0147656 18.9943652,12.0285937 C18.6106934,13.87125 16.8943652,15.8857031 14.9699121,16.6127344 C14.0031152,16.97625 13.3189746,16.9767187 12.355459,16.6146094 C10.4251465,15.8892187 8.70483397,13.8710156 8.32327147,12.0239063 Z M14.0450684,19.4723437 C11.9253808,19.5351563 10.1033496,18.8871094 9.17991211,17.7621094 C9.56428711,17.5460156 9.93459961,17.2399219 10.3070215,16.805625 C10.347334,16.75875 10.4099121,16.6917187 10.4795215,16.6188281 C10.9691308,16.9701563 11.4936621,17.2596094 12.0362402,17.4635156 C12.619834,17.6828906 13.139209,17.7925781 13.6592871,17.7925781 C14.1805371,17.7925781 14.7024902,17.6821875 15.2895996,17.4614063 C15.9172558,17.2244531 16.5203027,16.8735937 17.0734277,16.4439844 C17.1997558,16.5738281 17.3431934,16.7228906 17.4137402,16.8053906 C17.7840527,17.2371094 18.1466308,17.5413281 18.5235058,17.7567187 C17.6743652,18.7560937 15.9868652,19.4151563 14.0450684,19.4723437 L14.0450684,19.4723437 Z M5.61249025,28.2435937 C2.42991211,28.2435937 1.37756839,27.6089063 1.05506839,27.0764063 C0.818818389,26.6861719 0.868974609,26.1417187 1.20272461,25.4571094 C2.21874025,24.91875 3.44709961,24.8744531 5.34647461,25.3101563 L5.63920897,28.2435937 L5.61249025,28.2435937 Z M26.6659277,27.0766406 C26.3434277,27.6089063 25.2915527,28.2435937 22.1103808,28.2435937 L22.0817871,28.2435937 L22.3747558,25.310625 C24.2736621,24.8744531 25.5020215,24.9185156 26.5182715,25.4571094 C26.8522558,26.1417187 26.9021777,26.6864063 26.6659277,27.0766406 L26.6659277,27.0766406 Z" id="Shape"></path>
            <path d="M11.9087402,25.8215625 C11.9087402,26.7963281 12.7845996,27.5894531 13.8613184,27.5894531 C14.9380371,27.5894531 15.8141308,26.7963281 15.8141308,25.8215625 C15.8141308,24.8465625 14.9380371,24.0534375 13.8613184,24.0534375 C12.7845996,24.0534375 11.9087402,24.8465625 11.9087402,25.8215625 Z M13.8613184,24.9604687 C14.4381152,24.9604687 14.907334,25.3467187 14.907334,25.8215625 C14.907334,26.2964063 14.4381152,26.6826563 13.8613184,26.6826563 C13.2847558,26.6826563 12.8155371,26.2964063 12.8155371,25.8215625 C12.8155371,25.3467187 13.2847558,24.9604687 13.8613184,24.9604687 Z" id="Shape"></path>
            <path d="M11.676709,12.2271094 C11.9270215,12.2271094 12.1299902,12.0241406 12.1299902,11.7735937 L12.1299902,11.2134375 C12.1299902,10.963125 11.9270215,10.7601563 11.676709,10.7601563 C11.4261621,10.7601563 11.2231934,10.963125 11.2231934,11.2134375 L11.2231934,11.7735937 C11.2231934,12.0241406 11.4261621,12.2271094 11.676709,12.2271094 Z" id="Path"></path>
            <path d="M15.5970996,12.2271094 C15.8476465,12.2271094 16.0506152,12.0241406 16.0506152,11.7735937 L16.0506152,11.2134375 C16.0506152,10.963125 15.8476465,10.7601563 15.5970996,10.7601563 C15.3467871,10.7601563 15.1438184,10.963125 15.1438184,11.2134375 L15.1438184,11.7735937 C15.1438184,12.0241406 15.3467871,12.2271094 15.5970996,12.2271094 Z" id="Path"></path>
        </g>
    </g>
</svg>