<?xml version="1.0" encoding="UTF-8"?>
<svg width="25px" height="22px" viewBox="0 0 25 22" version="1.1" xmlns="http://www.w3.org/2000/svg" xmlns:xlink="http://www.w3.org/1999/xlink">
    <title>Web Application</title>
    <g id="Web-Application" stroke="none" stroke-width="1" fill="none" fill-rule="evenodd">
        <g id="Group-3" fill="#C13B3B" fill-rule="nonzero">
            <path d="M22.3190625,-2.13162821e-14 L2.25693749,-2.13162821e-14 C1.0125,-2.13162821e-14 1.0658141e-14,1.0125 1.0658141e-14,2.25693749 L1.0658141e-14,13.8975 C1.0658141e-14,15.1419375 1.0125,16.1544375 2.25693749,16.1544375 L9.73068749,16.1544375 L9.50531251,20.0330625 L7.79906251,20.0330625 C7.38356251,20.0330625 7.04681251,20.37 7.04681251,20.7855 C7.04681251,21.201 7.38356251,21.53775 7.79906251,21.53775 L16.7769375,21.53775 C17.1924375,21.53775 17.5291875,21.201 17.5291875,20.7855 C17.5291875,20.37 17.1924375,20.0330625 16.7769375,20.0330625 L15.0706875,20.0330625 L14.8453125,16.1544375 L22.3190625,16.1544375 C23.5635,16.1544375 24.576,15.1419375 24.576,13.8975 L24.576,2.25693749 C24.576,1.0125 23.5635,-2.13162821e-14 22.3190625,-2.13162821e-14 Z M11.0124375,20.0330625 L11.238,16.154625 L13.338,16.154625 L13.5635625,20.0330625 L11.0124375,20.0330625 Z M23.0713125,13.8975 C23.0713125,14.31225 22.7338125,14.64975 22.3190625,14.64975 L2.25693749,14.64975 C1.84218749,14.64975 1.50468749,14.31225 1.50468749,13.8975 L1.50468749,2.25693749 C1.50468749,1.84218749 1.84218749,1.50468749 2.25693749,1.50468749 L22.3190625,1.50468749 C22.734,1.50468749 23.0713125,1.84218749 23.0713125,2.25693749 L23.0713125,13.8975 Z" id="Shape"></path>
            <path d="M9.05268749,4.20975 C8.7345,3.94256251 8.25993749,3.98418749 7.99275,4.30237498 L5.23012502,7.59356251 C4.99537498,7.87331251 4.99537498,8.28131251 5.23012502,8.56087498 L7.99275,11.85225 C8.26012502,12.170625 8.73468749,12.211875 9.05268749,11.9446875 C9.37106251,11.6776875 9.4125,11.203125 9.14531251,10.8849375 L6.78862502,8.07731251 L9.14531251,5.26968749 C9.41231251,4.9515 9.37087498,4.47693749 9.05268749,4.20975 Z" id="Path"></path>
            <path d="M16.58325,4.30237498 C16.3160625,3.984 15.8415,3.94256251 15.5233125,4.20975 C15.205125,4.47693749 15.1636875,4.9515 15.430875,5.26968749 L17.787375,8.07731251 L15.430875,10.8849375 C15.1636875,11.203125 15.205125,11.6776875 15.5233125,11.9446875 C15.8416875,12.2120625 16.31625,12.17025 16.58325,11.85225 L19.345875,8.56087498 C19.580625,8.28131251 19.580625,7.87331251 19.345875,7.59356251 L16.58325,4.30237498 Z" id="Path"></path>
            <path d="M13.8691875,4.08656251 C13.4829375,3.93337498 13.0456875,4.12256251 12.8926875,4.509 L10.2845625,11.091375 C10.1315625,11.477625 10.3205625,11.914875 10.7068125,12.0680625 C11.0930625,12.2210625 11.5303125,12.0320625 11.6835,11.645625 L14.2914375,5.06306251 C14.4444375,4.67681251 14.2554375,4.23956251 13.8691875,4.08656251 Z" id="Path"></path>
        </g>
    </g>
</svg>